<svg width="281" height="431" viewBox="0 0 281 431" fill="none" xmlns="http://www.w3.org/2000/svg">
<mask id="mask0" mask-type="alpha" maskUnits="userSpaceOnUse" x="0" y="0" width="281" height="431">
<rect x="0.282715" y="0.979248" width="280" height="430" rx="30" fill="#F3F2FF"/>
</mask>
<g mask="url(#mask0)">
<rect x="0.282715" y="0.979248" width="280" height="430" rx="30" fill="#F3F2FF"/>
</g>
<path d="M44.2136 143.389H35.0336L39.6236 130.969L44.2136 143.389ZM46.9136 150.409L50.1536 159.319H58.7936L43.9436 121.519H35.3036L20.4536 159.319H29.0936L32.3336 150.409H46.9136Z" fill="url(#paint0_linear)"/>
<path d="M75.8289 132.589H74.7489C69.8889 132.589 67.1889 136.099 67.1889 136.099V132.859H59.8989V159.319H67.1889V146.629C67.1889 142.039 69.6189 139.609 73.3989 139.609C75.0189 139.609 75.8289 139.879 75.8289 139.879V132.589Z" fill="url(#paint1_linear)"/>
<path d="M82.4252 129.889C82.4252 132.049 81.0753 133.399 79.4553 133.399H77.0253V139.879H81.6152V150.679C81.6152 156.889 84.5853 159.859 89.9853 159.859C92.6852 159.859 94.8453 159.049 94.8453 159.049V152.839C94.8453 152.839 93.7653 153.379 92.1452 153.379C90.2552 153.379 88.9053 152.029 88.9053 150.409V139.879H94.3053V133.399H88.9053V125.029H82.4252V129.889Z" fill="url(#paint2_linear)"/>
<path d="M103.93 132.859H96.64V159.319H103.93V132.859ZM104.47 125.299C104.47 122.869 102.85 121.249 100.15 121.249C97.72 121.249 96.1 122.869 96.1 125.299C96.1 127.729 97.72 129.349 100.15 129.349C102.85 129.349 104.47 127.729 104.47 125.299Z" fill="url(#paint3_linear)"/>
<path d="M134.461 133.669H117.451V130.429C117.451 128.809 118.801 127.459 120.691 127.459C122.311 127.459 123.391 127.999 123.391 127.999V121.789C123.391 121.789 121.231 120.979 118.531 120.979C113.131 120.979 110.161 123.949 110.161 130.159V133.669H106.381V140.149H110.161V159.319H117.451V140.149H127.171V159.319H134.461V133.669ZM135.001 125.299C135.001 122.869 133.381 121.249 130.681 121.249C128.251 121.249 126.631 122.869 126.631 125.299C126.631 127.729 128.251 129.349 130.681 129.349C133.381 129.349 135.001 127.729 135.001 125.299Z" fill="url(#paint4_linear)"/>
<path d="M137.444 146.089C137.444 153.379 143.924 159.859 151.754 159.859C159.044 159.859 162.554 154.459 162.554 154.459L158.234 149.869C158.234 149.869 155.804 153.379 151.754 153.379C147.974 153.379 144.734 150.139 144.734 146.089C144.734 142.039 147.974 138.799 151.754 138.799C155.804 138.799 157.964 142.309 157.964 142.309L162.554 137.719C162.554 137.719 159.044 132.319 151.754 132.319C143.924 132.319 137.444 138.799 137.444 146.089Z" fill="url(#paint5_linear)"/>
<path d="M172.295 132.859H165.005V159.319H172.295V132.859ZM172.835 125.299C172.835 122.869 171.215 121.249 168.515 121.249C166.085 121.249 164.465 122.869 164.465 125.299C164.465 127.729 166.085 129.349 168.515 129.349C171.215 129.349 172.835 127.729 172.835 125.299Z" fill="url(#paint6_linear)"/>
<path d="M191.486 159.319C193.106 159.319 198.776 159.319 198.776 159.319V142.849C198.776 136.909 194.186 132.319 187.436 132.319C180.416 132.319 176.906 137.449 176.906 137.449L180.956 141.499C180.956 141.499 182.846 138.799 186.896 138.799C189.866 138.799 191.486 140.419 191.486 142.579L183.116 144.091C178.256 144.955 175.286 147.979 175.286 152.299C175.286 156.349 178.796 159.859 184.196 159.859C188.786 159.859 191.486 156.619 191.486 156.619V159.319ZM186.086 153.919C183.656 153.919 182.576 152.839 182.576 151.219C182.576 149.599 183.656 148.573 185.546 148.249L191.486 147.169V147.979C191.486 151.759 189.326 153.919 186.086 153.919Z" fill="url(#paint7_linear)"/>
<path d="M210.664 121.519H203.374V159.319H210.664V121.519Z" fill="url(#paint8_linear)"/>
<path d="M99.9584 120.979C97.365 120.979 95.6172 122.727 95.6172 125.321C95.6172 127.914 97.365 129.605 99.9584 129.605C102.834 129.605 104.582 127.858 104.582 125.264C104.582 122.671 102.834 120.979 99.9584 120.979Z" fill="#2CBFBF"/>
<path d="M130.325 120.98C127.731 120.98 125.983 122.727 125.983 125.321C125.983 127.914 127.731 129.606 130.325 129.606C133.2 129.606 134.948 127.858 134.948 125.264C134.948 122.671 133.2 120.98 130.325 120.98Z" fill="#2CBFBF"/>
<path d="M168.521 120.98C165.927 120.98 164.18 122.727 164.18 125.321C164.18 127.914 165.927 129.606 168.521 129.606C171.396 129.606 173.144 127.858 173.144 125.264C173.144 122.671 171.396 120.98 168.521 120.98Z" fill="#2CBFBF"/>
<path d="M167.069 195.585C167.069 202.875 173.549 209.355 181.379 209.355C188.669 209.355 192.179 203.955 192.179 203.955L187.859 199.365C187.859 199.365 185.429 202.875 181.379 202.875C177.599 202.875 174.359 199.635 174.359 195.585C174.359 191.535 177.599 188.295 181.379 188.295C185.429 188.295 187.589 191.805 187.589 191.805L192.179 187.215C192.179 187.215 188.669 181.815 181.379 181.815C173.549 181.815 167.069 188.295 167.069 195.585Z" fill="#5F5CBF"/>
<path d="M216.543 198.015C216.543 198.015 216.814 196.935 216.814 195.045C216.814 187.485 211.143 181.815 203.583 181.815C196.023 181.815 189.813 188.025 189.813 195.585C189.813 203.145 196.023 209.355 203.853 209.355C211.143 209.355 215.193 204.765 215.193 204.765L211.413 199.905C211.413 199.905 208.983 203.145 204.393 203.145C200.343 203.145 197.913 200.715 197.373 198.015H216.543ZM203.583 188.025C206.823 188.025 208.984 190.185 209.524 192.885H197.373C198.183 190.185 200.343 188.025 203.583 188.025Z" fill="#5F5CBF"/>
<path d="M150.708 182.355H143.418V208.815H150.708V195.045C150.708 190.995 152.868 188.835 156.108 188.835C159.078 188.835 161.238 190.995 161.238 194.235V208.815H168.528V193.425C168.528 186.135 164.208 181.815 158.268 181.815C153.408 181.815 150.708 185.595 150.708 185.595V182.355Z" fill="url(#paint9_linear)"/>
<g filter="url(#filter0_d)">
<path d="M146.522 198.015C146.522 198.015 146.792 196.935 146.792 195.045C146.792 187.485 141.122 181.815 133.562 181.815C126.002 181.815 119.792 188.025 119.792 195.585C119.792 203.145 126.002 209.355 133.832 209.355C141.122 209.355 145.172 204.765 145.172 204.765L141.392 199.905C141.392 199.905 138.962 203.145 134.372 203.145C130.322 203.145 127.892 200.715 127.352 198.015H146.522ZM133.562 188.025C136.802 188.025 138.962 190.185 139.502 192.885H127.352C128.162 190.185 130.322 188.025 133.562 188.025Z" fill="#5F5CBF"/>
</g>
<path d="M116.17 206.655C116.17 210.975 113.47 213.675 109.15 213.675C104.29 213.675 101.86 210.165 101.86 210.165L97.2704 214.485C97.2704 214.485 101.32 220.155 109.42 220.155C117.52 220.155 123.46 214.215 123.46 206.655V182.355H116.17V185.595C116.17 185.595 113.47 181.815 108.34 181.815C102.4 181.815 96.4604 187.755 96.4604 195.045C96.4604 202.335 102.4 208.275 108.34 208.275C113.47 208.275 116.17 204.495 116.17 204.495V206.655ZM104.02 195.045C104.02 191.265 106.72 188.565 109.96 188.565C113.2 188.565 116.17 191.373 116.17 195.045C116.17 198.717 113.2 201.525 109.96 201.525C106.72 201.525 104.02 198.825 104.02 195.045Z" fill="url(#paint10_linear)"/>
<path d="M99.2626 182.355H91.9726V208.815H99.2626V182.355ZM99.8026 174.795C99.8026 172.365 98.1826 170.745 95.4826 170.745C93.0526 170.745 91.4326 172.365 91.4326 174.795C91.4326 177.225 93.0526 178.845 95.4826 178.845C98.1826 178.845 99.8026 177.225 99.8026 174.795Z" fill="url(#paint11_linear)"/>
<path d="M93.8881 171.015H86.5981V208.815H93.8881V171.015Z" fill="#5F5CBF"/>
<path d="M84.6093 171.015H77.3193V208.815H84.6093V171.015Z" fill="#5F5CBF"/>
<path d="M95.4765 170.212C92.883 170.212 91.1353 171.96 91.1353 174.553C91.1353 177.147 92.883 178.838 95.4765 178.838C98.3519 178.838 100.1 177.09 100.1 174.497C100.1 171.903 98.3519 170.212 95.4765 170.212Z" fill="#2CBFBF"/>
<path d="M82.4419 198.015C82.4419 198.015 82.7119 196.935 82.7119 195.045C82.7119 187.485 77.0419 181.815 69.4819 181.815C61.9219 181.815 55.7119 188.025 55.7119 195.585C55.7119 203.145 61.9219 209.355 69.7519 209.355C77.0419 209.355 81.0919 204.765 81.0919 204.765L77.3119 199.905C77.3119 199.905 74.8819 203.145 70.2919 203.145C66.2419 203.145 63.8119 200.715 63.2719 198.015H82.4419ZM69.4819 188.025C72.7219 188.025 74.8819 190.185 75.4219 192.885H63.2719C64.0819 190.185 66.2419 188.025 69.4819 188.025Z" fill="url(#paint12_linear)"/>
<g filter="url(#filter1_d)">
<path d="M50.7086 179.385C50.7086 181.545 49.3586 182.895 47.7386 182.895H45.3086V189.375H49.8986L49.8986 200.175C49.8986 206.385 52.8686 209.355 58.2686 209.355C60.9686 209.355 63.1286 208.545 63.1286 208.545L63.1286 202.335C63.1286 202.335 62.0486 202.875 60.4286 202.875C58.5386 202.875 57.1886 201.525 57.1886 199.905V189.375H62.5886V182.895H57.1886V174.525H50.7086V179.385Z" fill="#5F5CBF"/>
</g>
<path d="M34.0058 182.355H26.7158L26.7158 208.815H34.0058L34.0058 195.045C34.0058 190.995 36.1658 188.835 39.4058 188.835C42.3758 188.835 44.5358 190.995 44.5358 194.235V208.815H51.8258V193.425C51.8258 186.135 47.5058 181.815 41.5658 181.815C36.7058 181.815 34.0058 185.595 34.0058 185.595V182.355Z" fill="url(#paint13_linear)"/>
<g filter="url(#filter2_d)">
<path d="M20.4536 208.816H28.5536L28.5536 171.016H20.4536L20.4536 208.816Z" fill="#5F5CBF"/>
</g>
<mask id="mask1" mask-type="alpha" maskUnits="userSpaceOnUse" x="20" y="310" width="105" height="85">
<path d="M71.545 360.4H51.7391L61.642 333.604L71.545 360.4ZM77.3702 375.546L84.3605 394.769H103.001L70.9624 313.216H52.3216L20.2827 394.769H38.9235L45.9138 375.546H77.3702Z" fill="#5F5CBF"/>
<path d="M121.697 337.682H105.969V394.769H121.697V337.682ZM124.368 321.371C124.368 316.128 119.367 310.98 113.541 310.98C108.299 310.98 103.867 316.128 103.867 321.371C103.867 326.614 108.299 330.871 113.541 330.871C119.367 330.871 124.368 326.614 124.368 321.371Z" fill="#5F5CBF"/>
</mask>
<g mask="url(#mask1)">
<path d="M71.545 360.4H51.7391L61.642 333.604L71.545 360.4ZM77.3702 375.546L84.3605 394.769H103.001L70.9624 313.216H52.3216L20.2827 394.769H38.9235L45.9138 375.546H77.3702Z" fill="#5F5CBF"/>
<path d="M121.697 337.682H105.969V394.769H121.697V337.682ZM122.862 321.371C122.862 316.128 119.367 312.633 113.541 312.633C108.299 312.633 104.804 316.128 104.804 321.371C104.804 326.614 108.299 330.109 113.541 330.109C119.367 330.109 122.862 326.614 122.862 321.371Z" fill="#5F5CBF"/>
<path d="M113.869 311.088C107.946 311.088 103.954 315.08 103.954 321.003C103.954 326.926 107.946 330.79 113.869 330.79C120.437 330.79 124.428 326.798 124.428 320.874C124.428 314.951 120.437 311.088 113.869 311.088Z" fill="#2CBFBF"/>
<path opacity="0.7" d="M20.2827 368.007C33.9946 368.007 35.5767 342.198 48.7612 342.198C61.9456 342.198 59.3088 359.619 71.4385 359.619C83.5682 359.619 89.0361 351.323 106.362 351.323C115.327 351.323 120.601 355.615 130.621 355.615" stroke="#F3F2FF"/>
<path opacity="0.7" d="M20.2827 394.769C33.9946 394.769 35.5767 368.96 48.7612 368.96C61.9456 368.96 59.3088 386.381 71.4385 386.381C83.5682 386.381 89.1757 370.623 106.502 370.623C115.467 370.623 119.478 389.558 129.499 389.558" stroke="#F3F2FF"/>
<path opacity="0.7" d="M20.2827 341.716C33.9946 341.716 35.5767 315.907 48.7612 315.907C61.9456 315.907 59.3088 333.328 71.4385 333.328C83.5682 333.328 88.7824 319.351 106.108 319.351C115.074 319.351 120.347 323.643 130.368 323.643" stroke="#F3F2FF"/>
</g>
<defs>
<filter id="filter0_d" x="113.792" y="179.815" width="39" height="39.54" filterUnits="userSpaceOnUse" color-interpolation-filters="sRGB">
<feFlood flood-opacity="0" result="BackgroundImageFix"/>
<feColorMatrix in="SourceAlpha" type="matrix" values="0 0 0 0 0 0 0 0 0 0 0 0 0 0 0 0 0 0 127 0"/>
<feOffset dy="4"/>
<feGaussianBlur stdDeviation="3"/>
<feColorMatrix type="matrix" values="0 0 0 0 0.811538 0 0 0 0 0.795833 0 0 0 0 1 0 0 0 0.4 0"/>
<feBlend mode="normal" in2="BackgroundImageFix" result="effect1_dropShadow"/>
<feBlend mode="normal" in="SourceGraphic" in2="effect1_dropShadow" result="shape"/>
</filter>
<filter id="filter1_d" x="35.3086" y="168.525" width="37.82" height="54.83" filterUnits="userSpaceOnUse" color-interpolation-filters="sRGB">
<feFlood flood-opacity="0" result="BackgroundImageFix"/>
<feColorMatrix in="SourceAlpha" type="matrix" values="0 0 0 0 0 0 0 0 0 0 0 0 0 0 0 0 0 0 127 0"/>
<feOffset dy="4"/>
<feGaussianBlur stdDeviation="5"/>
<feColorMatrix type="matrix" values="0 0 0 0 0.811538 0 0 0 0 0.795833 0 0 0 0 1 0 0 0 1 0"/>
<feBlend mode="normal" in2="BackgroundImageFix" result="effect1_dropShadow"/>
<feBlend mode="normal" in="SourceGraphic" in2="effect1_dropShadow" result="shape"/>
</filter>
<filter id="filter2_d" x="10.4536" y="165.016" width="28.1" height="57.8" filterUnits="userSpaceOnUse" color-interpolation-filters="sRGB">
<feFlood flood-opacity="0" result="BackgroundImageFix"/>
<feColorMatrix in="SourceAlpha" type="matrix" values="0 0 0 0 0 0 0 0 0 0 0 0 0 0 0 0 0 0 127 0"/>
<feOffset dy="4"/>
<feGaussianBlur stdDeviation="5"/>
<feColorMatrix type="matrix" values="0 0 0 0 0.811538 0 0 0 0 0.795833 0 0 0 0 1 0 0 0 1 0"/>
<feBlend mode="normal" in2="BackgroundImageFix" result="effect1_dropShadow"/>
<feBlend mode="normal" in="SourceGraphic" in2="effect1_dropShadow" result="shape"/>
</filter>
<linearGradient id="paint0_linear" x1="306.695" y1="127.978" x2="-27.0638" y2="383.985" gradientUnits="userSpaceOnUse">
<stop stop-color="#5F5CBF"/>
<stop offset="1" stop-color="#5F5CBF" stop-opacity="0"/>
</linearGradient>
<linearGradient id="paint1_linear" x1="306.695" y1="127.978" x2="-27.0638" y2="383.985" gradientUnits="userSpaceOnUse">
<stop stop-color="#5F5CBF"/>
<stop offset="1" stop-color="#5F5CBF" stop-opacity="0"/>
</linearGradient>
<linearGradient id="paint2_linear" x1="306.695" y1="127.978" x2="-27.0638" y2="383.985" gradientUnits="userSpaceOnUse">
<stop stop-color="#5F5CBF"/>
<stop offset="1" stop-color="#5F5CBF" stop-opacity="0"/>
</linearGradient>
<linearGradient id="paint3_linear" x1="306.695" y1="127.978" x2="-27.0638" y2="383.985" gradientUnits="userSpaceOnUse">
<stop stop-color="#5F5CBF"/>
<stop offset="1" stop-color="#5F5CBF" stop-opacity="0"/>
</linearGradient>
<linearGradient id="paint4_linear" x1="306.695" y1="127.978" x2="-27.0638" y2="383.985" gradientUnits="userSpaceOnUse">
<stop stop-color="#5F5CBF"/>
<stop offset="1" stop-color="#5F5CBF" stop-opacity="0"/>
</linearGradient>
<linearGradient id="paint5_linear" x1="306.695" y1="127.978" x2="-27.0638" y2="383.985" gradientUnits="userSpaceOnUse">
<stop stop-color="#5F5CBF"/>
<stop offset="1" stop-color="#5F5CBF" stop-opacity="0"/>
</linearGradient>
<linearGradient id="paint6_linear" x1="306.695" y1="127.978" x2="-27.0638" y2="383.985" gradientUnits="userSpaceOnUse">
<stop stop-color="#5F5CBF"/>
<stop offset="1" stop-color="#5F5CBF" stop-opacity="0"/>
</linearGradient>
<linearGradient id="paint7_linear" x1="306.695" y1="127.978" x2="-27.0638" y2="383.985" gradientUnits="userSpaceOnUse">
<stop stop-color="#5F5CBF"/>
<stop offset="1" stop-color="#5F5CBF" stop-opacity="0"/>
</linearGradient>
<linearGradient id="paint8_linear" x1="306.695" y1="127.978" x2="-27.0638" y2="383.985" gradientUnits="userSpaceOnUse">
<stop stop-color="#5F5CBF"/>
<stop offset="1" stop-color="#5F5CBF" stop-opacity="0"/>
</linearGradient>
<linearGradient id="paint9_linear" x1="195.598" y1="163.422" x2="75.9753" y2="220.873" gradientUnits="userSpaceOnUse">
<stop offset="0.2852" stop-color="#5F5CBF"/>
<stop offset="0.956109" stop-color="#5F5CBF" stop-opacity="0.4"/>
</linearGradient>
<linearGradient id="paint10_linear" x1="89.1853" y1="220.155" x2="156.609" y2="190.964" gradientUnits="userSpaceOnUse">
<stop offset="0.2852" stop-color="#5F5CBF"/>
<stop offset="0.956109" stop-color="#5F5CBF" stop-opacity="0.4"/>
</linearGradient>
<linearGradient id="paint11_linear" x1="110.327" y1="153.359" x2="73.0801" y2="157.275" gradientUnits="userSpaceOnUse">
<stop offset="0.2852" stop-color="#5F5CBF"/>
<stop offset="0.956109" stop-color="#5F5CBF" stop-opacity="0.6"/>
</linearGradient>
<linearGradient id="paint12_linear" x1="116.66" y1="169.238" x2="17.0732" y2="215.93" gradientUnits="userSpaceOnUse">
<stop offset="0.2852" stop-color="#5F5CBF"/>
<stop offset="0.956109" stop-color="#5F5CBF" stop-opacity="0.6"/>
</linearGradient>
<linearGradient id="paint13_linear" x1="83.3977" y1="169.485" x2="-10.9205" y2="211.433" gradientUnits="userSpaceOnUse">
<stop offset="0.2852" stop-color="#5F5CBF"/>
<stop offset="0.956109" stop-color="#5F5CBF" stop-opacity="0.6"/>
</linearGradient>
</defs>
</svg>
