<svg width="281" height="431" viewBox="0 0 281 431" fill="none" xmlns="http://www.w3.org/2000/svg">
<mask id="mask0" mask-type="alpha" maskUnits="userSpaceOnUse" x="0" y="0" width="281" height="431">
<rect x="0.783203" y="0.979248" width="280" height="430" rx="30" fill="#5F5CBF"/>
</mask>
<g mask="url(#mask0)">
<rect x="0.783203" y="0.979248" width="280" height="430" rx="30" fill="#F3F2FF"/>
<mask id="mask1" mask-type="alpha" maskUnits="userSpaceOnUse" x="-46" y="330" width="327" height="105">
<rect x="-45.2168" y="330.979" width="326" height="103.238" fill="white"/>
</mask>
<g mask="url(#mask1)">
<g style="mix-blend-mode:multiply">
<path d="M-112.648 429.555H-112.644H-112.611H-112.576H-112.541H-112.504H-112.466H-112.428H-112.388H-112.347H-112.306H-112.263H-112.219H-112.174H-112.129H-112.082H-112.034H-111.986H-111.936H-111.885H-111.834H-111.781H-111.727H-111.673H-111.617H-111.561H-111.504H-111.445H-111.386H-111.326H-111.265H-111.203H-111.14H-111.076H-111.011H-110.945H-110.878H-110.811H-110.742H-110.673H-110.603H-110.531H-110.459H-110.387H-110.313H-110.238H-110.162H-110.086H-110.009H-109.931H-109.852H-109.772H-109.691H-109.61H-109.527H-109.444H-109.36H-109.275H-109.189H-109.103H-109.015H-108.927H-108.838H-108.748H-108.658H-108.566H-108.474H-108.381H-108.288H-108.193H-108.098H-108.002H-107.905H-107.807H-107.709H-107.61H-107.51H-107.409H-107.308H-107.206H-107.103H-106.999H-106.895H-106.79H-106.684H-106.577H-106.47H-106.362H-106.254H-106.144H-106.034H-105.923H-105.812H-105.7H-105.587H-105.473H-105.359H-105.244H-105.129H-105.013H-104.896H-104.778H-104.66H-104.541H-104.422H-104.302H-104.181H-104.06H-103.938H-103.815H-103.692H-103.568H-103.443H-103.318H-103.192H-103.066H-102.939H-102.812H-102.684H-102.555H-102.426H-102.296H-102.165H-102.034H-101.903H-101.77H-101.638H-101.504H-101.371H-101.236H-101.101H-100.966H-100.83H-100.693H-100.556H-100.419H-100.281H-100.142H-100.003H-99.8632H-99.723H-99.5824H-99.4412H-99.2995H-99.1574H-99.0148H-98.8716H-98.728H-98.584H-98.4394H-98.2944H-98.1489H-98.003H-97.8566H-97.7097H-97.5624H-97.4147H-97.2665H-97.1179H-96.9688H-96.8193H-96.6694H-96.5191H-96.3683H-96.2172H-96.0656H-95.9136H-95.7612H-95.6085H-95.4553H-95.3017H-95.1478H-94.9934H-94.8387H-94.6836H-94.5282H-94.3723H-94.2162H-94.0596H-93.9027H-93.7454H-93.5878H-93.4299H-93.2716H-93.113H-92.954H-92.7947H-92.6351H-92.4752H-92.3149H-92.1544H-91.9935H-91.8323H-91.6709H-91.5091H-91.347H-91.1847H-91.022H-90.8591H-90.6959H-90.5324H-90.3687H-90.2047H-90.0404H-89.8758H-89.7111H-89.546H-89.3807H-89.2152H-89.0494H-88.8834H-88.7172H-88.5507H-88.384H-88.2171H-88.05H-87.8827H-87.7151H-87.5474H-87.3794H-87.2113H-87.0429H-86.8744H-86.7057H-86.5368H-86.3677H-86.1985H-86.0291H-85.8595H-85.6898H-85.5199H-85.3498H-85.1796H-85.0093H-84.8388H-84.6681H-84.4974H-84.3265H-84.1555H-83.9843H-83.8131H-83.6417H-83.4702H-83.2986H-83.1269H-82.9551H-82.7832H-82.6112H-82.4392H-82.267H-82.0948H-81.9224H-81.7501H-81.5776H-81.4051H-81.2325H-81.0599H-80.8872H-80.7144H-80.5416H-80.3688H-80.196H-80.0231H-79.8501H-79.6772H-79.5042H-79.3312H-79.1582H-78.9852H-78.8122H-78.6391H-78.4661H-78.2931H-78.1201H-77.9471H-77.7741H-77.6011H-77.4282H-77.2553H-77.0824H-76.9096H-76.7368H-76.564H-76.3913H-76.2187H-76.0461H-75.8735H-75.701H-75.5286H-75.3563H-75.184H-75.0118H-74.8397H-74.6677H-74.4958H-74.324H-74.1522H-73.9806H-73.8091H-73.6377H-73.4664H-73.2952H-73.1241H-72.9532H-72.7824H-72.6117H-72.4412H-72.2708H-72.1005H-71.9304H-71.7605H-71.5907H-71.421H-71.2516H-71.0823H-70.9132H-70.7442H-70.5754H-70.4068H-70.2384H-70.0702H-69.9022H-69.7344H-69.5668H-69.3994H-69.2322H-69.0652H-68.8984H-68.7319H-68.5656H-68.3995H-68.2337H-68.068H-67.9027H-67.7376H-67.5727H-67.4081H-67.2437H-67.0796H-66.9158H-66.7522H-66.5889H-66.4259H-66.2631H-66.1007H-65.9385H-65.7767H-65.6151H-65.4538H-65.2928H-65.1322H-64.9718H-64.8118H-64.6521H-64.4927H-64.3336H-64.1749H-64.0165H-63.8584H-63.7007H-63.5433H-63.3863H-63.2296H-63.0733H-62.9174H-62.7618H-62.6066H-62.4517H-62.2973H-62.1432H-61.9895H-61.8362H-61.6833H-61.5308H-61.3786H-61.2269H-61.0756H-60.9247H-60.7743H-60.6242H-60.4746H-60.3254H-60.1766H-60.0283H-59.8804H-59.7329H-59.5859H-59.4394H-59.2933H-59.1477H-59.0025H-58.8578H-58.7136H-58.5698H-58.4265H-58.2837H-58.1414H-57.9996H-57.8582H-57.7174H-57.5771H-57.4373H-57.298H-57.1591H-57.0209H-56.8831H-56.7459H-56.6092H-56.473H-56.3373H-56.2022H-56.0677H-55.9337H-55.8002H-55.6673H-55.535H-55.4032H-55.272H-55.1414H-55.0113H-54.8818H-54.7529H-54.6246H-54.4969H-54.3698H-54.2433H-54.1173H-53.992H-53.8673H-53.7432H-53.6198H-53.4969H-53.3747H-53.2531H-53.1321H-53.0118H-52.8921H-52.7731H-52.6547H-52.5369H-52.4199H-52.3035H-52.1877H-52.0726H-51.9582H-51.8445H-51.7314H-51.619H-51.5074H-51.3964H-51.2861H-51.1765H-51.0676H-50.9594H-50.8519H-50.7452H-50.6391H-50.5338H-50.4292H-50.3253H-50.2222H-50.1198H-50.0182H-49.9173H-49.8171H-49.7177H-49.6191H-49.5212H-49.4241H-49.3278H-49.2322H-49.1374H-49.0434H-48.9502H-48.8578H-48.7661H-48.6753H-48.5852H-48.496H-48.4076H-48.3199H-48.2331H-48.1471H-48.062C-40.6665 429.555 -35.4331 426.247 -30.6083 423.019C-30.4003 422.879 -30.1931 422.74 -29.9865 422.602C-25.3755 419.509 -21.1146 416.651 -15.5188 416.651H-15.4482H-15.3776H-15.3071H-15.2366H-15.1662H-15.0958H-15.0254H-14.9551H-14.8848H-14.8146H-14.7444H-14.6742H-14.6041H-14.534H-14.464H-14.394H-14.3241H-14.2542H-14.1843H-14.1145H-14.0447H-13.9749H-13.9052H-13.8355H-13.7659H-13.6963H-13.6267H-13.5572H-13.4877H-13.4183H-13.3489H-13.2795H-13.2102H-13.1409H-13.0717H-13.0025H-12.9333H-12.8642H-12.7951H-12.7261H-12.6571H-12.5881H-12.5191H-12.4502H-12.3814H-12.3126H-12.2438H-12.175H-12.1063H-12.0376H-11.969H-11.9004H-11.8318H-11.7633H-11.6948H-11.6264H-11.558H-11.4896H-11.4212H-11.3529H-11.2847H-11.2164H-11.1482H-11.0801H-11.012H-10.9439H-10.8758H-10.8078H-10.7398H-10.6719H-10.604H-10.5361H-10.4683H-10.4005H-10.3327H-10.265H-10.1973H-10.1296H-10.062H-9.99441H-9.92686H-9.85934H-9.79185H-9.7244H-9.65699H-9.58961H-9.52226H-9.45495H-9.38767H-9.32043H-9.25322H-9.18604H-9.1189H-9.0518H-8.98472H-8.91768H-8.85067H-8.7837H-8.71676H-8.64986H-8.58298H-8.51614H-8.44933H-8.38256H-8.31583H-8.24911H-8.18244H-8.1158H-8.04919H-7.98261H-7.91607H-7.84956H-7.78308H-7.71663H-7.65022H-7.58383H-7.51748H-7.45116H-7.38487H-7.31862H-7.2524H-7.1862H-7.12004H-7.05392H-6.98782H-6.92175H-6.85571H-6.78971H-6.72374H-6.6578H-6.59188H-6.526H-6.46015H-6.39433H-6.32854H-6.26279H-6.19706H-6.13136H-6.0657H-6.00006H-5.93445H-5.86887H-5.80333H-5.73781H-5.67233H-5.60686H-5.54144H-5.47604H-5.41067H-5.34533H-5.28001H-5.21474H-5.14948H-5.08426H-5.01907H-4.9539H-4.88876H-4.82365H-4.75858H-4.69352H-4.6285H-4.56351H-4.49854H-4.4336H-4.36869H-4.30381H-4.23896H-4.17413H-4.10933H-4.04456H-3.97982H-3.91511H-3.85042H-3.78576H-3.72112H-3.65652H-3.59194H-3.52739H-3.46287H-3.39837H-3.33389H-3.26945H-3.20503H-3.14064H-3.07628H-3.01194H-2.94763H-2.88335H-2.81908H-2.75485H-2.69064H-2.62646H-2.56231H-2.49818H-2.43408H-2.37H-2.30595H-2.24192H-2.17792H-2.11395H-2.05H-1.98607H-1.92216H-1.85829H-1.79444H-1.73061H-1.66681H-1.60303H-1.53928H-1.47556H-1.41185H-1.34818H-1.28452H-1.22089H-1.15728H-1.0937H-1.03014H-0.966606H-0.903091H-0.839607H-0.776146H-0.712708H-0.649284H-0.585892H-0.522522H-0.459175H-0.395851H-0.33255H-0.269272H-0.206017H-0.142784H-0.0795746H-0.0163879H0.0467758H0.109917H0.173035H0.23613H0.299202H0.362259H0.425285H0.488297H0.551285H0.61425H0.677193H0.740112H0.803017H0.865891H0.928749H0.991585H1.0544H1.1172H1.17996H1.24271H1.30544H1.36816H1.43085H1.49352H1.55616H1.61878H1.68139H1.74398H1.80654H1.86909H1.93161H1.99412H2.0566H2.11907H2.18152H2.24394H2.30635H2.36874H2.4311H2.49345H2.55578H2.61809H2.68037H2.74265H2.8049H2.86713H2.92934H2.99155H3.05372H3.11588H3.17802H3.24014H3.30224H3.36433H3.42639H3.48844H3.55048H3.61249H3.67448H3.73646H3.79842H3.86036H3.92228H3.98418H4.04607H4.10795H4.1698H4.23164H4.29346H4.35526H4.41705H4.47882H4.54057H4.60231H4.66403H4.72573H4.78742H4.84909H4.91074H4.97238H5.034H5.09561H5.1572H5.21877H5.28033H5.34188H5.4034H5.46492H5.52641H5.58789H5.64936H5.71081H5.77225H5.83366H5.89507H5.95646H6.01784H6.0792H6.14055H6.20187H6.26319H6.3245H6.38579H6.44706H6.50832H6.56956H6.6308H6.69202H6.75322H6.81441H6.87559H6.93675H6.9979H7.05904H7.12016H7.18127H7.24237H7.30346H7.36452H7.42558H7.48663H7.54766H7.60868H7.66969H7.73068H7.79166H7.85264H7.91359H7.97454H8.03547H8.09639H8.1573H8.2182H8.27908H8.33996H8.40082H8.46167H8.52251H8.58334H8.64415H8.70496H8.76575H8.82653H8.88731H8.94807H9.00881H9.06956H9.13029H9.191H9.25171H9.31241H9.37309H9.43377H9.49444H9.55509H9.61574H9.67638H9.737H9.79762H9.85822H9.91882H9.97941H10.04H10.1006H10.1611H10.2217H10.2822H10.3427H10.4033H10.4638H10.5243H10.5848H10.6453H10.7057H10.7662H10.8267H10.8871H10.9476H11.008H11.0685H11.1289H11.1893H11.2497H11.3101H11.3705H11.4309H11.4912H11.5516H11.612H11.6723H11.7327H11.793H11.8533H11.9137H11.974H12.0343H12.0946H12.1549H12.2152H12.2755H12.3358H12.396H12.4563H12.5166H12.5768H12.6371H12.6973H12.7575H12.8178H12.878H12.9382H12.9984H13.0586H13.1188H13.179H13.2392H13.2994H13.3596H13.4198H13.4799H13.5401H13.6003H13.6604H13.7206H13.7807H13.8409H13.901H13.9612H14.0213H14.0814H14.1416H14.2017H14.2618H14.3219H14.382H14.4421H14.5022H14.5623H14.6224H14.6825H14.7426H14.8027H14.8628H14.9229H14.9829H15.043H15.1031H15.1631H15.2232H15.2833H15.3433H15.4034H15.4635H15.5235H15.5836H15.6436H15.7037H15.7637H15.8238H15.8838H15.9439H16.0039H16.0639H16.124H16.184H16.2441H16.3041H16.3641H16.4242H16.4842H16.5442H16.6043H16.6643H16.7243H16.7843H16.8444H16.9044H16.9644H17.0245C19.8122 416.651 22.1243 414.892 24.2652 412.447C25.8065 410.687 27.3191 408.497 28.8941 406.217C29.5067 405.331 30.1287 404.43 30.7654 403.536C35.3625 397.081 40.8038 390.841 49.5677 390.841C58.2973 390.841 62.3841 397.029 66.3159 403.505C66.458 403.74 66.6 403.974 66.742 404.209C68.5448 407.187 70.3552 410.178 72.6012 412.468C75.046 414.961 78.0307 416.651 82.1109 416.651C86.1856 416.651 89.3525 414.966 92.0275 412.485C94.6869 410.018 96.8845 406.739 99.0248 403.523L99.1344 403.358C101.252 400.176 103.319 397.069 105.762 394.736C108.231 392.377 111.052 390.841 114.654 390.841C118.311 390.841 120.837 391.894 122.799 393.455C124.78 395.031 126.21 397.142 127.645 399.327C127.709 399.424 127.773 399.521 127.837 399.618C129.195 401.688 130.587 403.807 132.464 405.42C134.456 407.13 136.981 408.263 140.568 408.263C142.449 408.263 144.187 407.476 145.811 406.165C147.431 404.857 148.963 403.006 150.448 400.82C152.888 397.229 155.252 392.654 157.687 387.94C158.213 386.923 158.741 385.9 159.275 384.878C162.295 379.097 165.477 373.365 169.123 369.078C172.77 364.791 176.813 362.03 181.549 362.03C186.465 362.03 190.396 363.031 194.497 364.075L194.834 364.161C199.058 365.235 203.479 366.322 209.271 366.322C214.911 366.322 217.777 362.7 220.63 359.094C220.815 358.859 221.001 358.625 221.187 358.391C222.73 356.457 224.328 354.576 226.415 353.171C228.488 351.775 231.065 350.837 234.582 350.837H234.667H234.751H234.835H234.92H235.004H235.088H235.171H235.255H235.338H235.421H235.504H235.587H235.67H235.753H235.835H235.917H236H236.082H236.163H236.245H236.327H236.408H236.489H236.57H236.651H236.732H236.812H236.893H236.973H237.053H237.133H237.213H237.293H237.372H237.452H237.531H237.61H237.689H237.768H237.846H237.925H238.003H238.081H238.159H238.237H238.315H238.393H238.47H238.548H238.625H238.702H238.779H238.855H238.932H239.009H239.085H239.161H239.237H239.313H239.389H239.465H239.54H239.615H239.691H239.766H239.841H239.915H239.99H240.065H240.139H240.213H240.288H240.362H240.435H240.509H240.583H240.656H240.73H240.803H240.876H240.949H241.022H241.094H241.167H241.239H241.312H241.384H241.456H241.528H241.599H241.671H241.743H241.814H241.885H241.956H242.027H242.098H242.169H242.24H242.31H242.381H242.451H242.521H242.591H242.661H242.731H242.8H242.87H242.939H243.009H243.078H243.147H243.216H243.285H243.353H243.422H243.49H243.559H243.627H243.695H243.763H243.831H243.899H243.966H244.034H244.101H244.169H244.236H244.303H244.37H244.437H244.504H244.57H244.637H244.703H244.77H244.836H244.902H244.968H245.034H245.099H245.165H245.231H245.296H245.361H245.427H245.492H245.557H245.622H245.686H245.751H245.816H245.88H245.945H246.009H246.073H246.137H246.201H246.265H246.329H246.393H246.456H246.52H246.583H246.646H246.709H246.772H246.835H246.898H246.961H247.024H247.086H247.149H247.211H247.274H247.336H247.398H247.46H247.522H247.584H247.646H247.707H247.769H247.83H247.892H247.953H248.014H248.075H248.136H248.197H248.258H248.319H248.379H248.44H248.5H248.561H248.621H248.681H248.741H248.802H248.861H248.921H248.981H249.041H249.1H249.16H249.22H249.279H249.338H249.397H249.457H249.516H249.575H249.633H249.692H249.751H249.81H249.868H249.927H249.985H250.043H250.102H250.16H250.218H250.276H250.334H250.392H250.45H250.507H250.565H250.623H250.68H250.738H250.795H250.852H250.91H250.967H251.024H251.081H251.138H251.195H251.251H251.308H251.365H251.421H251.478H251.534H251.591H251.647H251.703H251.759H251.816H251.872H251.928H251.984H252.039H252.095H252.151H252.207H252.262H252.318H252.373H252.429H252.484H252.539H252.595H252.65H252.705H252.76H252.815H252.87H252.925H252.98H253.035H253.089H253.144H253.199H253.253H253.308H253.362H253.416H253.471H253.525H253.579H253.633H253.688H253.742H253.796H253.85H253.904H253.957H254.011H254.065H254.119H254.172H254.226H254.279H254.333H254.386H254.44H254.493H254.547H254.6H254.653H254.706H254.759H254.813H254.866H254.919H254.972H255.025H255.077H255.13H255.183H255.236H255.289H255.341H255.394H255.446H255.499H255.552H255.604H255.656H255.709H255.761H255.814H255.866H255.918H255.97H256.023H256.075H256.127H256.179H256.231H256.283H256.335H256.387H256.439H256.491H256.543H256.594H256.646H256.698H256.75H256.801H256.853H256.905H256.956H257.008H257.059H257.111H257.162H257.214H257.265H257.317H257.368H257.419H257.471H257.522H257.573H257.625H257.676H257.727H257.778H257.829H257.881H257.932H257.983H258.034H258.085H258.136H258.187H258.238H258.289H258.34H258.391H258.442H258.493H258.544H258.595H258.646H258.696H258.747H258.798H258.849H258.9H258.95H259.001H259.052H259.103H259.153H259.204H259.255H259.306H259.356H259.407H259.458H259.508H259.559H259.61H259.66H259.711H259.761H259.812H259.863H259.913H259.964H260.014H260.065H260.116H260.166H260.217H260.267H260.318H260.368H260.419H260.469H260.52H260.57H260.621H260.672H260.722H260.773H260.823H260.874H260.924H260.975H261.025H261.076H261.126H261.177H261.228H261.278H261.329H261.379H261.43H261.48H261.531H261.582H261.632H261.683H261.733H261.784H261.835H261.885H261.936H261.987H262.037H262.088H262.139H262.189H262.24H262.291H262.341H262.392H262.443H262.494H262.544H262.595H262.646H262.697H262.748H262.799H262.849H262.9H262.951H263.002H263.053H263.104H263.155H263.206H263.257H263.308H263.359H263.41H263.461H263.512H263.564H263.615H263.666H263.717H263.768H263.82H263.871H263.922H263.973H264.025H264.076H264.127H264.179H264.23H264.282H264.333H264.385H264.436H264.488H264.54H264.591H264.643H264.695H264.746H264.798H264.85H264.902H264.953H265.005H265.057H265.109H265.161H265.213H265.265H265.317C266.682 350.837 267.793 350.513 268.723 349.928C269.647 349.347 270.361 348.527 270.965 347.581C271.567 346.638 272.072 345.548 272.566 344.411C272.696 344.113 272.825 343.811 272.955 343.507C273.324 342.643 273.702 341.761 274.129 340.875C275.28 338.491 276.759 336.158 279.249 334.414C281.656 332.726 285.059 331.555 290.129 331.483V433.717H-112.648V429.555Z" stroke="#2CBFBF"/>
</g>
<path opacity="0.7" d="M-113.148 429.055C-113.148 429.055 -62.5256 429.055 -48.062 429.055C-33.5983 429.055 -27.5718 416.151 -15.5187 416.151C-3.4657 416.151 6.7794 416.151 17.0245 416.151C27.2696 416.151 31.4881 390.341 49.5677 390.341C67.6473 390.341 66.442 416.151 82.1109 416.151C97.7799 416.151 99.5878 390.341 114.654 390.341C129.72 390.341 126.707 407.763 140.568 407.763C154.429 407.763 161.75 361.53 181.549 361.53C191.794 361.53 197.82 365.822 209.271 365.822C220.721 365.822 220.118 350.337 234.582 350.337C249.046 350.337 256.427 350.337 265.317 350.337C275.562 350.337 268.933 330.979 290.629 330.979" stroke="#2CBFBF"/>
</g>
<path d="M49.2287 386.488C46.7165 386.488 45.0234 388.181 45.0234 390.693C45.0234 393.205 46.7165 394.844 49.2287 394.844C52.014 394.844 53.707 393.151 53.707 390.639C53.707 388.126 52.014 386.488 49.2287 386.488Z" fill="#5F5CBF"/>
<path d="M19.2287 410.979C16.7165 410.979 15.0234 412.672 15.0234 415.185C15.0234 417.697 16.7165 419.335 19.2287 419.335C22.014 419.335 23.707 417.642 23.707 415.13C23.707 412.618 22.014 410.979 19.2287 410.979Z" fill="#5F5CBF"/>
<path d="M114.363 386.995C111.851 386.995 110.158 388.688 110.158 391.201C110.158 393.713 111.851 395.351 114.363 395.351C117.148 395.351 118.841 393.658 118.841 391.146C118.841 388.634 117.148 386.995 114.363 386.995Z" fill="#5F5CBF"/>
<path d="M210.545 360.979C208.033 360.979 206.34 362.672 206.34 365.185C206.34 367.697 208.033 369.335 210.545 369.335C213.33 369.335 215.023 367.642 215.023 365.13C215.023 362.618 213.33 360.979 210.545 360.979Z" fill="#5F5CBF"/>
<path d="M179.229 357.979C176.716 357.979 175.023 359.672 175.023 362.185C175.023 364.697 176.716 366.335 179.229 366.335C182.014 366.335 183.707 364.642 183.707 362.13C183.707 359.618 182.014 357.979 179.229 357.979Z" fill="#5F5CBF"/>
<path d="M227.825 347.158C225.313 347.158 223.62 348.851 223.62 351.363C223.62 353.875 225.313 355.514 227.825 355.514C230.611 355.514 232.304 353.821 232.304 351.308C232.304 348.796 230.611 347.158 227.825 347.158Z" fill="#5F5CBF"/>
<path d="M267.947 345.84C265.435 345.84 263.742 347.533 263.742 350.046C263.742 352.558 265.435 354.196 267.947 354.196C270.733 354.196 272.426 352.503 272.426 349.991C272.426 347.479 270.733 345.84 267.947 345.84Z" fill="#5F5CBF"/>
</g>
<path d="M40.972 159.579C48.694 159.579 53.824 154.341 53.824 148.509C53.824 142.029 47.614 139.599 47.614 139.599C47.614 139.599 51.934 137.169 51.934 131.769C51.934 126.639 47.074 121.779 40.054 121.779H23.854V159.579H40.972ZM31.954 152.829V143.109H40.594C43.564 143.109 45.724 145.269 45.724 147.969C45.724 150.669 43.564 152.829 40.594 152.829H31.954ZM39.514 128.529C42.214 128.529 43.834 130.149 43.834 132.579C43.834 135.009 42.214 136.629 39.514 136.629H31.954V128.529H39.514Z" fill="url(#paint0_linear)"/>
<path d="M64.6409 133.119H57.3509V159.579H64.6409V133.119ZM65.1809 125.559C65.1809 123.129 63.5609 121.509 60.8609 121.509C58.4309 121.509 56.8109 123.129 56.8109 125.559C56.8109 127.989 58.4309 129.609 60.8609 129.609C63.5609 129.609 65.1809 127.989 65.1809 125.559Z" fill="url(#paint1_linear)"/>
<path d="M87.342 157.419C87.342 161.739 84.642 164.439 80.322 164.439C75.462 164.439 73.032 160.929 73.032 160.929L68.442 165.249C68.442 165.249 72.492 170.919 80.592 170.919C88.692 170.919 94.632 164.979 94.632 157.419V133.119H87.342V136.359C87.342 136.359 84.642 132.579 79.512 132.579C73.572 132.579 67.632 138.519 67.632 145.809C67.632 153.099 73.572 159.039 79.512 159.039C84.642 159.039 87.342 155.259 87.342 155.259V157.419ZM75.192 145.809C75.192 142.029 77.892 139.329 81.132 139.329C84.372 139.329 87.342 142.137 87.342 145.809C87.342 149.481 84.372 152.289 81.132 152.289C77.892 152.289 75.192 149.589 75.192 145.809Z" fill="url(#paint2_linear)"/>
<path d="M23.854 170.918V208.718H37.894C48.964 208.718 57.334 200.348 57.334 189.818C57.334 179.288 48.964 170.918 37.894 170.918H23.854ZM37.894 178.208C44.374 178.208 49.234 183.338 49.234 189.818C49.234 196.298 44.104 201.428 37.894 201.428H31.954V178.208H37.894Z" fill="url(#paint3_linear)"/>
<path d="M75.1413 208.718C76.7613 208.718 82.4313 208.718 82.4313 208.718V192.248C82.4313 186.308 77.8413 181.718 71.0913 181.718C64.0713 181.718 60.5613 186.848 60.5613 186.848L64.6113 190.898C64.6113 190.898 66.5013 188.198 70.5513 188.198C73.5213 188.198 75.1413 189.818 75.1413 191.978L66.7713 193.49C61.9113 194.354 58.9413 197.378 58.9413 201.698C58.9413 205.748 62.4513 209.258 67.8513 209.258C72.4413 209.258 75.1413 206.018 75.1413 206.018V208.718ZM69.7413 203.318C67.3113 203.318 66.2313 202.238 66.2313 200.618C66.2313 198.998 67.3113 197.972 69.2013 197.648L75.1413 196.568V197.378C75.1413 201.158 72.9813 203.318 69.7413 203.318Z" fill="url(#paint4_linear)"/>
<path d="M89.9998 179.288C89.9998 181.448 88.6498 182.798 87.0298 182.798H84.5998V189.278H89.1898V200.078C89.1898 206.288 92.1598 209.258 97.5598 209.258C100.26 209.258 102.42 208.448 102.42 208.448V202.238C102.42 202.238 101.34 202.778 99.7198 202.778C97.8298 202.778 96.4798 201.428 96.4798 199.808V189.278H101.88V182.798H96.4798V174.428H89.9998V179.288Z" fill="url(#paint5_linear)"/>
<path d="M120.525 208.718C122.145 208.718 127.815 208.718 127.815 208.718V192.248C127.815 186.308 123.225 181.718 116.475 181.718C109.455 181.718 105.945 186.848 105.945 186.848L109.995 190.898C109.995 190.898 111.885 188.198 115.935 188.198C118.905 188.198 120.525 189.818 120.525 191.978L112.155 193.49C107.295 194.354 104.325 197.378 104.325 201.698C104.325 205.748 107.835 209.258 113.235 209.258C117.825 209.258 120.525 206.018 120.525 206.018V208.718ZM115.125 203.318C112.695 203.318 111.615 202.238 111.615 200.618C111.615 198.998 112.695 197.972 114.585 197.648L120.525 196.568V197.378C120.525 201.158 118.365 203.318 115.125 203.318Z" fill="url(#paint6_linear)"/>
<g opacity="0.9">
<g filter="url(#filter0_d)">
<path d="M155.103 245.65C155.103 252.94 161.583 259.42 169.413 259.42C176.703 259.42 180.213 254.02 180.213 254.02L175.893 249.43C175.893 249.43 173.463 252.94 169.413 252.94C165.633 252.94 162.393 249.7 162.393 245.65C162.393 241.6 165.633 238.36 169.413 238.36C173.463 238.36 175.623 241.87 175.623 241.87L180.213 237.28C180.213 237.28 176.703 231.88 169.413 231.88C161.583 231.88 155.103 238.36 155.103 245.65Z" fill="#5F5CBF"/>
<path d="M200.755 235.93C200.755 235.93 197.785 231.88 191.575 231.88C185.635 231.88 181.315 236.2 181.315 240.25C181.315 248.998 193.464 247 193.464 251.05C193.464 252.4 192.385 253.48 189.955 253.48C186.445 253.48 184.285 250.51 184.285 250.51L180.235 254.56C180.235 254.56 183.474 259.42 191.035 259.42C197.785 259.42 201.564 255.64 201.564 251.05C201.564 242.14 189.415 244.03 189.415 240.25C189.415 239.17 190.494 238.09 192.654 238.09C195.354 238.09 196.974 240.25 196.974 240.25L200.755 235.93Z" fill="#5F5CBF"/>
<path d="M152.837 232.96H145.547V259.42H152.837V232.96ZM153.377 225.4C153.377 222.97 151.757 221.35 149.057 221.35C146.627 221.35 145.007 222.97 145.007 225.4C145.007 227.83 146.627 229.45 149.057 229.45C151.757 229.45 153.377 227.83 153.377 225.4Z" fill="#5F5CBF"/>
</g>
<path d="M148.905 220.902C146.312 220.902 144.564 222.65 144.564 225.243C144.564 227.836 146.312 229.528 148.905 229.528C151.781 229.528 153.528 227.78 153.528 225.187C153.528 222.593 151.781 220.902 148.905 220.902Z" fill="#2CBFBF"/>
<path d="M129.964 229.45C129.964 231.61 128.614 232.96 126.994 232.96H124.564V239.44H129.154V250.24C129.154 256.45 132.124 259.42 137.524 259.42C140.224 259.42 142.384 258.61 142.384 258.61V252.4C142.384 252.4 141.304 252.94 139.684 252.94C137.794 252.94 136.444 251.59 136.444 249.97V239.44H141.844V232.96H136.444V224.59H129.964V229.45Z" fill="url(#paint7_linear)"/>
<g filter="url(#filter1_d)">
<path d="M106.478 221.08H99.1885V258.88H106.478V221.08Z" fill="#5F5CBF"/>
</g>
<g filter="url(#filter2_d)">
<path d="M114.014 261.259C113.312 262.879 111.854 264.229 109.424 264.229C107.804 264.229 106.724 263.689 106.724 263.689V270.169C106.724 270.169 108.614 270.979 111.314 270.979C115.904 270.979 119.144 267.739 121.574 261.259L132.104 233.179H124.544L118.334 250.729L112.124 233.179H104.564L114.824 259.369L114.014 261.259Z" fill="#5F5CBF"/>
</g>
<path d="M62.2329 232.42H54.9429V258.88H62.2329V245.11C62.2329 241.06 64.3929 238.9 67.6329 238.9C70.6029 238.9 72.7629 241.06 72.7629 244.3V258.88H80.0529V243.49C80.0529 236.2 75.7329 231.88 69.7929 231.88C64.9329 231.88 62.2329 235.66 62.2329 235.66V232.42Z" fill="url(#paint8_linear)"/>
<g filter="url(#filter3_d)">
<path d="M92.9432 258.88C94.5632 258.88 100.233 258.88 100.233 258.88V242.41C100.233 236.47 95.6432 231.88 88.8932 231.88C81.8732 231.88 78.3632 237.01 78.3632 237.01L82.4132 241.06C82.4132 241.06 84.3032 238.36 88.3532 238.36C91.3232 238.36 92.9432 239.98 92.9432 242.14L84.5732 243.652C79.7132 244.516 76.7432 247.54 76.7432 251.86C76.7432 255.91 80.2532 259.42 85.6532 259.42C90.2432 259.42 92.9432 256.18 92.9432 256.18V258.88ZM87.5432 253.48C85.1132 253.48 84.0332 252.4 84.0332 250.78C84.0332 249.16 85.1132 248.134 87.0032 247.81L92.9432 246.73V247.54C92.9432 251.32 90.7832 253.48 87.5432 253.48Z" fill="#5F5CBF"/>
</g>
<g filter="url(#filter4_d)">
<path d="M44.5432 242.95H35.3632L39.9532 230.53L44.5432 242.95ZM47.2432 249.97L50.4832 258.88H59.1232L44.2732 221.08H35.6332L20.7832 258.88H29.4232L32.6632 249.97H47.2432Z" fill="#5F5CBF"/>
</g>
</g>
<defs>
<filter id="filter0_d" x="135.007" y="215.35" width="76.5571" height="58.07" filterUnits="userSpaceOnUse" color-interpolation-filters="sRGB">
<feFlood flood-opacity="0" result="BackgroundImageFix"/>
<feColorMatrix in="SourceAlpha" type="matrix" values="0 0 0 0 0 0 0 0 0 0 0 0 0 0 0 0 0 0 127 0"/>
<feOffset dy="4"/>
<feGaussianBlur stdDeviation="5"/>
<feColorMatrix type="matrix" values="0 0 0 0 0.811538 0 0 0 0 0.795833 0 0 0 0 1 0 0 0 1 0"/>
<feBlend mode="normal" in2="BackgroundImageFix" result="effect1_dropShadow"/>
<feBlend mode="normal" in="SourceGraphic" in2="effect1_dropShadow" result="shape"/>
</filter>
<filter id="filter1_d" x="89.1885" y="215.08" width="27.29" height="57.8" filterUnits="userSpaceOnUse" color-interpolation-filters="sRGB">
<feFlood flood-opacity="0" result="BackgroundImageFix"/>
<feColorMatrix in="SourceAlpha" type="matrix" values="0 0 0 0 0 0 0 0 0 0 0 0 0 0 0 0 0 0 127 0"/>
<feOffset dy="4"/>
<feGaussianBlur stdDeviation="5"/>
<feColorMatrix type="matrix" values="0 0 0 0 0.811538 0 0 0 0 0.795833 0 0 0 0 1 0 0 0 1 0"/>
<feBlend mode="normal" in2="BackgroundImageFix" result="effect1_dropShadow"/>
<feBlend mode="normal" in="SourceGraphic" in2="effect1_dropShadow" result="shape"/>
</filter>
<filter id="filter2_d" x="94.564" y="227.179" width="47.54" height="57.8" filterUnits="userSpaceOnUse" color-interpolation-filters="sRGB">
<feFlood flood-opacity="0" result="BackgroundImageFix"/>
<feColorMatrix in="SourceAlpha" type="matrix" values="0 0 0 0 0 0 0 0 0 0 0 0 0 0 0 0 0 0 127 0"/>
<feOffset dy="4"/>
<feGaussianBlur stdDeviation="5"/>
<feColorMatrix type="matrix" values="0 0 0 0 0.454727 0 0 0 0 0.413802 0 0 0 0 0.945833 0 0 0 0.5 0"/>
<feBlend mode="normal" in2="BackgroundImageFix" result="effect1_dropShadow"/>
<feBlend mode="normal" in="SourceGraphic" in2="effect1_dropShadow" result="shape"/>
</filter>
<filter id="filter3_d" x="66.7432" y="225.88" width="43.49" height="47.54" filterUnits="userSpaceOnUse" color-interpolation-filters="sRGB">
<feFlood flood-opacity="0" result="BackgroundImageFix"/>
<feColorMatrix in="SourceAlpha" type="matrix" values="0 0 0 0 0 0 0 0 0 0 0 0 0 0 0 0 0 0 127 0"/>
<feOffset dy="4"/>
<feGaussianBlur stdDeviation="5"/>
<feColorMatrix type="matrix" values="0 0 0 0 0.811538 0 0 0 0 0.795833 0 0 0 0 1 0 0 0 1 0"/>
<feBlend mode="normal" in2="BackgroundImageFix" result="effect1_dropShadow"/>
<feBlend mode="normal" in="SourceGraphic" in2="effect1_dropShadow" result="shape"/>
</filter>
<filter id="filter4_d" x="17.7832" y="216.08" width="48.34" height="47.8" filterUnits="userSpaceOnUse" color-interpolation-filters="sRGB">
<feFlood flood-opacity="0" result="BackgroundImageFix"/>
<feColorMatrix in="SourceAlpha" type="matrix" values="0 0 0 0 0 0 0 0 0 0 0 0 0 0 0 0 0 0 127 0"/>
<feOffset dx="2"/>
<feGaussianBlur stdDeviation="2.5"/>
<feColorMatrix type="matrix" values="0 0 0 0 0.372549 0 0 0 0 0.360784 0 0 0 0 0.74902 0 0 0 0.5 0"/>
<feBlend mode="normal" in2="BackgroundImageFix" result="effect1_dropShadow"/>
<feBlend mode="normal" in="SourceGraphic" in2="effect1_dropShadow" result="shape"/>
</filter>
<linearGradient id="paint0_linear" x1="130.365" y1="130.403" x2="-57.4239" y2="172.579" gradientUnits="userSpaceOnUse">
<stop stop-color="#5F5CBF"/>
<stop offset="1" stop-color="#5F5CBF" stop-opacity="0"/>
</linearGradient>
<linearGradient id="paint1_linear" x1="130.365" y1="130.403" x2="-57.4239" y2="172.579" gradientUnits="userSpaceOnUse">
<stop stop-color="#5F5CBF"/>
<stop offset="1" stop-color="#5F5CBF" stop-opacity="0"/>
</linearGradient>
<linearGradient id="paint2_linear" x1="130.365" y1="130.403" x2="-57.4239" y2="172.579" gradientUnits="userSpaceOnUse">
<stop stop-color="#5F5CBF"/>
<stop offset="1" stop-color="#5F5CBF" stop-opacity="0"/>
</linearGradient>
<linearGradient id="paint3_linear" x1="180.301" y1="177.82" x2="-65.0906" y2="282.144" gradientUnits="userSpaceOnUse">
<stop stop-color="#5F5CBF"/>
<stop offset="1" stop-color="#5F5CBF" stop-opacity="0"/>
</linearGradient>
<linearGradient id="paint4_linear" x1="180.301" y1="177.82" x2="-65.0906" y2="282.144" gradientUnits="userSpaceOnUse">
<stop stop-color="#5F5CBF"/>
<stop offset="1" stop-color="#5F5CBF" stop-opacity="0"/>
</linearGradient>
<linearGradient id="paint5_linear" x1="180.301" y1="177.82" x2="-65.0906" y2="282.144" gradientUnits="userSpaceOnUse">
<stop stop-color="#5F5CBF"/>
<stop offset="1" stop-color="#5F5CBF" stop-opacity="0"/>
</linearGradient>
<linearGradient id="paint6_linear" x1="180.301" y1="177.82" x2="-65.0906" y2="282.144" gradientUnits="userSpaceOnUse">
<stop stop-color="#5F5CBF"/>
<stop offset="1" stop-color="#5F5CBF" stop-opacity="0"/>
</linearGradient>
<linearGradient id="paint7_linear" x1="144.354" y1="224.59" x2="94.021" y2="240.498" gradientUnits="userSpaceOnUse">
<stop offset="0.261396" stop-color="#5F5CBF"/>
<stop offset="0.956109" stop-color="#5F5CBF" stop-opacity="0"/>
</linearGradient>
<linearGradient id="paint8_linear" x1="82.829" y1="231.88" x2="24.1782" y2="265.575" gradientUnits="userSpaceOnUse">
<stop offset="0.2852" stop-color="#5F5CBF"/>
<stop offset="0.956109" stop-color="#5F5CBF" stop-opacity="0"/>
</linearGradient>
</defs>
</svg>
