<svg width="280" height="431" viewBox="0 0 280 431" fill="none" xmlns="http://www.w3.org/2000/svg">
<mask id="mask0" mask-type="alpha" maskUnits="userSpaceOnUse" x="0" y="0" width="280" height="431">
<rect y="0.979248" width="280" height="430" rx="30" fill="#5F5CBF"/>
</mask>
<g mask="url(#mask0)">
<rect y="0.979248" width="280" height="430" rx="30" fill="#F3F2FF"/>
<path opacity="0.7" d="M-4.52309 620.929C-87.7492 620.929 -143.836 564.842 -143.836 481.616C-143.836 398.389 -87.7492 344.112 -4.52309 344.112C87.7493 344.112 143.836 400.199 143.836 483.425C143.836 566.651 87.7493 620.929 -4.52309 620.929Z" fill="url(#paint0_linear)"/>
<path opacity="0.7" d="M30.9373 625.482C-69.6472 625.482 -137.433 557.697 -137.433 457.112C-137.433 356.528 -69.6472 290.929 30.9373 290.929C142.455 290.929 210.24 358.714 210.24 459.299C210.24 559.883 142.455 625.482 30.9373 625.482Z" fill="url(#paint1_linear)"/>
<path opacity="0.7" d="M69.365 670.929C-60.1504 670.929 -147.433 583.647 -147.433 454.131C-147.433 324.616 -60.1504 240.149 69.365 240.149C212.958 240.149 300.24 327.432 300.24 456.947C300.24 586.462 212.958 670.929 69.365 670.929Z" fill="url(#paint2_linear)"/>
<path opacity="0.7" d="M270.148 -220.495C353.374 -220.495 409.462 -164.408 409.462 -81.1815C409.462 2.04462 353.374 56.3225 270.148 56.3225C177.876 56.3225 121.789 0.235332 121.789 -82.9908C121.789 -166.217 177.876 -220.495 270.148 -220.495Z" fill="url(#paint3_linear)"/>
<path opacity="0.7" d="M234.688 -225.048C335.273 -225.048 403.058 -157.263 403.058 -56.6781C403.058 43.9065 335.272 109.505 234.688 109.505C123.17 109.505 55.385 41.7198 55.385 -58.8648C55.385 -159.449 123.17 -225.048 234.688 -225.048Z" fill="url(#paint4_linear)"/>
<path opacity="0.7" d="M196.26 -270.495C325.776 -270.495 413.058 -183.213 413.058 -53.6973C413.058 75.8181 325.776 160.285 196.26 160.285C52.667 160.285 -34.615 73.0025 -34.615 -56.5129C-34.615 -186.028 52.6671 -270.495 196.26 -270.495Z" fill="url(#paint5_linear)"/>
</g>
<path d="M20.7636 174.504V212.304H28.8636V197.454H44.2536V190.164H28.8636V181.794H48.5736V174.504H20.7636ZM73.6688 201.504C73.6688 201.504 73.9388 200.424 73.9388 198.534C73.9388 190.974 68.2688 185.304 60.7088 185.304C53.1488 185.304 46.9388 191.514 46.9388 199.074C46.9388 206.634 53.1488 212.844 60.9788 212.844C68.2688 212.844 72.3188 208.254 72.3188 208.254L68.5388 203.394C68.5388 203.394 66.1088 206.634 61.5188 206.634C57.4688 206.634 55.0388 204.204 54.4988 201.504H73.6688ZM60.7088 191.514C63.9488 191.514 66.1088 193.674 66.6488 196.374H54.4988C55.3088 193.674 57.4688 191.514 60.7088 191.514ZM91.2357 212.304C92.8557 212.304 98.5257 212.304 98.5257 212.304V195.834C98.5257 189.894 93.9357 185.304 87.1857 185.304C80.1657 185.304 76.6557 190.434 76.6557 190.434L80.7057 194.484C80.7057 194.484 82.5957 191.784 86.6457 191.784C89.6157 191.784 91.2357 193.404 91.2357 195.564L82.8657 197.076C78.0057 197.94 75.0357 200.964 75.0357 205.284C75.0357 209.334 78.5457 212.844 83.9457 212.844C88.5357 212.844 91.2357 209.604 91.2357 209.604V212.304ZM85.8357 206.904C83.4057 206.904 82.3257 205.824 82.3257 204.204C82.3257 202.584 83.4057 201.558 85.2957 201.234L91.2357 200.154V200.964C91.2357 204.744 89.0757 206.904 85.8357 206.904ZM106.094 182.874C106.094 185.034 104.744 186.384 103.124 186.384H100.694V192.864H105.284V203.664C105.284 209.874 108.254 212.844 113.654 212.844C116.354 212.844 118.514 212.034 118.514 212.034V205.824C118.514 205.824 117.434 206.364 115.814 206.364C113.924 206.364 112.574 205.014 112.574 203.394V192.864H117.974V186.384H112.574V178.014H106.094V182.874ZM139.859 212.304H147.149V185.844H139.859V199.884C139.859 203.934 137.699 206.094 134.459 206.094C131.489 206.094 129.329 203.934 129.329 200.964V185.844H122.039V201.666C122.039 208.524 126.359 212.844 132.299 212.844C137.159 212.844 139.859 209.604 139.859 209.604V212.304ZM167.648 185.574H166.568C161.708 185.574 159.008 189.084 159.008 189.084V185.844H151.718V212.304H159.008V199.614C159.008 195.024 161.438 192.594 165.218 192.594C166.838 192.594 167.648 192.864 167.648 192.864V185.574ZM194.114 201.504C194.114 201.504 194.384 200.424 194.384 198.534C194.384 190.974 188.714 185.304 181.154 185.304C173.594 185.304 167.384 191.514 167.384 199.074C167.384 206.634 173.594 212.844 181.424 212.844C188.714 212.844 192.764 208.254 192.764 208.254L188.984 203.394C188.984 203.394 186.554 206.634 181.964 206.634C177.914 206.634 175.484 204.204 174.944 201.504H194.114ZM181.154 191.514C184.394 191.514 186.554 193.674 187.094 196.374H174.944C175.754 193.674 177.914 191.514 181.154 191.514ZM215.461 189.354C215.461 189.354 212.491 185.304 206.281 185.304C200.341 185.304 196.021 189.624 196.021 193.674C196.021 202.422 208.171 200.424 208.171 204.474C208.171 205.824 207.091 206.904 204.661 206.904C201.151 206.904 198.991 203.934 198.991 203.934L194.941 207.984C194.941 207.984 198.181 212.844 205.741 212.844C212.491 212.844 216.271 209.064 216.271 204.474C216.271 195.564 204.121 197.454 204.121 193.674C204.121 192.594 205.201 191.514 207.361 191.514C210.061 191.514 211.681 193.674 211.681 193.674L215.461 189.354Z" fill="#2CBFBF"/>
<defs>
<linearGradient id="paint0_linear" x1="-214.645" y1="741.663" x2="415.179" y2="335.331" gradientUnits="userSpaceOnUse">
<stop offset="0.0316722" stop-color="#2CBFBF"/>
<stop offset="1" stop-color="#2CBFBF" stop-opacity="0"/>
</linearGradient>
<linearGradient id="paint1_linear" x1="-223.009" y1="771.397" x2="538.176" y2="280.318" gradientUnits="userSpaceOnUse">
<stop offset="0.0316722" stop-color="#2CBFBF"/>
<stop offset="1" stop-color="#2CBFBF" stop-opacity="0"/>
</linearGradient>
<linearGradient id="paint2_linear" x1="-257.623" y1="858.813" x2="722.5" y2="226.486" gradientUnits="userSpaceOnUse">
<stop offset="0.0316722" stop-color="#2CBFBF"/>
<stop offset="1" stop-color="#2CBFBF" stop-opacity="0"/>
</linearGradient>
<linearGradient id="paint3_linear" x1="480.27" y1="-341.228" x2="-149.553" y2="65.1026" gradientUnits="userSpaceOnUse">
<stop offset="0.0316722" stop-color="#2CBFBF"/>
<stop offset="1" stop-color="#2CBFBF" stop-opacity="0"/>
</linearGradient>
<linearGradient id="paint4_linear" x1="488.634" y1="-370.963" x2="-272.551" y2="120.117" gradientUnits="userSpaceOnUse">
<stop offset="0.0316722" stop-color="#2CBFBF"/>
<stop offset="1" stop-color="#2CBFBF" stop-opacity="0"/>
</linearGradient>
<linearGradient id="paint5_linear" x1="523.249" y1="-458.379" x2="-456.874" y2="173.948" gradientUnits="userSpaceOnUse">
<stop offset="0.0316722" stop-color="#2CBFBF"/>
<stop offset="1" stop-color="#2CBFBF" stop-opacity="0"/>
</linearGradient>
</defs>
</svg>
