<svg width="281" height="431" viewBox="0 0 281 431" fill="none" xmlns="http://www.w3.org/2000/svg">
<mask id="mask0" mask-type="alpha" maskUnits="userSpaceOnUse" x="0" y="0" width="281" height="431">
<rect x="0.240479" y="0.979248" width="280" height="430" rx="30" fill="#5F5CBF"/>
</mask>
<g mask="url(#mask0)">
<rect x="0.240479" y="0.979248" width="280" height="430" rx="30" fill="#5F5CBF"/>
<path d="M265.731 500.979C220.633 500.979 190.24 470.587 190.24 425.489C190.24 380.391 220.633 350.979 265.731 350.979C315.731 350.979 346.123 381.371 346.123 426.469C346.123 471.567 315.731 500.979 265.731 500.979Z" fill="#2CBFBF"/>
</g>
<path d="M40.9387 138.029L27.7387 121.254H20.3137V159.754H28.5637V134.179L40.9387 149.854L53.3137 134.069V159.754H61.5637V121.254H54.2487L40.9387 138.029Z" fill="url(#paint0_linear)"/>
<path d="M81.8965 159.754C83.5465 159.754 89.3215 159.754 89.3215 159.754V142.979C89.3215 136.929 84.6465 132.254 77.7715 132.254C70.6215 132.254 67.0465 137.479 67.0465 137.479L71.1715 141.604C71.1715 141.604 73.0965 138.854 77.2215 138.854C80.2465 138.854 81.8965 140.504 81.8965 142.704L73.3715 144.244C68.4215 145.124 65.3965 148.204 65.3965 152.604C65.3965 156.729 68.9715 160.304 74.4715 160.304C79.1465 160.304 81.8965 157.004 81.8965 157.004V159.754ZM76.3965 154.254C73.9215 154.254 72.8215 153.154 72.8215 151.504C72.8215 149.854 73.9215 148.809 75.8465 148.479L81.8965 147.379V148.204C81.8965 152.054 79.6965 154.254 76.3965 154.254Z" fill="url(#paint1_linear)"/>
<path d="M112.43 136.379C112.43 136.379 109.405 132.254 103.08 132.254C97.0301 132.254 92.6301 136.654 92.6301 140.779C92.6301 149.689 105.005 147.654 105.005 151.779C105.005 153.154 103.905 154.254 101.43 154.254C97.8551 154.254 95.6551 151.229 95.6551 151.229L91.5301 155.354C91.5301 155.354 94.8301 160.304 102.53 160.304C109.405 160.304 113.255 156.454 113.255 151.779C113.255 142.704 100.88 144.629 100.88 140.779C100.88 139.679 101.98 138.579 104.18 138.579C106.93 138.579 108.58 140.779 108.58 140.779L112.43 136.379Z" fill="url(#paint2_linear)"/>
<path d="M114.359 146.279C114.359 153.704 120.959 160.304 128.934 160.304C136.359 160.304 139.934 154.804 139.934 154.804L135.534 150.129C135.534 150.129 133.059 153.704 128.934 153.704C125.084 153.704 121.784 150.404 121.784 146.279C121.784 142.154 125.084 138.854 128.934 138.854C133.059 138.854 135.259 142.429 135.259 142.429L139.934 137.754C139.934 137.754 136.359 132.254 128.934 132.254C120.959 132.254 114.359 138.854 114.359 146.279Z" fill="url(#paint3_linear)"/>
<path d="M149.856 121.254H142.431V159.754H149.856V145.729C149.856 141.604 152.056 139.404 155.356 139.404C158.381 139.404 160.581 141.604 160.581 144.904V159.754H168.006V144.079C168.006 136.654 163.606 132.254 157.556 132.254C152.606 132.254 149.856 136.104 149.856 136.104V121.254Z" fill="url(#paint4_linear)"/>
<path d="M180.084 132.804H172.659V159.754H180.084V132.804ZM180.634 125.104C180.634 122.629 178.984 120.979 176.234 120.979C173.759 120.979 172.109 122.629 172.109 125.104C172.109 127.579 173.759 129.229 176.234 129.229C178.984 129.229 180.634 127.579 180.634 125.104Z" fill="url(#paint5_linear)"/>
<path d="M192.206 132.804H184.781V159.754H192.206V145.729C192.206 141.604 194.406 139.404 197.706 139.404C200.731 139.404 202.931 141.604 202.931 144.904V159.754H210.356V144.079C210.356 136.654 205.956 132.254 199.906 132.254C194.956 132.254 192.206 136.104 192.206 136.104V132.804Z" fill="url(#paint6_linear)"/>
<path d="M240.316 148.754C240.316 148.754 240.591 147.654 240.591 145.729C240.591 138.029 234.816 132.254 227.116 132.254C219.416 132.254 213.091 138.579 213.091 146.279C213.091 153.979 219.416 160.304 227.391 160.304C234.816 160.304 238.941 155.629 238.941 155.629L235.091 150.679C235.091 150.679 232.616 153.979 227.941 153.979C223.816 153.979 221.341 151.504 220.791 148.754H240.316ZM227.116 138.579C230.416 138.579 232.616 140.779 233.166 143.529H220.791C221.616 140.779 223.816 138.579 227.116 138.579Z" fill="url(#paint7_linear)"/>
<g filter="url(#filter0_d)">
<path d="M130.898 188.254H123.473V215.204H130.898V188.254ZM131.448 180.554C131.448 178.079 129.798 176.429 127.048 176.429C124.573 176.429 122.923 178.079 122.923 180.554C122.923 183.029 124.573 184.679 127.048 184.679C129.798 184.679 131.448 183.029 131.448 180.554Z" fill="url(#paint8_linear)"/>
</g>
<g filter="url(#filter1_d)">
<path d="M175.79 213.004C175.79 217.404 173.04 220.154 168.64 220.154C163.69 220.154 161.215 216.579 161.215 216.579L156.54 220.979C156.54 220.979 160.665 226.754 168.915 226.754C177.165 226.754 183.215 220.704 183.215 213.004V188.254H175.79V191.554C175.79 191.554 173.04 187.704 167.815 187.704C161.765 187.704 155.715 193.754 155.715 201.179C155.715 208.604 161.765 214.654 167.815 214.654C173.04 214.654 175.79 210.804 175.79 210.804V213.004ZM163.415 201.179C163.415 197.329 166.165 194.579 169.465 194.579C172.765 194.579 175.79 197.439 175.79 201.179C175.79 204.919 172.765 207.779 169.465 207.779C166.165 207.779 163.415 205.029 163.415 201.179Z" fill="url(#paint9_linear)"/>
</g>
<g filter="url(#filter2_d)">
<path d="M142.581 188.254H135.156V215.204H142.581V201.179C142.581 197.054 144.781 194.854 148.081 194.854C151.106 194.854 153.306 197.054 153.306 200.354V215.204H160.731V199.529C160.731 192.104 156.331 187.704 150.281 187.704C145.331 187.704 142.581 191.554 142.581 191.554V188.254Z" fill="#F3F2FF"/>
</g>
<g filter="url(#filter3_d)">
<path d="M95.6647 187.979H94.5647C89.6147 187.979 86.8647 191.554 86.8647 191.554V188.254H79.4397V215.204H86.8647V202.279C86.8647 197.604 89.3397 195.129 93.1897 195.129C94.8397 195.129 95.6647 195.404 95.6647 195.404V187.979Z" fill="url(#paint10_linear)"/>
</g>
<g filter="url(#filter4_d)">
<path d="M106.797 188.254H99.3723V215.204H106.797V201.179C106.797 197.054 108.997 194.854 112.297 194.854C115.322 194.854 117.522 197.054 117.522 200.354V215.204H124.947V199.529C124.947 192.104 120.547 187.704 114.497 187.704C109.547 187.704 106.797 191.554 106.797 191.554V188.254Z" fill="#F3F2FF"/>
</g>
<g filter="url(#filter5_d)">
<path d="M63.7252 204.204C63.7252 204.204 64.0002 203.104 64.0002 201.179C64.0002 193.479 58.2252 187.704 50.5252 187.704C42.8252 187.704 36.5002 194.029 36.5002 201.729C36.5002 209.429 42.8252 215.754 50.8002 215.754C58.2252 215.754 62.3502 211.079 62.3502 211.079L58.5002 206.129C58.5002 206.129 56.0252 209.429 51.3502 209.429C47.2252 209.429 44.7502 206.954 44.2002 204.204H63.7252ZM50.5252 194.029C53.8252 194.029 56.0252 196.229 56.5752 198.979H44.2002C45.0252 196.229 47.2252 194.029 50.5252 194.029Z" fill="url(#paint11_linear)"/>
</g>
<g filter="url(#filter6_d)">
<path d="M74.3669 215.204C76.0169 215.204 81.792 215.204 81.792 215.204V198.429C81.792 192.379 77.1169 187.704 70.2419 187.704C63.0919 187.704 59.5169 192.929 59.5169 192.929L63.6419 197.054C63.6419 197.054 65.5669 194.304 69.6919 194.304C72.7169 194.304 74.3669 195.954 74.3669 198.154L65.8419 199.694C60.8919 200.574 57.8669 203.654 57.8669 208.054C57.8669 212.179 61.4419 215.754 66.9419 215.754C71.6169 215.754 74.3669 212.454 74.3669 212.454V215.204ZM68.8669 209.704C66.3919 209.704 65.2919 208.604 65.2919 206.954C65.2919 205.304 66.3919 204.259 68.3169 203.929L74.3669 202.829V203.654C74.3669 207.504 72.1669 209.704 68.8669 209.704Z" fill="#F3F2FF"/>
</g>
<g filter="url(#filter7_d)">
<path d="M46.4387 215.204V207.779H28.5637V176.704H20.3137V215.204H46.4387Z" fill="#F3F2FF"/>
</g>
<path d="M127.044 176.429C124.451 176.429 122.703 178.177 122.703 180.771C122.703 183.364 124.451 185.055 127.044 185.055C129.919 185.055 131.667 183.308 131.667 180.714C131.667 178.121 129.919 176.429 127.044 176.429Z" fill="#2CBFBF"/>
<path d="M31.3282 39.0934C24.7481 39.0934 20.3137 43.5278 20.3137 50.1078C20.3137 56.6879 24.7481 60.9792 31.3282 60.9792C38.6235 60.9792 43.0578 56.5449 43.0578 49.9648C43.0578 43.3847 38.6235 39.0934 31.3282 39.0934Z" fill="#2CBFBF"/>
<path d="M165.145 409.482C161.079 409.482 158.339 412.222 158.339 416.288C158.339 420.354 161.079 423.006 165.145 423.006C169.653 423.006 172.393 420.266 172.393 416.2C172.393 412.134 169.653 409.482 165.145 409.482Z" fill="#2CBFBF"/>
<rect opacity="0.4" x="20.2405" y="85.9792" width="240" height="5" rx="2" fill="#2CBFBF"/>
<rect x="20.3137" y="85.9792" width="159.927" height="5" rx="2" fill="url(#paint12_linear)"/>
<path d="M31.5205 352.217H32.7205L36.4005 341.017H35.1205L32.1605 350.377L29.1205 341.017H28.0005L24.9605 350.377L22.0005 341.017H20.7205L24.4005 352.217H25.6005L28.5605 342.857L31.5205 352.217ZM43.4405 348.793C43.4405 348.793 43.5205 348.537 43.5205 348.217C43.5205 345.977 41.9205 344.377 39.8405 344.377C37.8405 344.377 36.0805 346.137 36.0805 348.377C36.0805 350.617 37.8405 352.377 39.9205 352.377C42.0005 352.377 43.1205 350.777 43.1205 350.777L42.4005 350.057C42.4005 350.057 41.5365 351.337 39.9205 351.337C38.4805 351.337 37.2805 350.137 37.2005 348.777L43.4405 348.793ZM39.8405 345.417C41.2005 345.417 42.2405 346.457 42.4005 347.817H37.2005C37.3605 346.537 38.4805 345.417 39.8405 345.417ZM48.0824 348.377C48.0824 346.777 49.4424 345.417 50.8024 345.417C52.0824 345.417 53.3624 346.697 53.3624 348.377C53.3624 350.057 52.0824 351.337 50.8024 351.337C49.4424 351.337 48.0824 349.977 48.0824 348.377ZM48.0824 351.017C48.0824 351.017 49.0424 352.377 50.8024 352.377C52.7224 352.377 54.4824 350.617 54.4824 348.377C54.4824 346.137 52.7224 344.377 50.8024 344.377C49.0424 344.377 48.0824 345.737 48.0824 345.737V344.537H46.9624V355.577H48.0824V351.017ZM59.678 344.377H59.358C57.598 344.377 56.798 345.577 56.798 345.577V344.537H55.678V352.217H56.798V347.977C56.798 346.457 57.918 345.497 59.198 345.497H59.678V344.377ZM67.1936 348.793C67.1936 348.793 67.2736 348.537 67.2736 348.217C67.2736 345.977 65.6736 344.377 63.5936 344.377C61.5936 344.377 59.8336 346.137 59.8336 348.377C59.8336 350.617 61.5936 352.377 63.6736 352.377C65.7536 352.377 66.8736 350.777 66.8736 350.777L66.1536 350.057C66.1536 350.057 65.2896 351.337 63.6736 351.337C62.2336 351.337 61.0336 350.137 60.9536 348.777L67.1936 348.793ZM63.5936 345.417C64.9536 345.417 65.9936 346.457 66.1536 347.817H60.9536C61.1136 346.537 62.2336 345.417 63.5936 345.417ZM74.3086 348.377C74.3086 349.977 72.9486 351.337 71.5886 351.337C70.3086 351.337 69.0286 350.057 69.0286 348.377C69.0286 346.697 70.3086 345.417 71.5886 345.417C72.9486 345.417 74.3086 346.777 74.3086 348.377ZM74.3086 345.737C74.3086 345.737 73.3486 344.377 71.5886 344.377C69.6686 344.377 67.9086 346.137 67.9086 348.377C67.9086 350.617 69.6686 352.377 71.5886 352.377C73.3486 352.377 74.3086 351.017 74.3086 351.017V352.217H75.4286V341.017H74.3086V345.737ZM77.2624 352.217H78.3824V344.537H77.2624V352.217ZM77.1024 341.977C77.1024 342.377 77.4224 342.697 77.8224 342.697C78.2224 342.697 78.5424 342.377 78.5424 341.977C78.5424 341.577 78.2224 341.257 77.8224 341.257C77.4224 341.257 77.1024 341.577 77.1024 341.977ZM79.5899 348.377C79.5899 350.617 81.3499 352.377 83.4299 352.377C85.4299 352.377 86.6299 350.777 86.6299 350.777L85.8299 350.057C85.8299 350.057 84.9499 351.337 83.4299 351.337C81.9899 351.337 80.7099 350.057 80.7099 348.377C80.7099 346.697 81.9899 345.417 83.4299 345.417C84.9499 345.417 85.7499 346.697 85.7499 346.697L86.5499 345.897C86.5499 345.897 85.4299 344.377 83.4299 344.377C81.3499 344.377 79.5899 346.137 79.5899 348.377ZM88.3042 343.737C88.3042 344.297 88.0642 344.537 87.6642 344.537H86.7842V345.577H88.2242V350.137C88.2242 351.577 89.0242 352.377 90.3362 352.377C90.9442 352.377 91.4242 352.137 91.4242 352.137V351.097C91.4242 351.097 90.9442 351.337 90.3842 351.337C89.7442 351.337 89.3442 350.937 89.3442 350.137V345.577H91.0242V344.537H89.3442V341.977H88.3042V343.737ZM95.5167 343.737C95.5167 344.297 95.2767 344.537 94.8767 344.537H93.9967V345.577H95.4367V350.137C95.4367 351.577 96.2367 352.377 97.5487 352.377C98.1567 352.377 98.6367 352.137 98.6367 352.137V351.097C98.6367 351.097 98.1567 351.337 97.5967 351.337C96.9567 351.337 96.5567 350.937 96.5567 350.137V345.577H98.2367V344.537H96.5567V341.977H95.5167V343.737ZM100.962 341.017H99.8424V352.217H100.962V347.977C100.962 346.457 102.002 345.417 103.362 345.417C104.562 345.417 105.442 346.297 105.442 347.657V352.217H106.562V347.657C106.562 345.657 105.282 344.377 103.442 344.377C101.762 344.377 100.962 345.657 100.962 345.657V341.017ZM112.322 344.377H112.002C110.242 344.377 109.442 345.577 109.442 345.577V344.537H108.322V352.217H109.442V347.977C109.442 346.457 110.562 345.497 111.842 345.497H112.322V344.377ZM119.837 348.793C119.837 348.793 119.917 348.537 119.917 348.217C119.917 345.977 118.317 344.377 116.237 344.377C114.237 344.377 112.477 346.137 112.477 348.377C112.477 350.617 114.237 352.377 116.317 352.377C118.397 352.377 119.517 350.777 119.517 350.777L118.797 350.057C118.797 350.057 117.933 351.337 116.317 351.337C114.877 351.337 113.677 350.137 113.597 348.777L119.837 348.793ZM116.237 345.417C117.597 345.417 118.637 346.457 118.797 347.817H113.597C113.757 346.537 114.877 345.417 116.237 345.417ZM122.792 347.817C121.352 348.057 120.552 348.857 120.552 350.137C120.552 351.257 121.672 352.377 123.272 352.377C124.952 352.377 125.752 351.177 125.752 351.177V352.217H126.872V347.337C126.872 345.657 125.592 344.377 123.832 344.377C121.992 344.377 120.952 345.817 120.952 345.817L121.672 346.537C121.672 346.537 122.472 345.417 123.832 345.417C124.952 345.417 125.752 346.217 125.752 347.337L122.792 347.817ZM123.272 351.337C122.232 351.337 121.672 350.777 121.672 350.137C121.672 349.417 122.152 348.953 123.112 348.777L125.752 348.297V348.777C125.752 350.297 124.712 351.337 123.272 351.337ZM129.345 343.737C129.345 344.297 129.105 344.537 128.705 344.537H127.825V345.577H129.265V350.137C129.265 351.577 130.065 352.377 131.377 352.377C131.985 352.377 132.465 352.137 132.465 352.137V351.097C132.465 351.097 131.985 351.337 131.425 351.337C130.785 351.337 130.385 350.937 130.385 350.137V345.577H132.065V344.537H130.385V341.977H129.345V343.737ZM138.23 345.417C138.23 345.417 137.35 344.377 135.75 344.377C134.23 344.377 133.19 345.417 133.19 346.537C133.19 349.177 137.35 348.297 137.35 350.057C137.35 350.777 136.79 351.337 135.67 351.337C134.39 351.337 133.67 350.217 133.67 350.217L132.87 351.017C132.87 351.017 133.75 352.377 135.67 352.377C137.43 352.377 138.47 351.337 138.47 350.057C138.47 347.337 134.31 348.217 134.31 346.537C134.31 345.977 134.87 345.417 135.75 345.417C136.87 345.417 137.43 346.217 137.43 346.217L138.23 345.417ZM23.1205 366.817C21.6805 367.057 20.8805 367.857 20.8805 369.137C20.8805 370.257 22.0005 371.377 23.6005 371.377C25.2805 371.377 26.0805 370.177 26.0805 370.177V371.217H27.2005V366.337C27.2005 364.657 25.9205 363.377 24.1605 363.377C22.3205 363.377 21.2805 364.817 21.2805 364.817L22.0005 365.537C22.0005 365.537 22.8005 364.417 24.1605 364.417C25.2805 364.417 26.0805 365.217 26.0805 366.337L23.1205 366.817ZM23.6005 370.337C22.5605 370.337 22.0005 369.777 22.0005 369.137C22.0005 368.417 22.4805 367.953 23.4405 367.777L26.0805 367.297V367.777C26.0805 369.297 25.0405 370.337 23.6005 370.337ZM30.073 363.537H28.953V371.217H30.073V366.977C30.073 365.457 31.113 364.417 32.473 364.417C33.673 364.417 34.553 365.297 34.553 366.657V371.217H35.673V366.657C35.673 364.657 34.393 363.377 32.553 363.377C30.873 363.377 30.073 364.657 30.073 364.657V363.537ZM43.2742 367.377C43.2742 368.977 41.9142 370.337 40.5542 370.337C39.2742 370.337 37.9942 369.057 37.9942 367.377C37.9942 365.697 39.2742 364.417 40.5542 364.417C41.9142 364.417 43.2742 365.777 43.2742 367.377ZM43.2742 364.737C43.2742 364.737 42.3142 363.377 40.5542 363.377C38.6342 363.377 36.8742 365.137 36.8742 367.377C36.8742 369.617 38.6342 371.377 40.5542 371.377C42.3142 371.377 43.2742 370.017 43.2742 370.017V371.217H44.3942V360.017H43.2742V364.737ZM49.5949 367.377C49.5949 365.777 50.9549 364.417 52.3149 364.417C53.5949 364.417 54.8749 365.697 54.8749 367.377C54.8749 369.057 53.5949 370.337 52.3149 370.337C50.9549 370.337 49.5949 368.977 49.5949 367.377ZM49.5949 370.017C49.5949 370.017 50.5549 371.377 52.3149 371.377C54.2349 371.377 55.9949 369.617 55.9949 367.377C55.9949 365.137 54.2349 363.377 52.3149 363.377C50.5549 363.377 49.5949 364.737 49.5949 364.737V363.537H48.4749V374.577H49.5949V370.017ZM61.1905 363.377H60.8705C59.1105 363.377 58.3105 364.577 58.3105 364.577V363.537H57.1905V371.217H58.3105V366.977C58.3105 365.457 59.4305 364.497 60.7105 364.497H61.1905V363.377ZM68.0661 367.377C68.0661 369.057 66.7861 370.337 65.2661 370.337C63.7461 370.337 62.4661 369.041 62.4661 367.377C62.4661 365.697 63.7461 364.417 65.2661 364.417C66.7861 364.417 68.0661 365.697 68.0661 367.377ZM61.3461 367.377C61.3461 369.617 63.1061 371.377 65.2661 371.377C67.4261 371.377 69.1861 369.617 69.1861 367.377C69.1861 365.137 67.4261 363.377 65.2661 363.377C63.1061 363.377 61.3461 365.137 61.3461 367.377ZM73.5874 371.217L76.7074 363.537H75.5074L73.0274 369.697L70.5474 363.537H69.3474L72.4674 371.217H73.5874ZM77.4311 371.217H78.5511V363.537H77.4311V371.217ZM77.2711 360.977C77.2711 361.377 77.5911 361.697 77.9911 361.697C78.3911 361.697 78.7111 361.377 78.7111 360.977C78.7111 360.577 78.3911 360.257 77.9911 360.257C77.5911 360.257 77.2711 360.577 77.2711 360.977ZM86.1586 367.377C86.1586 368.977 84.7986 370.337 83.4386 370.337C82.1586 370.337 80.8786 369.057 80.8786 367.377C80.8786 365.697 82.1586 364.417 83.4386 364.417C84.7986 364.417 86.1586 365.777 86.1586 367.377ZM86.1586 364.737C86.1586 364.737 85.1986 363.377 83.4386 363.377C81.5186 363.377 79.7586 365.137 79.7586 367.377C79.7586 369.617 81.5186 371.377 83.4386 371.377C85.1986 371.377 86.1586 370.017 86.1586 370.017V371.217H87.2786V360.017H86.1586V364.737ZM95.9124 367.793C95.9124 367.793 95.9924 367.537 95.9924 367.217C95.9924 364.977 94.3924 363.377 92.3124 363.377C90.3124 363.377 88.5524 365.137 88.5524 367.377C88.5524 369.617 90.3124 371.377 92.3924 371.377C94.4724 371.377 95.5924 369.777 95.5924 369.777L94.8724 369.057C94.8724 369.057 94.0084 370.337 92.3924 370.337C90.9524 370.337 89.7524 369.137 89.6724 367.777L95.9124 367.793ZM92.3124 364.417C93.6724 364.417 94.7124 365.457 94.8724 366.817H89.6724C89.8324 365.537 90.9524 364.417 92.3124 364.417ZM105.594 367.377C105.594 369.057 104.314 370.337 102.794 370.337C101.274 370.337 99.9942 369.041 99.9942 367.377C99.9942 365.697 101.274 364.417 102.794 364.417C104.314 364.417 105.594 365.697 105.594 367.377ZM98.8742 367.377C98.8742 369.617 100.634 371.377 102.794 371.377C104.954 371.377 106.714 369.617 106.714 367.377C106.714 365.137 104.954 363.377 102.794 363.377C100.634 363.377 98.8742 365.137 98.8742 367.377ZM109.035 367.377C109.035 365.777 110.395 364.417 111.755 364.417C113.035 364.417 114.315 365.697 114.315 367.377C114.315 369.057 113.035 370.337 111.755 370.337C110.395 370.337 109.035 368.977 109.035 367.377ZM109.035 370.017C109.035 370.017 109.995 371.377 111.755 371.377C113.675 371.377 115.435 369.617 115.435 367.377C115.435 365.137 113.675 363.377 111.755 363.377C109.995 363.377 109.035 364.737 109.035 364.737V363.537H107.915V374.577H109.035V370.017ZM117.351 362.737C117.351 363.297 117.111 363.537 116.711 363.537H115.831V364.577H117.271V369.137C117.271 370.577 118.071 371.377 119.383 371.377C119.991 371.377 120.471 371.137 120.471 371.137V370.097C120.471 370.097 119.991 370.337 119.431 370.337C118.791 370.337 118.391 369.937 118.391 369.137V364.577H120.071V363.537H118.391V360.977H117.351V362.737ZM121.597 371.217H122.717V363.537H121.597V371.217ZM121.437 360.977C121.437 361.377 121.757 361.697 122.157 361.697C122.557 361.697 122.877 361.377 122.877 360.977C122.877 360.577 122.557 360.257 122.157 360.257C121.757 360.257 121.437 360.577 121.437 360.977ZM134.724 371.217H135.844V366.657C135.844 364.513 134.564 363.377 132.884 363.377C130.964 363.377 130.244 364.737 130.244 364.737C130.244 364.737 129.604 363.377 127.764 363.377C126.244 363.377 125.604 364.497 125.604 364.497V363.537H124.484V371.217H125.604V366.977C125.604 365.377 126.564 364.417 127.684 364.417C128.804 364.417 129.604 365.217 129.604 366.657V371.217H130.724V366.977C130.724 365.377 131.684 364.417 132.804 364.417C133.924 364.417 134.724 365.201 134.724 366.657V371.217ZM137.606 371.217H138.726V363.537H137.606V371.217ZM137.446 360.977C137.446 361.377 137.766 361.697 138.166 361.697C138.566 361.697 138.886 361.377 138.886 360.977C138.886 360.577 138.566 360.257 138.166 360.257C137.766 360.257 137.446 360.577 137.446 360.977ZM145.854 363.537H140.014V364.577H144.494L139.854 370.177V371.217H146.014V370.177H141.214L145.854 364.577V363.537ZM148.811 366.817C147.371 367.057 146.571 367.857 146.571 369.137C146.571 370.257 147.691 371.377 149.291 371.377C150.971 371.377 151.771 370.177 151.771 370.177V371.217H152.891V366.337C152.891 364.657 151.611 363.377 149.851 363.377C148.011 363.377 146.971 364.817 146.971 364.817L147.691 365.537C147.691 365.537 148.491 364.417 149.851 364.417C150.971 364.417 151.771 365.217 151.771 366.337L148.811 366.817ZM149.291 370.337C148.251 370.337 147.691 369.777 147.691 369.137C147.691 368.417 148.171 367.953 149.131 367.777L151.771 367.297V367.777C151.771 369.297 150.731 370.337 149.291 370.337ZM155.364 362.737C155.364 363.297 155.124 363.537 154.724 363.537H153.844V364.577H155.284V369.137C155.284 370.577 156.084 371.377 157.396 371.377C158.004 371.377 158.484 371.137 158.484 371.137V370.097C158.484 370.097 158.004 370.337 157.444 370.337C156.804 370.337 156.404 369.937 156.404 369.137V364.577H158.084V363.537H156.404V360.977H155.364V362.737ZM159.609 371.217H160.729V363.537H159.609V371.217ZM159.449 360.977C159.449 361.377 159.769 361.697 160.169 361.697C160.569 361.697 160.889 361.377 160.889 360.977C160.889 360.577 160.569 360.257 160.169 360.257C159.769 360.257 159.449 360.577 159.449 360.977ZM168.657 367.377C168.657 369.057 167.377 370.337 165.857 370.337C164.337 370.337 163.057 369.041 163.057 367.377C163.057 365.697 164.337 364.417 165.857 364.417C167.377 364.417 168.657 365.697 168.657 367.377ZM161.937 367.377C161.937 369.617 163.697 371.377 165.857 371.377C168.017 371.377 169.777 369.617 169.777 367.377C169.777 365.137 168.017 363.377 165.857 363.377C163.697 363.377 161.937 365.137 161.937 367.377ZM172.098 363.537H170.978V371.217H172.098V366.977C172.098 365.457 173.138 364.417 174.498 364.417C175.698 364.417 176.578 365.297 176.578 366.657V371.217H177.698V366.657C177.698 364.657 176.418 363.377 174.578 363.377C172.898 363.377 172.098 364.657 172.098 364.657V363.537ZM27.6005 386.377C27.6005 388.057 26.3205 389.337 24.8005 389.337C23.2805 389.337 22.0005 388.041 22.0005 386.377C22.0005 384.697 23.2805 383.417 24.8005 383.417C26.3205 383.417 27.6005 384.697 27.6005 386.377ZM20.8805 386.377C20.8805 388.617 22.6405 390.377 24.8005 390.377C26.9605 390.377 28.7205 388.617 28.7205 386.377C28.7205 384.137 26.9605 382.377 24.8005 382.377C22.6405 382.377 20.8805 384.137 20.8805 386.377ZM31.0417 386.377C31.0417 384.777 32.4017 383.417 33.7617 383.417C35.0417 383.417 36.3217 384.697 36.3217 386.377C36.3217 388.057 35.0417 389.337 33.7617 389.337C32.4017 389.337 31.0417 387.977 31.0417 386.377ZM31.0417 389.017C31.0417 389.017 32.0017 390.377 33.7617 390.377C35.6817 390.377 37.4417 388.617 37.4417 386.377C37.4417 384.137 35.6817 382.377 33.7617 382.377C32.0017 382.377 31.0417 383.737 31.0417 383.737V382.537H29.9217V393.577H31.0417V389.017ZM39.7574 386.377C39.7574 384.777 41.1174 383.417 42.4774 383.417C43.7574 383.417 45.0374 384.697 45.0374 386.377C45.0374 388.057 43.7574 389.337 42.4774 389.337C41.1174 389.337 39.7574 387.977 39.7574 386.377ZM39.7574 389.017C39.7574 389.017 40.7174 390.377 42.4774 390.377C44.3974 390.377 46.1574 388.617 46.1574 386.377C46.1574 384.137 44.3974 382.377 42.4774 382.377C40.7174 382.377 39.7574 383.737 39.7574 383.737V382.537H38.6374V393.577H39.7574V389.017ZM53.513 386.377C53.513 388.057 52.233 389.337 50.713 389.337C49.193 389.337 47.913 388.041 47.913 386.377C47.913 384.697 49.193 383.417 50.713 383.417C52.233 383.417 53.513 384.697 53.513 386.377ZM46.793 386.377C46.793 388.617 48.553 390.377 50.713 390.377C52.873 390.377 54.633 388.617 54.633 386.377C54.633 384.137 52.873 382.377 50.713 382.377C48.553 382.377 46.793 384.137 46.793 386.377ZM59.8342 382.377H59.5142C57.7542 382.377 56.9542 383.577 56.9542 383.577V382.537H55.8342V390.217H56.9542V385.977C56.9542 384.457 58.0742 383.497 59.3542 383.497H59.8342V382.377ZM61.2699 381.737C61.2699 382.297 61.0299 382.537 60.6299 382.537H59.7499V383.577H61.1899V388.137C61.1899 389.577 61.9899 390.377 63.3019 390.377C63.9099 390.377 64.3899 390.137 64.3899 390.137V389.097C64.3899 389.097 63.9099 389.337 63.3499 389.337C62.7099 389.337 62.3099 388.937 62.3099 388.137V383.577H63.9899V382.537H62.3099V379.977H61.2699V381.737ZM71.1155 390.217H72.2355V382.537H71.1155V386.777C71.1155 388.297 70.0755 389.337 68.7955 389.337C67.5955 389.337 66.6355 388.377 66.6355 387.017V382.537H65.5155V387.017C65.5155 389.017 66.8755 390.377 68.6355 390.377C70.3155 390.377 71.1155 389.177 71.1155 389.177V390.217ZM75.1949 382.537H74.0749V390.217H75.1949V385.977C75.1949 384.457 76.2349 383.417 77.5949 383.417C78.7949 383.417 79.6749 384.297 79.6749 385.657V390.217H80.7949V385.657C80.7949 383.657 79.5149 382.377 77.6749 382.377C75.9949 382.377 75.1949 383.657 75.1949 383.657V382.537ZM82.5561 390.217H83.6761V382.537H82.5561V390.217ZM82.3961 379.977C82.3961 380.377 82.7161 380.697 83.1161 380.697C83.5161 380.697 83.8361 380.377 83.8361 379.977C83.8361 379.577 83.5161 379.257 83.1161 379.257C82.7161 379.257 82.3961 379.577 82.3961 379.977ZM86.1636 381.737C86.1636 382.297 85.9236 382.537 85.5236 382.537H84.6436V383.577H86.0836V388.137C86.0836 389.577 86.8836 390.377 88.1956 390.377C88.8036 390.377 89.2836 390.137 89.2836 390.137V389.097C89.2836 389.097 88.8036 389.337 88.2436 389.337C87.6036 389.337 87.2036 388.937 87.2036 388.137V383.577H88.8836V382.537H87.2036V379.977H86.1636V381.737ZM90.4092 390.217H91.5292V382.537H90.4092V390.217ZM90.2492 379.977C90.2492 380.377 90.5692 380.697 90.9692 380.697C91.3692 380.697 91.6892 380.377 91.6892 379.977C91.6892 379.577 91.3692 379.257 90.9692 379.257C90.5692 379.257 90.2492 379.577 90.2492 379.977ZM100.097 386.793C100.097 386.793 100.177 386.537 100.177 386.217C100.177 383.977 98.5767 382.377 96.4967 382.377C94.4967 382.377 92.7367 384.137 92.7367 386.377C92.7367 388.617 94.4967 390.377 96.5767 390.377C98.6567 390.377 99.7767 388.777 99.7767 388.777L99.0567 388.057C99.0567 388.057 98.1927 389.337 96.5767 389.337C95.1367 389.337 93.9367 388.137 93.8567 386.777L100.097 386.793ZM96.4967 383.417C97.8567 383.417 98.8967 384.457 99.0567 385.817H93.8567C94.0167 384.537 95.1367 383.417 96.4967 383.417ZM106.012 383.417C106.012 383.417 105.132 382.377 103.532 382.377C102.012 382.377 100.972 383.417 100.972 384.537C100.972 387.177 105.132 386.297 105.132 388.057C105.132 388.777 104.572 389.337 103.452 389.337C102.172 389.337 101.452 388.217 101.452 388.217L100.652 389.017C100.652 389.017 101.532 390.377 103.452 390.377C105.212 390.377 106.252 389.337 106.252 388.057C106.252 385.337 102.092 386.217 102.092 384.537C102.092 383.977 102.652 383.417 103.532 383.417C104.652 383.417 105.212 384.217 105.212 384.217L106.012 383.417Z" fill="url(#paint13_linear)"/>
<defs>
<filter id="filter0_d" x="112.923" y="170.429" width="28.525" height="58.775" filterUnits="userSpaceOnUse" color-interpolation-filters="sRGB">
<feFlood flood-opacity="0" result="BackgroundImageFix"/>
<feColorMatrix in="SourceAlpha" type="matrix" values="0 0 0 0 0 0 0 0 0 0 0 0 0 0 0 0 0 0 127 0"/>
<feOffset dy="4"/>
<feGaussianBlur stdDeviation="5"/>
<feColorMatrix type="matrix" values="0 0 0 0 0.345451 0 0 0 0 0.292187 0 0 0 0 0.779167 0 0 0 1 0"/>
<feBlend mode="normal" in2="BackgroundImageFix" result="effect1_dropShadow"/>
<feBlend mode="normal" in="SourceGraphic" in2="effect1_dropShadow" result="shape"/>
</filter>
<filter id="filter1_d" x="145.715" y="181.704" width="47.5" height="59.05" filterUnits="userSpaceOnUse" color-interpolation-filters="sRGB">
<feFlood flood-opacity="0" result="BackgroundImageFix"/>
<feColorMatrix in="SourceAlpha" type="matrix" values="0 0 0 0 0 0 0 0 0 0 0 0 0 0 0 0 0 0 127 0"/>
<feOffset dy="4"/>
<feGaussianBlur stdDeviation="5"/>
<feColorMatrix type="matrix" values="0 0 0 0 0.345451 0 0 0 0 0.292187 0 0 0 0 0.779167 0 0 0 1 0"/>
<feBlend mode="normal" in2="BackgroundImageFix" result="effect1_dropShadow"/>
<feBlend mode="normal" in="SourceGraphic" in2="effect1_dropShadow" result="shape"/>
</filter>
<filter id="filter2_d" x="127.156" y="181.704" width="45.575" height="47.5" filterUnits="userSpaceOnUse" color-interpolation-filters="sRGB">
<feFlood flood-opacity="0" result="BackgroundImageFix"/>
<feColorMatrix in="SourceAlpha" type="matrix" values="0 0 0 0 0 0 0 0 0 0 0 0 0 0 0 0 0 0 127 0"/>
<feOffset dx="2" dy="4"/>
<feGaussianBlur stdDeviation="5"/>
<feColorMatrix type="matrix" values="0 0 0 0 0.345451 0 0 0 0 0.292187 0 0 0 0 0.779167 0 0 0 1 0"/>
<feBlend mode="normal" in2="BackgroundImageFix" result="effect1_dropShadow"/>
<feBlend mode="normal" in="SourceGraphic" in2="effect1_dropShadow" result="shape"/>
</filter>
<filter id="filter3_d" x="69.4397" y="181.979" width="36.225" height="47.225" filterUnits="userSpaceOnUse" color-interpolation-filters="sRGB">
<feFlood flood-opacity="0" result="BackgroundImageFix"/>
<feColorMatrix in="SourceAlpha" type="matrix" values="0 0 0 0 0 0 0 0 0 0 0 0 0 0 0 0 0 0 127 0"/>
<feOffset dy="4"/>
<feGaussianBlur stdDeviation="5"/>
<feColorMatrix type="matrix" values="0 0 0 0 0.345451 0 0 0 0 0.292187 0 0 0 0 0.779167 0 0 0 1 0"/>
<feBlend mode="normal" in2="BackgroundImageFix" result="effect1_dropShadow"/>
<feBlend mode="normal" in="SourceGraphic" in2="effect1_dropShadow" result="shape"/>
</filter>
<filter id="filter4_d" x="89.3723" y="181.704" width="45.575" height="47.5" filterUnits="userSpaceOnUse" color-interpolation-filters="sRGB">
<feFlood flood-opacity="0" result="BackgroundImageFix"/>
<feColorMatrix in="SourceAlpha" type="matrix" values="0 0 0 0 0 0 0 0 0 0 0 0 0 0 0 0 0 0 127 0"/>
<feOffset dy="4"/>
<feGaussianBlur stdDeviation="5"/>
<feColorMatrix type="matrix" values="0 0 0 0 0.345451 0 0 0 0 0.292187 0 0 0 0 0.779167 0 0 0 1 0"/>
<feBlend mode="normal" in2="BackgroundImageFix" result="effect1_dropShadow"/>
<feBlend mode="normal" in="SourceGraphic" in2="effect1_dropShadow" result="shape"/>
</filter>
<filter id="filter5_d" x="26.5002" y="181.704" width="47.5" height="48.05" filterUnits="userSpaceOnUse" color-interpolation-filters="sRGB">
<feFlood flood-opacity="0" result="BackgroundImageFix"/>
<feColorMatrix in="SourceAlpha" type="matrix" values="0 0 0 0 0 0 0 0 0 0 0 0 0 0 0 0 0 0 127 0"/>
<feOffset dy="4"/>
<feGaussianBlur stdDeviation="5"/>
<feColorMatrix type="matrix" values="0 0 0 0 0.345451 0 0 0 0 0.292187 0 0 0 0 0.779167 0 0 0 1 0"/>
<feBlend mode="normal" in2="BackgroundImageFix" result="effect1_dropShadow"/>
<feBlend mode="normal" in="SourceGraphic" in2="effect1_dropShadow" result="shape"/>
</filter>
<filter id="filter6_d" x="44.8669" y="181.704" width="43.925" height="48.05" filterUnits="userSpaceOnUse" color-interpolation-filters="sRGB">
<feFlood flood-opacity="0" result="BackgroundImageFix"/>
<feColorMatrix in="SourceAlpha" type="matrix" values="0 0 0 0 0 0 0 0 0 0 0 0 0 0 0 0 0 0 127 0"/>
<feOffset dx="-3" dy="4"/>
<feGaussianBlur stdDeviation="5"/>
<feColorMatrix type="matrix" values="0 0 0 0 0.345451 0 0 0 0 0.292187 0 0 0 0 0.779167 0 0 0 1 0"/>
<feBlend mode="normal" in2="BackgroundImageFix" result="effect1_dropShadow"/>
<feBlend mode="normal" in="SourceGraphic" in2="effect1_dropShadow" result="shape"/>
</filter>
<filter id="filter7_d" x="10.3137" y="170.704" width="46.125" height="58.5" filterUnits="userSpaceOnUse" color-interpolation-filters="sRGB">
<feFlood flood-opacity="0" result="BackgroundImageFix"/>
<feColorMatrix in="SourceAlpha" type="matrix" values="0 0 0 0 0 0 0 0 0 0 0 0 0 0 0 0 0 0 127 0"/>
<feOffset dy="4"/>
<feGaussianBlur stdDeviation="5"/>
<feColorMatrix type="matrix" values="0 0 0 0 0.345451 0 0 0 0 0.292187 0 0 0 0 0.779167 0 0 0 1 0"/>
<feBlend mode="normal" in2="BackgroundImageFix" result="effect1_dropShadow"/>
<feBlend mode="normal" in="SourceGraphic" in2="effect1_dropShadow" result="shape"/>
</filter>
<linearGradient id="paint0_linear" x1="291.755" y1="140.642" x2="-28.0127" y2="160.304" gradientUnits="userSpaceOnUse">
<stop offset="0.13731" stop-color="#F3F2FF"/>
<stop offset="1" stop-color="#F3F2FF" stop-opacity="0"/>
</linearGradient>
<linearGradient id="paint1_linear" x1="291.755" y1="140.642" x2="-28.0127" y2="160.304" gradientUnits="userSpaceOnUse">
<stop offset="0.13731" stop-color="#F3F2FF"/>
<stop offset="1" stop-color="#F3F2FF" stop-opacity="0"/>
</linearGradient>
<linearGradient id="paint2_linear" x1="291.755" y1="140.642" x2="-28.0127" y2="160.304" gradientUnits="userSpaceOnUse">
<stop offset="0.13731" stop-color="#F3F2FF"/>
<stop offset="1" stop-color="#F3F2FF" stop-opacity="0"/>
</linearGradient>
<linearGradient id="paint3_linear" x1="291.755" y1="140.642" x2="-28.0127" y2="160.304" gradientUnits="userSpaceOnUse">
<stop offset="0.13731" stop-color="#F3F2FF"/>
<stop offset="1" stop-color="#F3F2FF" stop-opacity="0"/>
</linearGradient>
<linearGradient id="paint4_linear" x1="291.755" y1="140.642" x2="-28.0127" y2="160.304" gradientUnits="userSpaceOnUse">
<stop offset="0.13731" stop-color="#F3F2FF"/>
<stop offset="1" stop-color="#F3F2FF" stop-opacity="0"/>
</linearGradient>
<linearGradient id="paint5_linear" x1="291.755" y1="140.642" x2="-28.0127" y2="160.304" gradientUnits="userSpaceOnUse">
<stop offset="0.13731" stop-color="#F3F2FF"/>
<stop offset="1" stop-color="#F3F2FF" stop-opacity="0"/>
</linearGradient>
<linearGradient id="paint6_linear" x1="291.755" y1="140.642" x2="-28.0127" y2="160.304" gradientUnits="userSpaceOnUse">
<stop offset="0.13731" stop-color="#F3F2FF"/>
<stop offset="1" stop-color="#F3F2FF" stop-opacity="0"/>
</linearGradient>
<linearGradient id="paint7_linear" x1="291.755" y1="140.642" x2="-28.0127" y2="160.304" gradientUnits="userSpaceOnUse">
<stop offset="0.13731" stop-color="#F3F2FF"/>
<stop offset="1" stop-color="#F3F2FF" stop-opacity="0"/>
</linearGradient>
<linearGradient id="paint8_linear" x1="121.465" y1="181.293" x2="122.695" y2="226.046" gradientUnits="userSpaceOnUse">
<stop offset="0.264656" stop-color="#F3F2FF"/>
<stop offset="0.90183" stop-color="#F3F2FF" stop-opacity="0"/>
</linearGradient>
<linearGradient id="paint9_linear" x1="186.8" y1="211.119" x2="151.028" y2="210.999" gradientUnits="userSpaceOnUse">
<stop offset="0.264656" stop-color="#F3F2FF"/>
<stop offset="0.90183" stop-color="#F3F2FF" stop-opacity="0"/>
</linearGradient>
<linearGradient id="paint10_linear" x1="97.78" y1="204.304" x2="76.6744" y2="204.244" gradientUnits="userSpaceOnUse">
<stop offset="0.264656" stop-color="#F3F2FF"/>
<stop offset="0.90183" stop-color="#F3F2FF" stop-opacity="0"/>
</linearGradient>
<linearGradient id="paint11_linear" x1="67.5855" y1="204.523" x2="31.8138" y2="204.357" gradientUnits="userSpaceOnUse">
<stop offset="0.264656" stop-color="#F3F2FF"/>
<stop offset="0.90183" stop-color="#F3F2FF" stop-opacity="0"/>
</linearGradient>
<linearGradient id="paint12_linear" x1="174.541" y1="88.4792" x2="-31.4433" y2="90.9793" gradientUnits="userSpaceOnUse">
<stop stop-color="#2CBFBF"/>
<stop offset="1" stop-color="#4FD3D3" stop-opacity="0"/>
</linearGradient>
<linearGradient id="paint13_linear" x1="216.172" y1="365.717" x2="-107.975" y2="375.15" gradientUnits="userSpaceOnUse">
<stop offset="0.13731" stop-color="#F3F2FF"/>
<stop offset="1" stop-color="#F3F2FF" stop-opacity="0"/>
</linearGradient>
</defs>
</svg>
