<svg width="281" height="431" viewBox="0 0 281 431" fill="none" xmlns="http://www.w3.org/2000/svg">
<mask id="mask0" mask-type="alpha" maskUnits="userSpaceOnUse" x="0" y="0" width="281" height="431">
<rect x="0.703125" y="0.979248" width="280" height="430" rx="30" fill="#F3F2FF"/>
</mask>
<g mask="url(#mask0)">
<rect x="0.703125" y="0.979248" width="280" height="430" rx="30" fill="#5F5CBF"/>
<path opacity="0.7" d="M86.5043 536.407C3.27816 536.407 -52.8091 480.32 -52.8091 397.094C-52.8091 313.867 3.27816 259.59 86.5043 259.59C178.777 259.59 234.864 315.677 234.864 398.903C234.864 482.129 178.777 536.407 86.5043 536.407Z" fill="url(#paint0_linear)"/>
<path d="M22.9202 360.247V371.447H24.1202V366.327H29.2402V365.207H24.1202V361.367H30.5202V360.247H22.9202ZM37.4871 368.023C37.4871 368.023 37.5671 367.767 37.5671 367.447C37.5671 365.207 35.9671 363.607 33.8871 363.607C31.8871 363.607 30.1271 365.367 30.1271 367.607C30.1271 369.847 31.8871 371.607 33.9671 371.607C36.0471 371.607 37.1671 370.007 37.1671 370.007L36.4471 369.287C36.4471 369.287 35.5831 370.567 33.9671 370.567C32.5271 370.567 31.3271 369.367 31.2471 368.007L37.4871 368.023ZM33.8871 364.647C35.2471 364.647 36.2871 365.687 36.4471 367.047H31.2471C31.4071 365.767 32.5271 364.647 33.8871 364.647ZM38.7621 371.447H39.8821V363.767H38.7621V371.447ZM38.6021 361.207C38.6021 361.607 38.9221 361.927 39.3221 361.927C39.7221 361.927 40.0421 361.607 40.0421 361.207C40.0421 360.807 39.7221 360.487 39.3221 360.487C38.9221 360.487 38.6021 360.807 38.6021 361.207ZM44.2096 368.327L46.4496 371.447H47.8096L44.9296 367.447L47.5696 363.767H46.2096L44.2096 366.567L42.2096 363.767H40.8496L43.4896 367.447L40.6096 371.447H41.9696L44.2096 368.327ZM51.984 360.247H50.864V371.447H51.984V367.207C51.984 365.687 53.024 364.647 54.384 364.647C55.584 364.647 56.464 365.527 56.464 366.887V371.447H57.584V366.887C57.584 364.887 56.304 363.607 54.464 363.607C52.784 363.607 51.984 364.887 51.984 364.887V360.247ZM66.1434 368.023C66.1434 368.023 66.2234 367.767 66.2234 367.447C66.2234 365.207 64.6234 363.607 62.5434 363.607C60.5434 363.607 58.7834 365.367 58.7834 367.607C58.7834 369.847 60.5434 371.607 62.6234 371.607C64.7034 371.607 65.8234 370.007 65.8234 370.007L65.1034 369.287C65.1034 369.287 64.2394 370.567 62.6234 370.567C61.1834 370.567 59.9834 369.367 59.9034 368.007L66.1434 368.023ZM62.5434 364.647C63.9034 364.647 64.9434 365.687 65.1034 367.047H59.9034C60.0634 365.767 61.1834 364.647 62.5434 364.647ZM68.6184 360.247H67.4984V371.447H68.6184V360.247ZM71.5821 367.607C71.5821 366.007 72.9421 364.647 74.3021 364.647C75.5821 364.647 76.8621 365.927 76.8621 367.607C76.8621 369.287 75.5821 370.567 74.3021 370.567C72.9421 370.567 71.5821 369.207 71.5821 367.607ZM71.5821 370.247C71.5821 370.247 72.5421 371.607 74.3021 371.607C76.2221 371.607 77.9821 369.847 77.9821 367.607C77.9821 365.367 76.2221 363.607 74.3021 363.607C72.5421 363.607 71.5821 364.967 71.5821 364.967V363.767H70.4621V374.807H71.5821V370.247ZM83.8177 364.647C83.8177 364.647 82.9377 363.607 81.3377 363.607C79.8177 363.607 78.7777 364.647 78.7777 365.767C78.7777 368.407 82.9377 367.527 82.9377 369.287C82.9377 370.007 82.3777 370.567 81.2577 370.567C79.9777 370.567 79.2577 369.447 79.2577 369.447L78.4577 370.247C78.4577 370.247 79.3377 371.607 81.2577 371.607C83.0177 371.607 84.0577 370.567 84.0577 369.287C84.0577 366.567 79.8977 367.447 79.8977 365.767C79.8977 365.207 80.4577 364.647 81.3377 364.647C82.4577 364.647 83.0177 365.447 83.0177 365.447L83.8177 364.647ZM89.1796 372.567C88.8916 373.367 88.4596 373.767 87.7396 373.767C87.3396 373.767 86.9396 373.607 86.9396 373.607V374.647C86.9396 374.647 87.3396 374.807 87.8996 374.807C89.0196 374.807 89.6596 374.167 90.2996 372.567L93.8196 363.767H92.6196L90.1396 370.007L87.6596 363.767H86.4596L89.5796 371.447L89.1796 372.567ZM100.703 367.607C100.703 369.287 99.4234 370.567 97.9034 370.567C96.3834 370.567 95.1034 369.271 95.1034 367.607C95.1034 365.927 96.3834 364.647 97.9034 364.647C99.4234 364.647 100.703 365.927 100.703 367.607ZM93.9834 367.607C93.9834 369.847 95.7434 371.607 97.9034 371.607C100.063 371.607 101.823 369.847 101.823 367.607C101.823 365.367 100.063 363.607 97.9034 363.607C95.7434 363.607 93.9834 365.367 93.9834 367.607ZM108.625 371.447H109.745V363.767H108.625V368.007C108.625 369.527 107.585 370.567 106.305 370.567C105.105 370.567 104.145 369.607 104.145 368.247V363.767H103.025V368.247C103.025 370.247 104.385 371.607 106.145 371.607C107.825 371.607 108.625 370.407 108.625 370.407V371.447ZM119.991 367.607C119.991 369.287 118.711 370.567 117.191 370.567C115.671 370.567 114.391 369.271 114.391 367.607C114.391 365.927 115.671 364.647 117.191 364.647C118.711 364.647 119.991 365.927 119.991 367.607ZM113.271 367.607C113.271 369.847 115.031 371.607 117.191 371.607C119.351 371.607 121.111 369.847 121.111 367.607C121.111 365.367 119.351 363.607 117.191 363.607C115.031 363.607 113.271 365.367 113.271 367.607ZM123.432 367.607C123.432 366.007 124.792 364.647 126.152 364.647C127.432 364.647 128.712 365.927 128.712 367.607C128.712 369.287 127.432 370.567 126.152 370.567C124.792 370.567 123.432 369.207 123.432 367.607ZM123.432 370.247C123.432 370.247 124.392 371.607 126.152 371.607C128.072 371.607 129.832 369.847 129.832 367.607C129.832 365.367 128.072 363.607 126.152 363.607C124.392 363.607 123.432 364.967 123.432 364.967V363.767H122.312V374.807H123.432V370.247ZM131.748 362.967C131.748 363.527 131.508 363.767 131.108 363.767H130.228V364.807H131.668V369.367C131.668 370.807 132.468 371.607 133.78 371.607C134.388 371.607 134.868 371.367 134.868 371.367V370.327C134.868 370.327 134.388 370.567 133.828 370.567C133.188 370.567 132.788 370.167 132.788 369.367V364.807H134.468V363.767H132.788V361.207H131.748V362.967ZM135.993 371.447H137.113V363.767H135.993V371.447ZM135.833 361.207C135.833 361.607 136.153 361.927 136.553 361.927C136.953 361.927 137.273 361.607 137.273 361.207C137.273 360.807 136.953 360.487 136.553 360.487C136.153 360.487 135.833 360.807 135.833 361.207ZM149.121 371.447H150.241V366.887C150.241 364.743 148.961 363.607 147.281 363.607C145.361 363.607 144.641 364.967 144.641 364.967C144.641 364.967 144.001 363.607 142.161 363.607C140.641 363.607 140.001 364.727 140.001 364.727V363.767H138.881V371.447H140.001V367.207C140.001 365.607 140.961 364.647 142.081 364.647C143.201 364.647 144.001 365.447 144.001 366.887V371.447H145.121V367.207C145.121 365.607 146.081 364.647 147.201 364.647C148.321 364.647 149.121 365.431 149.121 366.887V371.447ZM152.003 371.447H153.123V363.767H152.003V371.447ZM151.843 361.207C151.843 361.607 152.163 361.927 152.563 361.927C152.963 361.927 153.283 361.607 153.283 361.207C153.283 360.807 152.963 360.487 152.563 360.487C152.163 360.487 151.843 360.807 151.843 361.207ZM160.25 363.767H154.41V364.807H158.89L154.25 370.407V371.447H160.41V370.407H155.61L160.25 364.807V363.767ZM168.328 368.023C168.328 368.023 168.408 367.767 168.408 367.447C168.408 365.207 166.808 363.607 164.728 363.607C162.728 363.607 160.968 365.367 160.968 367.607C160.968 369.847 162.728 371.607 164.808 371.607C166.888 371.607 168.008 370.007 168.008 370.007L167.288 369.287C167.288 369.287 166.424 370.567 164.808 370.567C163.368 370.567 162.168 369.367 162.088 368.007L168.328 368.023ZM164.728 364.647C166.088 364.647 167.128 365.687 167.288 367.047H162.088C162.248 365.767 163.368 364.647 164.728 364.647ZM24.1202 391.567C23.8322 392.367 23.4002 392.767 22.6802 392.767C22.2802 392.767 21.8802 392.607 21.8802 392.607V393.647C21.8802 393.647 22.2802 393.807 22.8402 393.807C23.9602 393.807 24.6002 393.167 25.2402 391.567L28.7602 382.767H27.5602L25.0802 389.007L22.6002 382.767H21.4002L24.5202 390.447L24.1202 391.567ZM35.644 386.607C35.644 388.287 34.364 389.567 32.844 389.567C31.324 389.567 30.044 388.271 30.044 386.607C30.044 384.927 31.324 383.647 32.844 383.647C34.364 383.647 35.644 384.927 35.644 386.607ZM28.924 386.607C28.924 388.847 30.684 390.607 32.844 390.607C35.004 390.607 36.764 388.847 36.764 386.607C36.764 384.367 35.004 382.607 32.844 382.607C30.684 382.607 28.924 384.367 28.924 386.607ZM43.5652 390.447H44.6852V382.767H43.5652V387.007C43.5652 388.527 42.5252 389.567 41.2452 389.567C40.0452 389.567 39.0852 388.607 39.0852 387.247V382.767H37.9652V387.247C37.9652 389.247 39.3252 390.607 41.0852 390.607C42.7652 390.607 43.5652 389.407 43.5652 389.407V390.447ZM50.5246 382.607H50.2046C48.4446 382.607 47.6446 383.807 47.6446 383.807V382.767H46.5246V390.447H47.6446V386.207C47.6446 384.687 48.7646 383.727 50.0446 383.727H50.5246V382.607ZM52.9271 386.607C52.9271 388.847 54.6871 390.607 56.7671 390.607C58.7671 390.607 59.9671 389.007 59.9671 389.007L59.1671 388.287C59.1671 388.287 58.2871 389.567 56.7671 389.567C55.3271 389.567 54.0471 388.287 54.0471 386.607C54.0471 384.927 55.3271 383.647 56.7671 383.647C58.2871 383.647 59.0871 384.927 59.0871 384.927L59.8871 384.127C59.8871 384.127 58.7671 382.607 56.7671 382.607C54.6871 382.607 52.9271 384.367 52.9271 386.607ZM67.0815 386.607C67.0815 388.287 65.8015 389.567 64.2815 389.567C62.7615 389.567 61.4815 388.271 61.4815 386.607C61.4815 384.927 62.7615 383.647 64.2815 383.647C65.8015 383.647 67.0815 384.927 67.0815 386.607ZM60.3615 386.607C60.3615 388.847 62.1215 390.607 64.2815 390.607C66.4415 390.607 68.2015 388.847 68.2015 386.607C68.2015 384.367 66.4415 382.607 64.2815 382.607C62.1215 382.607 60.3615 384.367 60.3615 386.607ZM74.0427 383.647C74.0427 383.647 73.1627 382.607 71.5627 382.607C70.0427 382.607 69.0027 383.647 69.0027 384.767C69.0027 387.407 73.1627 386.527 73.1627 388.287C73.1627 389.007 72.6027 389.567 71.4827 389.567C70.2027 389.567 69.4827 388.447 69.4827 388.447L68.6827 389.247C68.6827 389.247 69.5627 390.607 71.4827 390.607C73.2427 390.607 74.2827 389.567 74.2827 388.287C74.2827 385.567 70.1227 386.447 70.1227 384.767C70.1227 384.207 70.6827 383.647 71.5627 383.647C72.6827 383.647 73.2427 384.447 73.2427 384.447L74.0427 383.647ZM76.1977 381.967C76.1977 382.527 75.9577 382.767 75.5577 382.767H74.6777V383.807H76.1177V388.367C76.1177 389.807 76.9177 390.607 78.2297 390.607C78.8377 390.607 79.3177 390.367 79.3177 390.367V389.327C79.3177 389.327 78.8377 389.567 78.2777 389.567C77.6377 389.567 77.2377 389.167 77.2377 388.367V383.807H78.9177V382.767H77.2377V380.207H76.1977V381.967ZM85.0834 383.647C85.0834 383.647 84.2034 382.607 82.6034 382.607C81.0834 382.607 80.0434 383.647 80.0434 384.767C80.0434 387.407 84.2034 386.527 84.2034 388.287C84.2034 389.007 83.6434 389.567 82.5234 389.567C81.2434 389.567 80.5234 388.447 80.5234 388.447L79.7234 389.247C79.7234 389.247 80.6034 390.607 82.5234 390.607C84.2834 390.607 85.3234 389.567 85.3234 388.287C85.3234 385.567 81.1634 386.447 81.1634 384.767C81.1634 384.207 81.7234 383.647 82.6034 383.647C83.7234 383.647 84.2834 384.447 84.2834 384.447L85.0834 383.647ZM90.4452 386.047C89.0052 386.287 88.2052 387.087 88.2052 388.367C88.2052 389.487 89.3252 390.607 90.9252 390.607C92.6052 390.607 93.4052 389.407 93.4052 389.407V390.447H94.5252V385.567C94.5252 383.887 93.2452 382.607 91.4852 382.607C89.6452 382.607 88.6052 384.047 88.6052 384.047L89.3252 384.767C89.3252 384.767 90.1252 383.647 91.4852 383.647C92.6052 383.647 93.4052 384.447 93.4052 385.567L90.4452 386.047ZM90.9252 389.567C89.8852 389.567 89.3252 389.007 89.3252 388.367C89.3252 387.647 89.8052 387.183 90.7652 387.007L93.4052 386.527V387.007C93.4052 388.527 92.3652 389.567 90.9252 389.567ZM97.3977 382.767H96.2777V390.447H97.3977V386.207C97.3977 384.687 98.4377 383.647 99.7977 383.647C100.998 383.647 101.878 384.527 101.878 385.887V390.447H102.998V385.887C102.998 383.887 101.718 382.607 99.8777 382.607C98.1977 382.607 97.3977 383.887 97.3977 383.887V382.767ZM110.599 386.607C110.599 388.207 109.239 389.567 107.879 389.567C106.599 389.567 105.319 388.287 105.319 386.607C105.319 384.927 106.599 383.647 107.879 383.647C109.239 383.647 110.599 385.007 110.599 386.607ZM110.599 383.967C110.599 383.967 109.639 382.607 107.879 382.607C105.959 382.607 104.199 384.367 104.199 386.607C104.199 388.847 105.959 390.607 107.879 390.607C109.639 390.607 110.599 389.247 110.599 389.247V390.447H111.719V379.247H110.599V383.967ZM116.92 386.607C116.92 385.007 118.28 383.647 119.64 383.647C120.92 383.647 122.2 384.927 122.2 386.607C122.2 388.287 120.92 389.567 119.64 389.567C118.28 389.567 116.92 388.207 116.92 386.607ZM116.92 389.247C116.92 389.247 117.88 390.607 119.64 390.607C121.56 390.607 123.32 388.847 123.32 386.607C123.32 384.367 121.56 382.607 119.64 382.607C117.88 382.607 116.92 383.967 116.92 383.967V382.767H115.8V393.807H116.92V389.247ZM128.515 382.607H128.195C126.435 382.607 125.635 383.807 125.635 383.807V382.767H124.515V390.447H125.635V386.207C125.635 384.687 126.755 383.727 128.035 383.727H128.515V382.607ZM135.391 386.607C135.391 388.287 134.111 389.567 132.591 389.567C131.071 389.567 129.791 388.271 129.791 386.607C129.791 384.927 131.071 383.647 132.591 383.647C134.111 383.647 135.391 384.927 135.391 386.607ZM128.671 386.607C128.671 388.847 130.431 390.607 132.591 390.607C134.751 390.607 136.511 388.847 136.511 386.607C136.511 384.367 134.751 382.607 132.591 382.607C130.431 382.607 128.671 384.367 128.671 386.607ZM137.152 386.607C137.152 388.847 138.912 390.607 140.992 390.607C142.992 390.607 144.192 389.007 144.192 389.007L143.392 388.287C143.392 388.287 142.512 389.567 140.992 389.567C139.552 389.567 138.272 388.287 138.272 386.607C138.272 384.927 139.552 383.647 140.992 383.647C142.512 383.647 143.312 384.927 143.312 384.927L144.112 384.127C144.112 384.127 142.992 382.607 140.992 382.607C138.912 382.607 137.152 384.367 137.152 386.607ZM151.946 387.023C151.946 387.023 152.026 386.767 152.026 386.447C152.026 384.207 150.426 382.607 148.346 382.607C146.346 382.607 144.586 384.367 144.586 386.607C144.586 388.847 146.346 390.607 148.426 390.607C150.506 390.607 151.626 389.007 151.626 389.007L150.906 388.287C150.906 388.287 150.042 389.567 148.426 389.567C146.986 389.567 145.786 388.367 145.706 387.007L151.946 387.023ZM148.346 383.647C149.706 383.647 150.746 384.687 150.906 386.047H145.706C145.866 384.767 146.986 383.647 148.346 383.647ZM157.861 383.647C157.861 383.647 156.981 382.607 155.381 382.607C153.861 382.607 152.821 383.647 152.821 384.767C152.821 387.407 156.981 386.527 156.981 388.287C156.981 389.007 156.421 389.567 155.301 389.567C154.021 389.567 153.301 388.447 153.301 388.447L152.501 389.247C152.501 389.247 153.381 390.607 155.301 390.607C157.061 390.607 158.101 389.567 158.101 388.287C158.101 385.567 153.941 386.447 153.941 384.767C153.941 384.207 154.501 383.647 155.381 383.647C156.501 383.647 157.061 384.447 157.061 384.447L157.861 383.647ZM163.936 383.647C163.936 383.647 163.056 382.607 161.456 382.607C159.936 382.607 158.896 383.647 158.896 384.767C158.896 387.407 163.056 386.527 163.056 388.287C163.056 389.007 162.496 389.567 161.376 389.567C160.096 389.567 159.376 388.447 159.376 388.447L158.576 389.247C158.576 389.247 159.456 390.607 161.376 390.607C163.136 390.607 164.176 389.567 164.176 388.287C164.176 385.567 160.016 386.447 160.016 384.767C160.016 384.207 160.576 383.647 161.456 383.647C162.576 383.647 163.136 384.447 163.136 384.447L163.936 383.647ZM172.171 387.023C172.171 387.023 172.251 386.767 172.251 386.447C172.251 384.207 170.651 382.607 168.571 382.607C166.571 382.607 164.811 384.367 164.811 386.607C164.811 388.847 166.571 390.607 168.651 390.607C170.731 390.607 171.851 389.007 171.851 389.007L171.131 388.287C171.131 388.287 170.267 389.567 168.651 389.567C167.211 389.567 166.011 388.367 165.931 387.007L172.171 387.023ZM168.571 383.647C169.931 383.647 170.971 384.687 171.131 386.047H165.931C166.091 384.767 167.211 383.647 168.571 383.647ZM178.086 383.647C178.086 383.647 177.206 382.607 175.606 382.607C174.086 382.607 173.046 383.647 173.046 384.767C173.046 387.407 177.206 386.527 177.206 388.287C177.206 389.007 176.646 389.567 175.526 389.567C174.246 389.567 173.526 388.447 173.526 388.447L172.726 389.247C172.726 389.247 173.606 390.607 175.526 390.607C177.286 390.607 178.326 389.567 178.326 388.287C178.326 385.567 174.166 386.447 174.166 384.767C174.166 384.207 174.726 383.647 175.606 383.647C176.726 383.647 177.286 384.447 177.286 384.447L178.086 383.647Z" fill="url(#paint1_linear)"/>
</g>
<path d="M42.8431 139.423V145.363H49.5931V150.493C49.5931 150.493 46.8931 153.463 41.2231 153.463C34.2031 153.463 28.8031 148.063 28.8031 141.043C28.8031 134.023 34.2031 128.623 41.2231 128.623C48.2431 128.623 51.7531 134.023 51.7531 134.023L56.8831 128.893C56.8831 128.893 51.7531 121.333 41.2231 121.333C29.6131 121.333 20.7031 130.243 20.7031 141.043C20.7031 151.843 29.6131 160.753 41.2231 160.753C52.0231 160.753 57.6931 153.463 57.6931 153.463V139.423H42.8431Z" fill="url(#paint2_linear)"/>
<path d="M87.3699 149.143C87.3699 149.143 87.6399 148.063 87.6399 146.173C87.6399 138.613 81.9699 132.943 74.4099 132.943C66.8499 132.943 60.6399 139.153 60.6399 146.713C60.6399 154.273 66.8499 160.483 74.6799 160.483C81.9699 160.483 86.0199 155.893 86.0199 155.893L82.2399 151.033C82.2399 151.033 79.8099 154.273 75.2199 154.273C71.1699 154.273 68.7399 151.843 68.1999 149.143H87.3699ZM74.4099 139.153C77.6499 139.153 79.8099 141.313 80.3499 144.013H68.1999C69.0099 141.313 71.1699 139.153 74.4099 139.153Z" fill="url(#paint3_linear)"/>
<path d="M97.6468 133.483H90.3568V159.943H97.6468V146.173C97.6468 142.123 99.8068 139.963 103.047 139.963C106.017 139.963 108.177 142.123 108.177 145.363V159.943H115.467V144.553C115.467 137.263 111.147 132.943 105.207 132.943C100.347 132.943 97.6468 136.723 97.6468 136.723V133.483Z" fill="url(#paint4_linear)"/>
<path d="M144.882 149.143C144.882 149.143 145.152 148.063 145.152 146.173C145.152 138.613 139.482 132.943 131.922 132.943C124.362 132.943 118.152 139.153 118.152 146.713C118.152 154.273 124.362 160.483 132.192 160.483C139.482 160.483 143.532 155.893 143.532 155.893L139.752 151.033C139.752 151.033 137.322 154.273 132.732 154.273C128.682 154.273 126.252 151.843 125.712 149.143H144.882ZM131.922 139.153C135.162 139.153 137.322 141.313 137.862 144.013H125.712C126.522 141.313 128.682 139.153 131.922 139.153Z" fill="url(#paint5_linear)"/>
<path d="M163.799 133.213H162.719C157.859 133.213 155.159 136.723 155.159 136.723V133.483H147.869V159.943H155.159V147.253C155.159 142.663 157.589 140.233 161.369 140.233C162.989 140.233 163.799 140.503 163.799 140.503V133.213Z" fill="url(#paint6_linear)"/>
<path d="M179.735 159.943C181.355 159.943 187.025 159.943 187.025 159.943V143.473C187.025 137.533 182.435 132.943 175.685 132.943C168.665 132.943 165.155 138.073 165.155 138.073L169.205 142.123C169.205 142.123 171.095 139.423 175.145 139.423C178.115 139.423 179.735 141.043 179.735 143.203L171.365 144.715C166.505 145.579 163.535 148.603 163.535 152.923C163.535 156.973 167.045 160.483 172.445 160.483C177.035 160.483 179.735 157.243 179.735 157.243V159.943ZM174.335 154.543C171.905 154.543 170.825 153.463 170.825 151.843C170.825 150.223 171.905 149.197 173.795 148.873L179.735 147.793V148.603C179.735 152.383 177.575 154.543 174.335 154.543Z" fill="url(#paint7_linear)"/>
<path d="M194.594 130.513C194.594 132.673 193.244 134.023 191.624 134.023H189.194V140.503H193.784V151.303C193.784 157.513 196.754 160.483 202.154 160.483C204.854 160.483 207.014 159.673 207.014 159.673V153.463C207.014 153.463 205.934 154.003 204.314 154.003C202.424 154.003 201.074 152.653 201.074 151.033V140.503H206.474V134.023H201.074V125.653H194.594V130.513Z" fill="url(#paint8_linear)"/>
<path d="M234.594 149.143C234.594 149.143 234.864 148.063 234.864 146.173C234.864 138.613 229.194 132.943 221.634 132.943C214.074 132.943 207.864 139.153 207.864 146.713C207.864 154.273 214.074 160.483 221.904 160.483C229.194 160.483 233.244 155.893 233.244 155.893L229.464 151.033C229.464 151.033 227.034 154.273 222.444 154.273C218.394 154.273 215.964 151.843 215.424 149.143H234.594ZM221.634 139.153C224.874 139.153 227.034 141.313 227.574 144.013H215.424C216.234 141.313 218.394 139.153 221.634 139.153Z" fill="url(#paint9_linear)"/>
<g filter="url(#filter0_d)">
<path d="M210.922 185.409C210.922 185.409 207.952 181.359 201.742 181.359C195.802 181.359 191.482 185.679 191.482 189.729C191.482 198.477 203.632 196.479 203.632 200.529C203.632 201.879 202.552 202.959 200.122 202.959C196.612 202.959 194.452 199.989 194.452 199.989L190.402 204.039C190.402 204.039 193.642 208.899 201.202 208.899C207.952 208.899 211.732 205.119 211.732 200.529C211.732 191.619 199.582 193.509 199.582 189.729C199.582 188.649 200.662 187.569 202.822 187.569C205.522 187.569 207.142 189.729 207.142 189.729L210.922 185.409Z" fill="url(#paint10_linear)"/>
</g>
<g filter="url(#filter1_d)">
<path d="M86.5879 195.129C86.5879 202.419 93.0679 208.899 100.898 208.899C108.188 208.899 111.698 203.499 111.698 203.499L107.378 198.909C107.378 198.909 104.948 202.419 100.898 202.419C97.1179 202.419 93.8779 199.179 93.8779 195.129C93.8779 191.079 97.1179 187.839 100.898 187.839C104.948 187.839 107.108 191.349 107.108 191.349L111.698 186.759C111.698 186.759 108.188 181.359 100.898 181.359C93.0679 181.359 86.5879 187.839 86.5879 195.129Z" fill="url(#paint11_linear)"/>
</g>
<g filter="url(#filter2_d)">
<path d="M165.237 208.359H172.527V192.969C172.527 185.139 168.747 181.359 163.077 181.359C157.137 181.359 154.167 185.949 154.167 185.949C154.167 185.949 152.277 181.359 146.607 181.359C142.017 181.359 139.587 185.139 139.587 185.139V181.899H132.297V208.359H139.587V194.589C139.587 190.539 141.747 188.379 144.447 188.379C146.877 188.379 148.767 190.269 148.767 193.779V208.359H156.057V194.589C156.057 190.539 158.217 188.379 160.917 188.379C163.347 188.379 165.237 190.269 165.237 193.779V208.359Z" fill="url(#paint12_linear)"/>
</g>
<g filter="url(#filter3_d)">
<path d="M195.853 197.559C195.853 197.559 196.123 196.479 196.123 194.589C196.123 187.029 190.453 181.359 182.893 181.359C175.333 181.359 169.123 187.569 169.123 195.129C169.123 202.689 175.333 208.899 183.163 208.899C190.453 208.899 194.503 204.309 194.503 204.309L190.723 199.449C190.723 199.449 188.293 202.689 183.703 202.689C179.653 202.689 177.223 200.259 176.683 197.559H195.853ZM182.893 187.569C186.133 187.569 188.293 189.729 188.833 192.429H176.683C177.493 189.729 179.653 187.569 182.893 187.569Z" fill="#F3F2FF"/>
</g>
<g filter="url(#filter4_d)">
<path d="M116.519 195.129C116.519 191.079 119.489 188.109 122.999 188.109C126.509 188.109 129.479 191.079 129.479 195.129C129.479 199.179 126.509 202.149 122.999 202.149C119.489 202.149 116.519 199.179 116.519 195.129ZM137.039 195.129C137.039 187.839 130.559 181.359 122.999 181.359C115.439 181.359 108.959 187.839 108.959 195.129C108.959 202.419 115.439 208.899 122.999 208.899C130.559 208.899 137.039 202.419 137.039 195.129Z" fill="#F3F2FF"/>
</g>
<g filter="url(#filter5_d)">
<path d="M74.4699 208.359H81.7599V181.899H74.4699V195.939C74.4699 199.989 72.3099 202.149 69.0699 202.149C66.0999 202.149 63.9399 199.989 63.9399 197.019V181.899H56.6499V197.721C56.6499 204.579 60.9699 208.899 66.9099 208.899C71.7699 208.899 74.4699 205.659 74.4699 205.659V208.359Z" fill="url(#paint13_linear)"/>
</g>
<g filter="url(#filter6_d)">
<path d="M29.0731 189.459C29.0731 182.439 34.4731 177.039 41.2231 177.039C47.9731 177.039 53.3731 182.439 53.3731 189.459C53.3731 196.479 47.9731 201.879 41.2231 201.879C34.4731 201.879 29.0731 196.479 29.0731 189.459ZM20.7031 189.459C20.7031 200.259 29.6131 209.169 41.2231 209.169C52.8331 209.169 61.7431 200.259 61.7431 189.459C61.7431 178.659 52.8331 169.749 41.2231 169.749C29.6131 169.749 20.7031 178.659 20.7031 189.459Z" fill="#F3F2FF"/>
</g>
<g filter="url(#filter7_d)">
<path d="M81.8414 178.929C81.8414 181.089 80.4914 182.439 78.8714 182.439H76.4414V188.919H81.0314V199.719C81.0314 205.929 84.0014 208.899 89.4014 208.899C92.1014 208.899 94.2614 208.089 94.2614 208.089V201.879C94.2614 201.879 93.1814 202.419 91.5614 202.419C89.6714 202.419 88.3214 201.069 88.3214 199.449V188.919H93.7214V182.439H88.3214V174.069H81.8414V178.929Z" fill="#F3F2FF"/>
</g>
<path d="M248.891 39.0936C242.311 39.0936 237.876 43.528 237.876 50.1081C237.876 56.6881 242.311 60.9795 248.891 60.9795C256.186 60.9795 260.621 56.5451 260.621 49.965C260.621 43.385 256.186 39.0936 248.891 39.0936Z" fill="#2CBFBF"/>
<rect opacity="0.4" x="21.2402" y="85.9792" width="240" height="5" rx="2" fill="#2CBFBF"/>
<rect x="21.3135" y="85.9792" width="159.927" height="5" rx="2" fill="url(#paint14_linear)"/>
<defs>
<filter id="filter0_d" x="180.402" y="175.359" width="41.33" height="47.54" filterUnits="userSpaceOnUse" color-interpolation-filters="sRGB">
<feFlood flood-opacity="0" result="BackgroundImageFix"/>
<feColorMatrix in="SourceAlpha" type="matrix" values="0 0 0 0 0 0 0 0 0 0 0 0 0 0 0 0 0 0 127 0"/>
<feOffset dy="4"/>
<feGaussianBlur stdDeviation="5"/>
<feColorMatrix type="matrix" values="0 0 0 0 0.345451 0 0 0 0 0.292187 0 0 0 0 0.779167 0 0 0 1 0"/>
<feBlend mode="normal" in2="BackgroundImageFix" result="effect1_dropShadow"/>
<feBlend mode="normal" in="SourceGraphic" in2="effect1_dropShadow" result="shape"/>
</filter>
<filter id="filter1_d" x="76.5879" y="175.359" width="45.11" height="47.54" filterUnits="userSpaceOnUse" color-interpolation-filters="sRGB">
<feFlood flood-opacity="0" result="BackgroundImageFix"/>
<feColorMatrix in="SourceAlpha" type="matrix" values="0 0 0 0 0 0 0 0 0 0 0 0 0 0 0 0 0 0 127 0"/>
<feOffset dy="4"/>
<feGaussianBlur stdDeviation="5"/>
<feColorMatrix type="matrix" values="0 0 0 0 0.345451 0 0 0 0 0.292187 0 0 0 0 0.779167 0 0 0 1 0"/>
<feBlend mode="normal" in2="BackgroundImageFix" result="effect1_dropShadow"/>
<feBlend mode="normal" in="SourceGraphic" in2="effect1_dropShadow" result="shape"/>
</filter>
<filter id="filter2_d" x="122.297" y="175.359" width="60.23" height="47" filterUnits="userSpaceOnUse" color-interpolation-filters="sRGB">
<feFlood flood-opacity="0" result="BackgroundImageFix"/>
<feColorMatrix in="SourceAlpha" type="matrix" values="0 0 0 0 0 0 0 0 0 0 0 0 0 0 0 0 0 0 127 0"/>
<feOffset dy="4"/>
<feGaussianBlur stdDeviation="5"/>
<feColorMatrix type="matrix" values="0 0 0 0 0.345451 0 0 0 0 0.292187 0 0 0 0 0.779167 0 0 0 1 0"/>
<feBlend mode="normal" in2="BackgroundImageFix" result="effect1_dropShadow"/>
<feBlend mode="normal" in="SourceGraphic" in2="effect1_dropShadow" result="shape"/>
</filter>
<filter id="filter3_d" x="159.123" y="175.359" width="47" height="47.54" filterUnits="userSpaceOnUse" color-interpolation-filters="sRGB">
<feFlood flood-opacity="0" result="BackgroundImageFix"/>
<feColorMatrix in="SourceAlpha" type="matrix" values="0 0 0 0 0 0 0 0 0 0 0 0 0 0 0 0 0 0 127 0"/>
<feOffset dy="4"/>
<feGaussianBlur stdDeviation="5"/>
<feColorMatrix type="matrix" values="0 0 0 0 0.345451 0 0 0 0 0.292187 0 0 0 0 0.779167 0 0 0 1 0"/>
<feBlend mode="normal" in2="BackgroundImageFix" result="effect1_dropShadow"/>
<feBlend mode="normal" in="SourceGraphic" in2="effect1_dropShadow" result="shape"/>
</filter>
<filter id="filter4_d" x="98.9595" y="175.359" width="48.08" height="47.54" filterUnits="userSpaceOnUse" color-interpolation-filters="sRGB">
<feFlood flood-opacity="0" result="BackgroundImageFix"/>
<feColorMatrix in="SourceAlpha" type="matrix" values="0 0 0 0 0 0 0 0 0 0 0 0 0 0 0 0 0 0 127 0"/>
<feOffset dy="4"/>
<feGaussianBlur stdDeviation="5"/>
<feColorMatrix type="matrix" values="0 0 0 0 0.345451 0 0 0 0 0.292187 0 0 0 0 0.779167 0 0 0 1 0"/>
<feBlend mode="normal" in2="BackgroundImageFix" result="effect1_dropShadow"/>
<feBlend mode="normal" in="SourceGraphic" in2="effect1_dropShadow" result="shape"/>
</filter>
<filter id="filter5_d" x="46.6499" y="175.899" width="45.11" height="47" filterUnits="userSpaceOnUse" color-interpolation-filters="sRGB">
<feFlood flood-opacity="0" result="BackgroundImageFix"/>
<feColorMatrix in="SourceAlpha" type="matrix" values="0 0 0 0 0 0 0 0 0 0 0 0 0 0 0 0 0 0 127 0"/>
<feOffset dy="4"/>
<feGaussianBlur stdDeviation="5"/>
<feColorMatrix type="matrix" values="0 0 0 0 0.345451 0 0 0 0 0.292187 0 0 0 0 0.779167 0 0 0 1 0"/>
<feBlend mode="normal" in2="BackgroundImageFix" result="effect1_dropShadow"/>
<feBlend mode="normal" in="SourceGraphic" in2="effect1_dropShadow" result="shape"/>
</filter>
<filter id="filter6_d" x="10.7031" y="163.749" width="61.04" height="59.42" filterUnits="userSpaceOnUse" color-interpolation-filters="sRGB">
<feFlood flood-opacity="0" result="BackgroundImageFix"/>
<feColorMatrix in="SourceAlpha" type="matrix" values="0 0 0 0 0 0 0 0 0 0 0 0 0 0 0 0 0 0 127 0"/>
<feOffset dy="4"/>
<feGaussianBlur stdDeviation="5"/>
<feColorMatrix type="matrix" values="0 0 0 0 0.345451 0 0 0 0 0.292187 0 0 0 0 0.779167 0 0 0 1 0"/>
<feBlend mode="normal" in2="BackgroundImageFix" result="effect1_dropShadow"/>
<feBlend mode="normal" in="SourceGraphic" in2="effect1_dropShadow" result="shape"/>
</filter>
<filter id="filter7_d" x="66.4414" y="168.069" width="37.82" height="54.83" filterUnits="userSpaceOnUse" color-interpolation-filters="sRGB">
<feFlood flood-opacity="0" result="BackgroundImageFix"/>
<feColorMatrix in="SourceAlpha" type="matrix" values="0 0 0 0 0 0 0 0 0 0 0 0 0 0 0 0 0 0 127 0"/>
<feOffset dy="4"/>
<feGaussianBlur stdDeviation="5"/>
<feColorMatrix type="matrix" values="0 0 0 0 0.345451 0 0 0 0 0.292187 0 0 0 0 0.779167 0 0 0 1 0"/>
<feBlend mode="normal" in2="BackgroundImageFix" result="effect1_dropShadow"/>
<feBlend mode="normal" in="SourceGraphic" in2="effect1_dropShadow" result="shape"/>
</filter>
<linearGradient id="paint0_linear" x1="-123.617" y1="657.141" x2="506.206" y2="250.809" gradientUnits="userSpaceOnUse">
<stop offset="0.0316722" stop-color="#2CBFBF"/>
<stop offset="1" stop-color="#2CBFBF" stop-opacity="0"/>
</linearGradient>
<linearGradient id="paint1_linear" x1="215.939" y1="375.447" x2="-105.836" y2="389.405" gradientUnits="userSpaceOnUse">
<stop offset="0.13731" stop-color="#F3F2FF"/>
<stop offset="1" stop-color="#F3F2FF" stop-opacity="0"/>
</linearGradient>
<linearGradient id="paint2_linear" x1="343.395" y1="121.333" x2="-42.075" y2="149.801" gradientUnits="userSpaceOnUse">
<stop offset="0.13731" stop-color="#F3F2FF"/>
<stop offset="1" stop-color="#F3F2FF" stop-opacity="0"/>
</linearGradient>
<linearGradient id="paint3_linear" x1="343.395" y1="121.333" x2="-42.075" y2="149.801" gradientUnits="userSpaceOnUse">
<stop offset="0.13731" stop-color="#F3F2FF"/>
<stop offset="1" stop-color="#F3F2FF" stop-opacity="0"/>
</linearGradient>
<linearGradient id="paint4_linear" x1="343.395" y1="121.333" x2="-42.075" y2="149.801" gradientUnits="userSpaceOnUse">
<stop offset="0.13731" stop-color="#F3F2FF"/>
<stop offset="1" stop-color="#F3F2FF" stop-opacity="0"/>
</linearGradient>
<linearGradient id="paint5_linear" x1="343.395" y1="121.333" x2="-42.075" y2="149.801" gradientUnits="userSpaceOnUse">
<stop offset="0.13731" stop-color="#F3F2FF"/>
<stop offset="1" stop-color="#F3F2FF" stop-opacity="0"/>
</linearGradient>
<linearGradient id="paint6_linear" x1="343.395" y1="121.333" x2="-42.075" y2="149.801" gradientUnits="userSpaceOnUse">
<stop offset="0.13731" stop-color="#F3F2FF"/>
<stop offset="1" stop-color="#F3F2FF" stop-opacity="0"/>
</linearGradient>
<linearGradient id="paint7_linear" x1="343.395" y1="121.333" x2="-42.075" y2="149.801" gradientUnits="userSpaceOnUse">
<stop offset="0.13731" stop-color="#F3F2FF"/>
<stop offset="1" stop-color="#F3F2FF" stop-opacity="0"/>
</linearGradient>
<linearGradient id="paint8_linear" x1="343.395" y1="121.333" x2="-42.075" y2="149.801" gradientUnits="userSpaceOnUse">
<stop offset="0.13731" stop-color="#F3F2FF"/>
<stop offset="1" stop-color="#F3F2FF" stop-opacity="0"/>
</linearGradient>
<linearGradient id="paint9_linear" x1="343.395" y1="121.333" x2="-42.075" y2="149.801" gradientUnits="userSpaceOnUse">
<stop offset="0.13731" stop-color="#F3F2FF"/>
<stop offset="1" stop-color="#F3F2FF" stop-opacity="0"/>
</linearGradient>
<linearGradient id="paint10_linear" x1="214.513" y1="197.873" x2="186.767" y2="197.771" gradientUnits="userSpaceOnUse">
<stop offset="0.264656" stop-color="#F3F2FF"/>
<stop offset="0.90183" stop-color="#F3F2FF" stop-opacity="0"/>
</linearGradient>
<linearGradient id="paint11_linear" x1="114.972" y1="197.873" x2="82.3086" y2="197.731" gradientUnits="userSpaceOnUse">
<stop offset="0.264656" stop-color="#F3F2FF"/>
<stop offset="0.90183" stop-color="#F3F2FF" stop-opacity="0"/>
</linearGradient>
<linearGradient id="paint12_linear" x1="177.772" y1="197.549" x2="125.442" y2="197.179" gradientUnits="userSpaceOnUse">
<stop offset="0.264656" stop-color="#F3F2FF"/>
<stop offset="0.90183" stop-color="#F3F2FF" stop-opacity="0"/>
</linearGradient>
<linearGradient id="paint13_linear" x1="85.0336" y1="198.089" x2="52.3707" y2="197.945" gradientUnits="userSpaceOnUse">
<stop offset="0.264656" stop-color="#F3F2FF"/>
<stop offset="0.90183" stop-color="#F3F2FF" stop-opacity="0"/>
</linearGradient>
<linearGradient id="paint14_linear" x1="175.541" y1="88.4792" x2="-30.4435" y2="90.9793" gradientUnits="userSpaceOnUse">
<stop stop-color="#2CBFBF"/>
<stop offset="0.570107" stop-color="#4FD3D3" stop-opacity="0"/>
</linearGradient>
</defs>
</svg>
