<svg width="281" height="431" viewBox="0 0 281 431" fill="none" xmlns="http://www.w3.org/2000/svg">
<mask id="mask0" mask-type="alpha" maskUnits="userSpaceOnUse" x="0" y="0" width="281" height="431">
<rect x="0.511719" y="0.979248" width="280" height="430" rx="30" fill="#5F5CBF"/>
</mask>
<g mask="url(#mask0)">
<rect x="0.511719" y="0.979248" width="280" height="430" rx="30" fill="#5F5CBF"/>
<path d="M248.782 39.0936C242.202 39.0936 237.768 43.528 237.768 50.1081C237.768 56.6881 242.202 60.9795 248.782 60.9795C256.077 60.9795 260.512 56.5451 260.512 49.965C260.512 43.385 256.077 39.0936 248.782 39.0936Z" fill="#2CBFBF"/>
</g>
<g filter="url(#filter0_d)">
<path d="M206.927 245.82C206.927 241.77 209.897 238.8 213.407 238.8C216.917 238.8 219.887 241.77 219.887 245.82C219.887 249.87 216.917 252.84 213.407 252.84C209.897 252.84 206.927 249.87 206.927 245.82ZM227.447 245.82C227.447 238.53 220.967 232.05 213.407 232.05C205.847 232.05 199.367 238.53 199.367 245.82C199.367 253.11 205.847 259.59 213.407 259.59C220.967 259.59 227.447 253.11 227.447 245.82Z" fill="url(#paint0_linear)"/>
</g>
<g filter="url(#filter1_d)">
<path d="M229.312 232.59H222.022V259.05H229.312V245.28C229.312 241.23 231.472 239.07 234.712 239.07C237.682 239.07 239.842 241.23 239.842 244.47V259.05H247.132V243.66C247.132 236.37 242.812 232.05 236.872 232.05C232.012 232.05 229.312 235.83 229.312 235.83V232.59Z" fill="#F3F2FF"/>
</g>
<g filter="url(#filter2_d)">
<path d="M204.445 232.589H197.155V259.049H204.445V232.589ZM204.985 225.029C204.985 222.599 203.365 220.979 200.665 220.979C198.235 220.979 196.615 222.599 196.615 225.029C196.615 227.459 198.235 229.079 200.665 229.079C203.365 229.079 204.985 227.459 204.985 225.029Z" fill="#F3F2FF"/>
</g>
<g filter="url(#filter3_d)">
<path d="M183.035 229.62C183.035 231.78 181.685 233.13 180.065 233.13H177.635V239.61H182.225V250.41C182.225 256.62 185.195 259.59 190.595 259.59C193.295 259.59 195.455 258.78 195.455 258.78V252.57C195.455 252.57 194.375 253.11 192.755 253.11C190.865 253.11 189.515 251.76 189.515 250.14V239.61H194.915V233.13H189.515V224.76H183.035V229.62Z" fill="url(#paint1_linear)"/>
</g>
<g filter="url(#filter4_d)">
<path d="M162.951 232.59H141.351V239.07H153.771L140.811 252.57V259.05H163.491V252.57H149.991L162.951 239.07V232.59Z" fill="url(#paint2_linear)"/>
</g>
<g filter="url(#filter5_d)">
<path d="M174.454 259.05C176.074 259.05 181.744 259.05 181.744 259.05V242.58C181.744 236.64 177.154 232.05 170.404 232.05C163.384 232.05 159.874 237.18 159.874 237.18L163.924 241.23C163.924 241.23 165.814 238.53 169.864 238.53C172.834 238.53 174.454 240.15 174.454 242.31L166.084 243.822C161.224 244.686 158.254 247.71 158.254 252.03C158.254 256.08 161.764 259.59 167.164 259.59C171.754 259.59 174.454 256.35 174.454 256.35V259.05ZM169.054 253.65C166.624 253.65 165.544 252.57 165.544 250.95C165.544 249.33 166.624 248.304 168.514 247.98L174.454 246.9V247.71C174.454 251.49 172.294 253.65 169.054 253.65Z" fill="#F3F2FF"/>
</g>
<path d="M137.331 232.589H130.041V259.049H137.331V232.589ZM137.871 225.029C137.871 222.599 136.251 220.979 133.551 220.979C131.121 220.979 129.501 222.599 129.501 225.029C129.501 227.459 131.121 229.079 133.551 229.079C136.251 229.079 137.871 227.459 137.871 225.029Z" fill="#F3F2FF"/>
<path d="M126.667 221.25H119.377V259.05H126.667V221.25Z" fill="#F3F2FF"/>
<g filter="url(#filter6_d)">
<path d="M90.4084 259.05H97.6984V232.59H90.4084V246.63C90.4084 250.68 88.2484 252.84 85.0084 252.84C82.0384 252.84 79.8784 250.68 79.8784 247.71V232.59H72.5884V248.412C72.5884 255.27 76.9084 259.59 82.8484 259.59C87.7084 259.59 90.4084 256.35 90.4084 256.35V259.05Z" fill="url(#paint3_linear)"/>
</g>
<g filter="url(#filter7_d)">
<path d="M109.147 259.05C110.767 259.05 116.437 259.05 116.437 259.05V242.58C116.437 236.64 111.847 232.05 105.097 232.05C98.0773 232.05 94.5673 237.18 94.5673 237.18L98.6173 241.23C98.6173 241.23 100.507 238.53 104.557 238.53C107.527 238.53 109.147 240.15 109.147 242.31L100.777 243.822C95.9173 244.686 92.9473 247.71 92.9473 252.03C92.9473 256.08 96.4573 259.59 101.857 259.59C106.447 259.59 109.147 256.35 109.147 256.35V259.05ZM103.747 253.65C101.317 253.65 100.237 252.57 100.237 250.95C100.237 249.33 101.317 248.304 103.207 247.98L109.147 246.9V247.71C109.147 251.49 106.987 253.65 103.747 253.65Z" fill="#F3F2FF"/>
</g>
<g filter="url(#filter8_d)">
<path d="M57.3417 232.589H50.0517V259.049H57.3417V232.589ZM57.8817 225.029C57.8817 222.599 56.2617 220.979 53.5617 220.979C51.1317 220.979 49.5117 222.599 49.5117 225.029C49.5117 227.459 51.1317 229.079 53.5617 229.079C56.2617 229.079 57.8817 227.459 57.8817 225.029Z" fill="url(#paint4_linear)"/>
</g>
<g filter="url(#filter9_d)">
<path d="M76.8315 236.1C76.8315 236.1 73.8615 232.05 67.6515 232.05C61.7115 232.05 57.3915 236.37 57.3915 240.42C57.3915 249.168 69.5415 247.17 69.5415 251.22C69.5415 252.57 68.4615 253.65 66.0315 253.65C62.5215 253.65 60.3615 250.68 60.3615 250.68L56.3115 254.73C56.3115 254.73 59.5515 259.59 67.1115 259.59C73.8615 259.59 77.6415 255.81 77.6415 251.22C77.6415 242.31 65.4915 244.2 65.4915 240.42C65.4915 239.34 66.5715 238.26 68.7315 238.26C71.4315 238.26 73.0515 240.42 73.0515 240.42L76.8315 236.1Z" fill="#F3F2FF"/>
</g>
<g filter="url(#filter10_d)">
<path d="M33.6318 259.05H42.2718L56.3118 221.25H47.6718L37.9518 249.33L28.2318 221.25H19.5918L33.6318 259.05Z" fill="#F3F2FF"/>
</g>
<path d="M53.853 220.98C51.2595 220.98 49.5117 222.727 49.5117 225.321C49.5117 227.914 51.2595 229.606 53.853 229.606C56.7283 229.606 58.4761 227.858 58.4761 225.264C58.4761 222.671 56.7283 220.98 53.853 220.98Z" fill="#2CBFBF"/>
<path d="M133.545 220.98C130.952 220.98 129.204 222.727 129.204 225.321C129.204 227.914 130.952 229.606 133.545 229.606C136.421 229.606 138.168 227.858 138.168 225.264C138.168 222.671 136.421 220.98 133.545 220.98Z" fill="#2CBFBF"/>
<path d="M200.956 220.98C198.363 220.98 196.615 222.727 196.615 225.321C196.615 227.914 198.363 229.606 200.956 229.606C203.831 229.606 205.579 227.858 205.579 225.264C205.579 222.671 203.831 220.98 200.956 220.98Z" fill="#2CBFBF"/>
<path d="M46.7813 159.745V152.455H29.2313V121.945H21.1313V159.745H46.7813Z" fill="url(#paint5_linear)"/>
<path d="M58.9229 133.285H51.6329V159.745H58.9229V133.285ZM59.4629 125.725C59.4629 123.295 57.8429 121.675 55.1429 121.675C52.7129 121.675 51.0929 123.295 51.0929 125.725C51.0929 128.155 52.7129 129.775 55.1429 129.775C57.8429 129.775 59.4629 128.155 59.4629 125.725Z" fill="url(#paint6_linear)"/>
<path d="M80.544 159.745L90.534 133.285H82.974L76.764 150.835L70.554 133.285H62.994L72.984 159.745H80.544Z" fill="url(#paint7_linear)"/>
<path d="M119.399 148.945C119.399 148.945 119.669 147.865 119.669 145.975C119.669 138.415 113.999 132.745 106.439 132.745C98.8787 132.745 92.6687 138.955 92.6687 146.515C92.6687 154.075 98.8787 160.285 106.709 160.285C113.999 160.285 118.049 155.695 118.049 155.695L114.269 150.835C114.269 150.835 111.839 154.075 107.249 154.075C103.199 154.075 100.769 151.645 100.229 148.945H119.399ZM106.439 138.955C109.679 138.955 111.839 141.115 112.379 143.815H100.229C101.039 141.115 103.199 138.955 106.439 138.955Z" fill="url(#paint8_linear)"/>
<path d="M20.5918 170.979V208.779H34.6318C45.7018 208.779 54.0718 200.409 54.0718 189.879C54.0718 179.349 45.7018 170.979 34.6318 170.979H20.5918ZM34.6318 178.269C41.1118 178.269 45.9718 183.399 45.9718 189.879C45.9718 196.359 40.8418 201.489 34.6318 201.489H28.6918V178.269H34.6318Z" fill="url(#paint9_linear)"/>
<path d="M74.5791 208.779C76.1991 208.779 81.8691 208.779 81.8691 208.779V192.309C81.8691 186.369 77.2791 181.779 70.5291 181.779C63.5091 181.779 59.9991 186.909 59.9991 186.909L64.0491 190.959C64.0491 190.959 65.9391 188.259 69.9891 188.259C72.9591 188.259 74.5791 189.879 74.5791 192.039L66.2091 193.551C61.3491 194.415 58.3791 197.439 58.3791 201.759C58.3791 205.809 61.8891 209.319 67.2891 209.319C71.8791 209.319 74.5791 206.079 74.5791 206.079V208.779ZM69.1791 203.379C66.7491 203.379 65.6691 202.299 65.6691 200.679C65.6691 199.059 66.7491 198.033 68.6391 197.709L74.5791 196.629V197.439C74.5791 201.219 72.4191 203.379 69.1791 203.379Z" fill="url(#paint10_linear)"/>
<path d="M92.1376 179.349C92.1376 181.509 90.7876 182.859 89.1676 182.859H86.7376V189.339H91.3276V200.139C91.3276 206.349 94.2976 209.319 99.6976 209.319C102.398 209.319 104.558 208.509 104.558 208.509V202.299C104.558 202.299 103.478 202.839 101.858 202.839C99.9676 202.839 98.6176 201.489 98.6176 199.869V189.339H104.018V182.859H98.6176V174.489H92.1376V179.349Z" fill="url(#paint11_linear)"/>
<path d="M125.362 208.779C126.982 208.779 132.652 208.779 132.652 208.779V192.309C132.652 186.369 128.062 181.779 121.312 181.779C114.292 181.779 110.782 186.909 110.782 186.909L114.832 190.959C114.832 190.959 116.722 188.259 120.772 188.259C123.742 188.259 125.362 189.879 125.362 192.039L116.992 193.551C112.132 194.415 109.162 197.439 109.162 201.759C109.162 205.809 112.672 209.319 118.072 209.319C122.662 209.319 125.362 206.079 125.362 206.079V208.779ZM119.962 203.379C117.532 203.379 116.452 202.299 116.452 200.679C116.452 199.059 117.532 198.033 119.422 197.709L125.362 196.629V197.439C125.362 201.219 123.202 203.379 119.962 203.379Z" fill="url(#paint12_linear)"/>
<rect opacity="0.4" x="21.1313" y="85.9792" width="240" height="5" rx="2" fill="#2CBFBF"/>
<rect x="21.2046" y="85.9792" width="159.927" height="5" rx="2" fill="url(#paint13_linear)"/>
<path d="M31.7917 371.447H32.9917L36.6717 360.247H35.3917L32.4317 369.607L29.3917 360.247H28.2717L25.2317 369.607L22.2717 360.247H20.9917L24.6717 371.447H25.8717L28.8317 362.087L31.7917 371.447ZM43.7117 368.023C43.7117 368.023 43.7917 367.767 43.7917 367.447C43.7917 365.207 42.1917 363.607 40.1117 363.607C38.1117 363.607 36.3517 365.367 36.3517 367.607C36.3517 369.847 38.1117 371.607 40.1917 371.607C42.2717 371.607 43.3917 370.007 43.3917 370.007L42.6717 369.287C42.6717 369.287 41.8077 370.567 40.1917 370.567C38.7517 370.567 37.5517 369.367 37.4717 368.007L43.7117 368.023ZM40.1117 364.647C41.4717 364.647 42.5117 365.687 42.6717 367.047H37.4717C37.6317 365.767 38.7517 364.647 40.1117 364.647ZM50.4336 371.447L53.5536 363.767H52.3536L49.8736 369.927L47.3936 363.767H46.1936L49.3136 371.447H50.4336ZM54.2773 371.447H55.3973V363.767H54.2773V371.447ZM54.1173 361.207C54.1173 361.607 54.4373 361.927 54.8373 361.927C55.2373 361.927 55.5573 361.607 55.5573 361.207C55.5573 360.807 55.2373 360.487 54.8373 360.487C54.4373 360.487 54.1173 360.807 54.1173 361.207ZM61.8048 364.647C61.8048 364.647 60.9248 363.607 59.3248 363.607C57.8048 363.607 56.7648 364.647 56.7648 365.767C56.7648 368.407 60.9248 367.527 60.9248 369.287C60.9248 370.007 60.3648 370.567 59.2448 370.567C57.9648 370.567 57.2448 369.447 57.2448 369.447L56.4448 370.247C56.4448 370.247 57.3248 371.607 59.2448 371.607C61.0048 371.607 62.0448 370.567 62.0448 369.287C62.0448 366.567 57.8848 367.447 57.8848 365.767C57.8848 365.207 58.4448 364.647 59.3248 364.647C60.4448 364.647 61.0048 365.447 61.0048 365.447L61.8048 364.647ZM68.8398 371.447H69.9598V363.767H68.8398V368.007C68.8398 369.527 67.7998 370.567 66.5198 370.567C65.3198 370.567 64.3598 369.607 64.3598 368.247V363.767H63.2398V368.247C63.2398 370.247 64.5998 371.607 66.3598 371.607C68.0398 371.607 68.8398 370.407 68.8398 370.407V371.447ZM73.4792 367.047C72.0392 367.287 71.2392 368.087 71.2392 369.367C71.2392 370.487 72.3592 371.607 73.9592 371.607C75.6392 371.607 76.4392 370.407 76.4392 370.407V371.447H77.5592V366.567C77.5592 364.887 76.2792 363.607 74.5192 363.607C72.6792 363.607 71.6392 365.047 71.6392 365.047L72.3592 365.767C72.3592 365.767 73.1592 364.647 74.5192 364.647C75.6392 364.647 76.4392 365.447 76.4392 366.567L73.4792 367.047ZM73.9592 370.567C72.9192 370.567 72.3592 370.007 72.3592 369.367C72.3592 368.647 72.8392 368.183 73.7992 368.007L76.4392 367.527V368.007C76.4392 369.527 75.3992 370.567 73.9592 370.567ZM80.5117 360.247H79.3917V371.447H80.5117V360.247ZM82.3555 371.447H83.4755V363.767H82.3555V371.447ZM82.1955 361.207C82.1955 361.607 82.5155 361.927 82.9155 361.927C83.3155 361.927 83.6355 361.607 83.6355 361.207C83.6355 360.807 83.3155 360.487 82.9155 360.487C82.5155 360.487 82.1955 360.807 82.1955 361.207ZM90.603 363.767H84.763V364.807H89.243L84.603 370.407V371.447H90.763V370.407H85.963L90.603 364.807V363.767ZM98.6805 368.023C98.6805 368.023 98.7605 367.767 98.7605 367.447C98.7605 365.207 97.1605 363.607 95.0805 363.607C93.0805 363.607 91.3205 365.367 91.3205 367.607C91.3205 369.847 93.0805 371.607 95.1605 371.607C97.2405 371.607 98.3605 370.007 98.3605 370.007L97.6405 369.287C97.6405 369.287 96.7765 370.567 95.1605 370.567C93.7205 370.567 92.5205 369.367 92.4405 368.007L98.6805 368.023ZM95.0805 364.647C96.4405 364.647 97.4805 365.687 97.6405 367.047H92.4405C92.6005 365.767 93.7205 364.647 95.0805 364.647ZM103.882 367.047C102.442 367.287 101.642 368.087 101.642 369.367C101.642 370.487 102.762 371.607 104.362 371.607C106.042 371.607 106.842 370.407 106.842 370.407V371.447H107.962V366.567C107.962 364.887 106.682 363.607 104.922 363.607C103.082 363.607 102.042 365.047 102.042 365.047L102.762 365.767C102.762 365.767 103.562 364.647 104.922 364.647C106.042 364.647 106.842 365.447 106.842 366.567L103.882 367.047ZM104.362 370.567C103.322 370.567 102.762 370.007 102.762 369.367C102.762 368.647 103.242 368.183 104.202 368.007L106.842 367.527V368.007C106.842 369.527 105.802 370.567 104.362 370.567ZM110.835 363.767H109.715V371.447H110.835V367.207C110.835 365.687 111.875 364.647 113.235 364.647C114.435 364.647 115.315 365.527 115.315 366.887V371.447H116.435V366.887C116.435 364.887 115.155 363.607 113.315 363.607C111.635 363.607 110.835 364.887 110.835 364.887V363.767ZM122.836 364.647C122.836 364.647 121.956 363.607 120.356 363.607C118.836 363.607 117.796 364.647 117.796 365.767C117.796 368.407 121.956 367.527 121.956 369.287C121.956 370.007 121.396 370.567 120.276 370.567C118.996 370.567 118.276 369.447 118.276 369.447L117.476 370.247C117.476 370.247 118.356 371.607 120.276 371.607C122.036 371.607 123.076 370.567 123.076 369.287C123.076 366.567 118.916 367.447 118.916 365.767C118.916 365.207 119.476 364.647 120.356 364.647C121.476 364.647 122.036 365.447 122.036 365.447L122.836 364.647ZM128.351 363.767L126.431 369.687L124.431 363.767H123.231L125.871 371.447H126.911L128.831 365.607L130.751 371.447H131.791L134.431 363.767H133.231L131.231 369.687L129.311 363.767H128.351ZM141.959 368.023C141.959 368.023 142.039 367.767 142.039 367.447C142.039 365.207 140.439 363.607 138.359 363.607C136.359 363.607 134.599 365.367 134.599 367.607C134.599 369.847 136.359 371.607 138.439 371.607C140.519 371.607 141.639 370.007 141.639 370.007L140.919 369.287C140.919 369.287 140.055 370.567 138.439 370.567C136.999 370.567 135.799 369.367 135.719 368.007L141.959 368.023ZM138.359 364.647C139.719 364.647 140.759 365.687 140.919 367.047H135.719C135.879 365.767 136.999 364.647 138.359 364.647ZM147.234 363.607H146.914C145.154 363.607 144.354 364.807 144.354 364.807V363.767H143.234V371.447H144.354V367.207C144.354 365.687 145.474 364.727 146.754 364.727H147.234V363.607ZM152.589 364.647C152.589 364.647 151.709 363.607 150.109 363.607C148.589 363.607 147.549 364.647 147.549 365.767C147.549 368.407 151.709 367.527 151.709 369.287C151.709 370.007 151.149 370.567 150.029 370.567C148.749 370.567 148.029 369.447 148.029 369.447L147.229 370.247C147.229 370.247 148.109 371.607 150.029 371.607C151.789 371.607 152.829 370.567 152.829 369.287C152.829 366.567 148.669 367.447 148.669 365.767C148.669 365.207 149.229 364.647 150.109 364.647C151.229 364.647 151.789 365.447 151.789 365.447L152.589 364.647ZM153.704 370.807C153.704 371.287 154.024 371.607 154.504 371.607C154.984 371.607 155.304 371.287 155.304 370.807C155.304 370.327 154.984 370.007 154.504 370.007C154.024 370.007 153.704 370.327 153.704 370.807ZM25.5517 385.247L22.1917 379.247H20.8317L24.9917 386.527V390.447H26.1917V386.527L30.3517 379.247H28.9917L25.6317 385.247H25.5517ZM35.9467 386.607C35.9467 388.287 34.6667 389.567 33.1467 389.567C31.6267 389.567 30.3467 388.271 30.3467 386.607C30.3467 384.927 31.6267 383.647 33.1467 383.647C34.6667 383.647 35.9467 384.927 35.9467 386.607ZM29.2267 386.607C29.2267 388.847 30.9867 390.607 33.1467 390.607C35.3067 390.607 37.0667 388.847 37.0667 386.607C37.0667 384.367 35.3067 382.607 33.1467 382.607C30.9867 382.607 29.2267 384.367 29.2267 386.607ZM43.868 390.447H44.988V382.767H43.868V387.007C43.868 388.527 42.828 389.567 41.548 389.567C40.348 389.567 39.388 388.607 39.388 387.247V382.767H38.268V387.247C38.268 389.247 39.628 390.607 41.388 390.607C43.068 390.607 43.868 389.407 43.868 389.407V390.447ZM59.3142 390.447H60.4342V385.887C60.4342 383.743 59.1542 382.607 57.4742 382.607C55.5542 382.607 54.8342 383.967 54.8342 383.967C54.8342 383.967 54.1942 382.607 52.3542 382.607C50.8342 382.607 50.1942 383.727 50.1942 383.727V382.767H49.0742V390.447H50.1942V386.207C50.1942 384.607 51.1542 383.647 52.2742 383.647C53.3942 383.647 54.1942 384.447 54.1942 385.887V390.447H55.3142V386.207C55.3142 384.607 56.2742 383.647 57.3942 383.647C58.5142 383.647 59.3142 384.431 59.3142 385.887V390.447ZM63.8761 386.047C62.4361 386.287 61.6361 387.087 61.6361 388.367C61.6361 389.487 62.7561 390.607 64.3561 390.607C66.0361 390.607 66.8361 389.407 66.8361 389.407V390.447H67.9561V385.567C67.9561 383.887 66.6761 382.607 64.9161 382.607C63.0761 382.607 62.0361 384.047 62.0361 384.047L62.7561 384.767C62.7561 384.767 63.5561 383.647 64.9161 383.647C66.0361 383.647 66.8361 384.447 66.8361 385.567L63.8761 386.047ZM64.3561 389.567C63.3161 389.567 62.7561 389.007 62.7561 388.367C62.7561 387.647 63.2361 387.183 64.1961 387.007L66.8361 386.527V387.007C66.8361 388.527 65.7961 389.567 64.3561 389.567ZM70.9086 388.287L72.4286 386.687L75.1486 390.447H76.4286L73.1486 385.887L76.1086 382.767H74.7486L70.9086 386.847V379.247H69.7886V390.447H70.9086V388.287ZM83.8648 387.023C83.8648 387.023 83.9448 386.767 83.9448 386.447C83.9448 384.207 82.3448 382.607 80.2648 382.607C78.2648 382.607 76.5048 384.367 76.5048 386.607C76.5048 388.847 78.2648 390.607 80.3448 390.607C82.4248 390.607 83.5448 389.007 83.5448 389.007L82.8248 388.287C82.8248 388.287 81.9608 389.567 80.3448 389.567C78.9048 389.567 77.7048 388.367 77.6248 387.007L83.8648 387.023ZM80.2648 383.647C81.6248 383.647 82.6648 384.687 82.8248 386.047H77.6248C77.7848 384.767 78.9048 383.647 80.2648 383.647ZM93.2267 386.607C93.2267 388.207 91.8667 389.567 90.5067 389.567C89.2267 389.567 87.9467 388.287 87.9467 386.607C87.9467 384.927 89.2267 383.647 90.5067 383.647C91.8667 383.647 93.2267 385.007 93.2267 386.607ZM93.2267 383.967C93.2267 383.967 92.2667 382.607 90.5067 382.607C88.5867 382.607 86.8267 384.367 86.8267 386.607C86.8267 388.847 88.5867 390.607 90.5067 390.607C92.2667 390.607 93.2267 389.247 93.2267 389.247V390.447H94.3467V379.247H93.2267V383.967ZM102.98 387.023C102.98 387.023 103.06 386.767 103.06 386.447C103.06 384.207 101.46 382.607 99.3805 382.607C97.3805 382.607 95.6205 384.367 95.6205 386.607C95.6205 388.847 97.3805 390.607 99.4605 390.607C101.54 390.607 102.66 389.007 102.66 389.007L101.94 388.287C101.94 388.287 101.076 389.567 99.4605 389.567C98.0205 389.567 96.8205 388.367 96.7405 387.007L102.98 387.023ZM99.3805 383.647C100.74 383.647 101.78 384.687 101.94 386.047H96.7405C96.9005 384.767 98.0205 383.647 99.3805 383.647ZM103.695 386.607C103.695 388.847 105.455 390.607 107.535 390.607C109.535 390.607 110.735 389.007 110.735 389.007L109.935 388.287C109.935 388.287 109.055 389.567 107.535 389.567C106.095 389.567 104.815 388.287 104.815 386.607C104.815 384.927 106.095 383.647 107.535 383.647C109.055 383.647 109.855 384.927 109.855 384.927L110.655 384.127C110.655 384.127 109.535 382.607 107.535 382.607C105.455 382.607 103.695 384.367 103.695 386.607ZM111.69 390.447H112.81V382.767H111.69V390.447ZM111.53 380.207C111.53 380.607 111.85 380.927 112.25 380.927C112.65 380.927 112.97 380.607 112.97 380.207C112.97 379.807 112.65 379.487 112.25 379.487C111.85 379.487 111.53 379.807 111.53 380.207ZM119.217 383.647C119.217 383.647 118.337 382.607 116.737 382.607C115.217 382.607 114.177 383.647 114.177 384.767C114.177 387.407 118.337 386.527 118.337 388.287C118.337 389.007 117.777 389.567 116.657 389.567C115.377 389.567 114.657 388.447 114.657 388.447L113.857 389.247C113.857 389.247 114.737 390.607 116.657 390.607C118.417 390.607 119.457 389.567 119.457 388.287C119.457 385.567 115.297 386.447 115.297 384.767C115.297 384.207 115.857 383.647 116.737 383.647C117.857 383.647 118.417 384.447 118.417 384.447L119.217 383.647ZM120.652 390.447H121.772V382.767H120.652V390.447ZM120.492 380.207C120.492 380.607 120.812 380.927 121.212 380.927C121.612 380.927 121.932 380.607 121.932 380.207C121.932 379.807 121.612 379.487 121.212 379.487C120.812 379.487 120.492 379.807 120.492 380.207ZM129.7 386.607C129.7 388.287 128.42 389.567 126.9 389.567C125.38 389.567 124.1 388.271 124.1 386.607C124.1 384.927 125.38 383.647 126.9 383.647C128.42 383.647 129.7 384.927 129.7 386.607ZM122.98 386.607C122.98 388.847 124.74 390.607 126.9 390.607C129.06 390.607 130.82 388.847 130.82 386.607C130.82 384.367 129.06 382.607 126.9 382.607C124.74 382.607 122.98 384.367 122.98 386.607ZM133.141 382.767H132.021V390.447H133.141V386.207C133.141 384.687 134.181 383.647 135.541 383.647C136.741 383.647 137.621 384.527 137.621 385.887V390.447H138.741V385.887C138.741 383.887 137.461 382.607 135.621 382.607C133.941 382.607 133.141 383.887 133.141 383.887V382.767ZM145.142 383.647C145.142 383.647 144.262 382.607 142.662 382.607C141.142 382.607 140.102 383.647 140.102 384.767C140.102 387.407 144.262 386.527 144.262 388.287C144.262 389.007 143.702 389.567 142.582 389.567C141.302 389.567 140.582 388.447 140.582 388.447L139.782 389.247C139.782 389.247 140.662 390.607 142.582 390.607C144.342 390.607 145.382 389.567 145.382 388.287C145.382 385.567 141.222 386.447 141.222 384.767C141.222 384.207 141.782 383.647 142.662 383.647C143.782 383.647 144.342 384.447 144.342 384.447L145.142 383.647Z" fill="url(#paint14_linear)"/>
<defs>
<filter id="filter0_d" x="189.367" y="226.05" width="48.08" height="47.54" filterUnits="userSpaceOnUse" color-interpolation-filters="sRGB">
<feFlood flood-opacity="0" result="BackgroundImageFix"/>
<feColorMatrix in="SourceAlpha" type="matrix" values="0 0 0 0 0 0 0 0 0 0 0 0 0 0 0 0 0 0 127 0"/>
<feOffset dy="4"/>
<feGaussianBlur stdDeviation="5"/>
<feColorMatrix type="matrix" values="0 0 0 0 0.345451 0 0 0 0 0.292187 0 0 0 0 0.779167 0 0 0 1 0"/>
<feBlend mode="normal" in2="BackgroundImageFix" result="effect1_dropShadow"/>
<feBlend mode="normal" in="SourceGraphic" in2="effect1_dropShadow" result="shape"/>
</filter>
<filter id="filter1_d" x="209.022" y="226.05" width="45.11" height="47" filterUnits="userSpaceOnUse" color-interpolation-filters="sRGB">
<feFlood flood-opacity="0" result="BackgroundImageFix"/>
<feColorMatrix in="SourceAlpha" type="matrix" values="0 0 0 0 0 0 0 0 0 0 0 0 0 0 0 0 0 0 127 0"/>
<feOffset dx="-3" dy="4"/>
<feGaussianBlur stdDeviation="5"/>
<feColorMatrix type="matrix" values="0 0 0 0 0.345451 0 0 0 0 0.292187 0 0 0 0 0.779167 0 0 0 1 0"/>
<feBlend mode="normal" in2="BackgroundImageFix" result="effect1_dropShadow"/>
<feBlend mode="normal" in="SourceGraphic" in2="effect1_dropShadow" result="shape"/>
</filter>
<filter id="filter2_d" x="183.615" y="214.979" width="28.37" height="58.07" filterUnits="userSpaceOnUse" color-interpolation-filters="sRGB">
<feFlood flood-opacity="0" result="BackgroundImageFix"/>
<feColorMatrix in="SourceAlpha" type="matrix" values="0 0 0 0 0 0 0 0 0 0 0 0 0 0 0 0 0 0 127 0"/>
<feOffset dx="-3" dy="4"/>
<feGaussianBlur stdDeviation="5"/>
<feColorMatrix type="matrix" values="0 0 0 0 0.345451 0 0 0 0 0.292187 0 0 0 0 0.779167 0 0 0 1 0"/>
<feBlend mode="normal" in2="BackgroundImageFix" result="effect1_dropShadow"/>
<feBlend mode="normal" in="SourceGraphic" in2="effect1_dropShadow" result="shape"/>
</filter>
<filter id="filter3_d" x="167.635" y="218.76" width="37.82" height="54.83" filterUnits="userSpaceOnUse" color-interpolation-filters="sRGB">
<feFlood flood-opacity="0" result="BackgroundImageFix"/>
<feColorMatrix in="SourceAlpha" type="matrix" values="0 0 0 0 0 0 0 0 0 0 0 0 0 0 0 0 0 0 127 0"/>
<feOffset dy="4"/>
<feGaussianBlur stdDeviation="5"/>
<feColorMatrix type="matrix" values="0 0 0 0 0.345451 0 0 0 0 0.292187 0 0 0 0 0.779167 0 0 0 1 0"/>
<feBlend mode="normal" in2="BackgroundImageFix" result="effect1_dropShadow"/>
<feBlend mode="normal" in="SourceGraphic" in2="effect1_dropShadow" result="shape"/>
</filter>
<filter id="filter4_d" x="130.811" y="226.59" width="42.68" height="46.46" filterUnits="userSpaceOnUse" color-interpolation-filters="sRGB">
<feFlood flood-opacity="0" result="BackgroundImageFix"/>
<feColorMatrix in="SourceAlpha" type="matrix" values="0 0 0 0 0 0 0 0 0 0 0 0 0 0 0 0 0 0 127 0"/>
<feOffset dy="4"/>
<feGaussianBlur stdDeviation="5"/>
<feColorMatrix type="matrix" values="0 0 0 0 0.345451 0 0 0 0 0.292187 0 0 0 0 0.779167 0 0 0 1 0"/>
<feBlend mode="normal" in2="BackgroundImageFix" result="effect1_dropShadow"/>
<feBlend mode="normal" in="SourceGraphic" in2="effect1_dropShadow" result="shape"/>
</filter>
<filter id="filter5_d" x="145.254" y="226.05" width="43.49" height="47.54" filterUnits="userSpaceOnUse" color-interpolation-filters="sRGB">
<feFlood flood-opacity="0" result="BackgroundImageFix"/>
<feColorMatrix in="SourceAlpha" type="matrix" values="0 0 0 0 0 0 0 0 0 0 0 0 0 0 0 0 0 0 127 0"/>
<feOffset dx="-3" dy="4"/>
<feGaussianBlur stdDeviation="5"/>
<feColorMatrix type="matrix" values="0 0 0 0 0.345451 0 0 0 0 0.292187 0 0 0 0 0.779167 0 0 0 1 0"/>
<feBlend mode="normal" in2="BackgroundImageFix" result="effect1_dropShadow"/>
<feBlend mode="normal" in="SourceGraphic" in2="effect1_dropShadow" result="shape"/>
</filter>
<filter id="filter6_d" x="62.5884" y="226.59" width="45.11" height="47" filterUnits="userSpaceOnUse" color-interpolation-filters="sRGB">
<feFlood flood-opacity="0" result="BackgroundImageFix"/>
<feColorMatrix in="SourceAlpha" type="matrix" values="0 0 0 0 0 0 0 0 0 0 0 0 0 0 0 0 0 0 127 0"/>
<feOffset dy="4"/>
<feGaussianBlur stdDeviation="5"/>
<feColorMatrix type="matrix" values="0 0 0 0 0.345451 0 0 0 0 0.292187 0 0 0 0 0.779167 0 0 0 1 0"/>
<feBlend mode="normal" in2="BackgroundImageFix" result="effect1_dropShadow"/>
<feBlend mode="normal" in="SourceGraphic" in2="effect1_dropShadow" result="shape"/>
</filter>
<filter id="filter7_d" x="79.9473" y="226.05" width="43.49" height="47.54" filterUnits="userSpaceOnUse" color-interpolation-filters="sRGB">
<feFlood flood-opacity="0" result="BackgroundImageFix"/>
<feColorMatrix in="SourceAlpha" type="matrix" values="0 0 0 0 0 0 0 0 0 0 0 0 0 0 0 0 0 0 127 0"/>
<feOffset dx="-3" dy="4"/>
<feGaussianBlur stdDeviation="5"/>
<feColorMatrix type="matrix" values="0 0 0 0 0.345451 0 0 0 0 0.292187 0 0 0 0 0.779167 0 0 0 1 0"/>
<feBlend mode="normal" in2="BackgroundImageFix" result="effect1_dropShadow"/>
<feBlend mode="normal" in="SourceGraphic" in2="effect1_dropShadow" result="shape"/>
</filter>
<filter id="filter8_d" x="39.5117" y="214.979" width="28.37" height="58.07" filterUnits="userSpaceOnUse" color-interpolation-filters="sRGB">
<feFlood flood-opacity="0" result="BackgroundImageFix"/>
<feColorMatrix in="SourceAlpha" type="matrix" values="0 0 0 0 0 0 0 0 0 0 0 0 0 0 0 0 0 0 127 0"/>
<feOffset dy="4"/>
<feGaussianBlur stdDeviation="5"/>
<feColorMatrix type="matrix" values="0 0 0 0 0.345451 0 0 0 0 0.292187 0 0 0 0 0.779167 0 0 0 1 0"/>
<feBlend mode="normal" in2="BackgroundImageFix" result="effect1_dropShadow"/>
<feBlend mode="normal" in="SourceGraphic" in2="effect1_dropShadow" result="shape"/>
</filter>
<filter id="filter9_d" x="43.3115" y="226.05" width="41.33" height="47.54" filterUnits="userSpaceOnUse" color-interpolation-filters="sRGB">
<feFlood flood-opacity="0" result="BackgroundImageFix"/>
<feColorMatrix in="SourceAlpha" type="matrix" values="0 0 0 0 0 0 0 0 0 0 0 0 0 0 0 0 0 0 127 0"/>
<feOffset dx="-3" dy="4"/>
<feGaussianBlur stdDeviation="5"/>
<feColorMatrix type="matrix" values="0 0 0 0 0.345451 0 0 0 0 0.292187 0 0 0 0 0.779167 0 0 0 1 0"/>
<feBlend mode="normal" in2="BackgroundImageFix" result="effect1_dropShadow"/>
<feBlend mode="normal" in="SourceGraphic" in2="effect1_dropShadow" result="shape"/>
</filter>
<filter id="filter10_d" x="9.5918" y="215.25" width="56.72" height="57.8" filterUnits="userSpaceOnUse" color-interpolation-filters="sRGB">
<feFlood flood-opacity="0" result="BackgroundImageFix"/>
<feColorMatrix in="SourceAlpha" type="matrix" values="0 0 0 0 0 0 0 0 0 0 0 0 0 0 0 0 0 0 127 0"/>
<feOffset dy="4"/>
<feGaussianBlur stdDeviation="5"/>
<feColorMatrix type="matrix" values="0 0 0 0 0.345451 0 0 0 0 0.292187 0 0 0 0 0.779167 0 0 0 1 0"/>
<feBlend mode="normal" in2="BackgroundImageFix" result="effect1_dropShadow"/>
<feBlend mode="normal" in="SourceGraphic" in2="effect1_dropShadow" result="shape"/>
</filter>
<linearGradient id="paint0_linear" x1="231.108" y1="248.563" x2="182.449" y2="248.828" gradientUnits="userSpaceOnUse">
<stop offset="0.264656" stop-color="#F3F2FF"/>
<stop offset="0.90183" stop-color="#F3F2FF" stop-opacity="0"/>
</linearGradient>
<linearGradient id="paint1_linear" x1="197.778" y1="245.644" x2="166.898" y2="245.729" gradientUnits="userSpaceOnUse">
<stop offset="0.264656" stop-color="#F3F2FF"/>
<stop offset="0.90183" stop-color="#F3F2FF" stop-opacity="0"/>
</linearGradient>
<linearGradient id="paint2_linear" x1="106.074" y1="253.39" x2="205.653" y2="240.287" gradientUnits="userSpaceOnUse">
<stop offset="0.264656" stop-color="#F3F2FF"/>
<stop offset="0.90183" stop-color="#F3F2FF" stop-opacity="0"/>
</linearGradient>
<linearGradient id="paint3_linear" x1="100.972" y1="248.779" x2="57.4599" y2="248.996" gradientUnits="userSpaceOnUse">
<stop offset="0.264656" stop-color="#F3F2FF"/>
<stop offset="0.90183" stop-color="#F3F2FF" stop-opacity="0"/>
</linearGradient>
<linearGradient id="paint4_linear" x1="58.973" y1="243.807" x2="48.0851" y2="243.795" gradientUnits="userSpaceOnUse">
<stop offset="0.264656" stop-color="#F3F2FF"/>
<stop offset="0.90183" stop-color="#F3F2FF" stop-opacity="0"/>
</linearGradient>
<linearGradient id="paint5_linear" x1="146.892" y1="139.745" x2="-7.51451" y2="142.552" gradientUnits="userSpaceOnUse">
<stop offset="0.13731" stop-color="#F3F2FF"/>
<stop offset="1" stop-color="#F3F2FF" stop-opacity="0"/>
</linearGradient>
<linearGradient id="paint6_linear" x1="146.892" y1="139.745" x2="-7.51451" y2="142.552" gradientUnits="userSpaceOnUse">
<stop offset="0.13731" stop-color="#F3F2FF"/>
<stop offset="1" stop-color="#F3F2FF" stop-opacity="0"/>
</linearGradient>
<linearGradient id="paint7_linear" x1="146.892" y1="139.745" x2="-7.51451" y2="142.552" gradientUnits="userSpaceOnUse">
<stop offset="0.13731" stop-color="#F3F2FF"/>
<stop offset="1" stop-color="#F3F2FF" stop-opacity="0"/>
</linearGradient>
<linearGradient id="paint8_linear" x1="146.892" y1="139.745" x2="-7.51451" y2="142.552" gradientUnits="userSpaceOnUse">
<stop offset="0.13731" stop-color="#F3F2FF"/>
<stop offset="1" stop-color="#F3F2FF" stop-opacity="0"/>
</linearGradient>
<linearGradient id="paint9_linear" x1="128.351" y1="231.937" x2="9.26718" y2="45.1841" gradientUnits="userSpaceOnUse">
<stop offset="0.13731" stop-color="#F2F9FF"/>
<stop offset="1" stop-color="#F3F2FF" stop-opacity="0"/>
</linearGradient>
<linearGradient id="paint10_linear" x1="128.351" y1="231.937" x2="9.26718" y2="45.1841" gradientUnits="userSpaceOnUse">
<stop offset="0.13731" stop-color="#F2F9FF"/>
<stop offset="1" stop-color="#F3F2FF" stop-opacity="0"/>
</linearGradient>
<linearGradient id="paint11_linear" x1="128.351" y1="231.937" x2="9.26718" y2="45.1841" gradientUnits="userSpaceOnUse">
<stop offset="0.13731" stop-color="#F2F9FF"/>
<stop offset="1" stop-color="#F3F2FF" stop-opacity="0"/>
</linearGradient>
<linearGradient id="paint12_linear" x1="128.351" y1="231.937" x2="9.26718" y2="45.1841" gradientUnits="userSpaceOnUse">
<stop offset="0.13731" stop-color="#F2F9FF"/>
<stop offset="1" stop-color="#F3F2FF" stop-opacity="0"/>
</linearGradient>
<linearGradient id="paint13_linear" x1="175.432" y1="88.4792" x2="-30.5524" y2="90.9793" gradientUnits="userSpaceOnUse">
<stop stop-color="#2CBFBF"/>
<stop offset="0.570107" stop-color="#4FD3D3" stop-opacity="0"/>
</linearGradient>
<linearGradient id="paint14_linear" x1="188.101" y1="375.447" x2="-89.0053" y2="385.793" gradientUnits="userSpaceOnUse">
<stop offset="0.13731" stop-color="#F3F2FF"/>
<stop offset="1" stop-color="#F3F2FF" stop-opacity="0"/>
</linearGradient>
</defs>
</svg>
