<svg width="111" height="16" viewBox="0 0 111 16" fill="none" xmlns="http://www.w3.org/2000/svg">
<path d="M36.6719 15.775H33.5616V9.4784H22.4099V15.775H19.2995V0.602539H22.4099V6.89909H33.5616V0.602539H36.6719V15.775Z" fill="#121212"/>
<path d="M16.6443 3.40955V0.602651H0.333984V15.7751H16.6443V12.9682H3.59605V3.40955H16.6443Z" fill="#121212"/>
<path d="M57.8375 12.968H39.2513V15.7749H57.8375V12.968Z" fill="#121212"/>
<path d="M57.8376 0.602638H39.2514V3.40953H57.8376V0.602638Z" fill="#121212"/>
<path d="M57.8375 6.82312H39.2513V9.63001H57.8375V6.82312Z" fill="#121212"/>
<path d="M72.5547 12.9681H56.2443V15.775H72.5547V12.9681Z" fill="#121212"/>
<path d="M72.5547 0.602539H56.2444V3.40944H72.5547V0.602539Z" fill="#121212"/>
<path d="M72.5547 6.82318H56.2443V9.63007H72.5547V6.82318Z" fill="#121212"/>
<path d="M90.9892 0.602641H74.6788V3.40954H90.9892V0.602641Z" fill="#121212"/>
<path d="M84.4651 0.602539H81.2031V15.775H84.4651V0.602539Z" fill="#121212"/>
<path d="M96.9375 3.33733H104.069V0.67841H96.9375L96.9375 3.33733Z" fill="#121212"/>
<path d="M110.334 15.775H107.224L101.686 0.678456H104.796L110.334 15.775Z" fill="#121212"/>
<path d="M90.2305 15.7751H93.4167L98.9546 0.678502H95.7684L90.2305 15.7751Z" fill="#121212"/>
<path d="M94.1526 12.345H106.822V9.53814L94.1526 9.53814V12.345Z" fill="#121212"/>
</svg>
